{
.appVersion = "939";
DisplayStrings = (
"/Tiwn-arm",
"/vo-arm/yiwn-arm/ayb-arm/now-arm/ayb-arm"
);
copyright = "Copyright 2011 Google Inc. All Rights Reserved.";
customParameters = (
{
name = license;
value = "Licensed under the Apache License, Version 2.0";
},
{
name = licenseURL;
value = "http://www.apache.org/licenses/LICENSE-2.0";
},
{
name = vendorID;
value = GOOG;
},
{
name = panose;
value = (
2,
0,
0,
0,
0,
0,
0,
0,
0,
0
);
},
{
name = unicodeRanges;
value = (
0,
1,
2,
3,
4,
5,
6,
7,
9,
29,
30,
31,
32,
33,
34,
35,
36,
37,
38,
40,
45,
60,
62,
64,
69
);
},
{
name = codePageRanges;
value = (
1252,
1250,
1251,
1253,
1254,
1257,
1258
);
},
{
name = glyphOrder;
value = (
.notdef,
uni0000,
uni0002,
uni0009,
uni000D,
space,
exclam,
quotedbl,
numbersign,
dollar,
percent,
ampersand,
quotesingle,
parenleft,
parenright,
asterisk,
plus,
comma,
hyphen,
period,
slash,
zero,
one,
two,
three,
four,
five,
six,
seven,
eight,
nine,
colon,
semicolon,
less,
equal,
greater,
question,
at,
A,
B,
C,
D,
E,
F,
G,
H,
I,
J,
K,
L,
M,
N,
O,
P,
Q,
R,
S,
T,
U,
V,
W,
X,
Y,
Z,
bracketleft,
backslash,
bracketright,
asciicircum,
underscore,
grave,
a,
b,
c,
d,
e,
f,
g,
h,
i,
j,
k,
l,
m,
n,
o,
p,
q,
r,
s,
t,
u,
v,
w,
x,
y,
z,
braceleft,
bar,
braceright,
asciitilde,
exclamdown,
cent,
sterling,
currency,
yen,
brokenbar,
section,
dieresis,
copyright,
ordfeminine,
guillemotleft,
logicalnot,
registered,
macron,
degree,
plusminus,
twosuperior,
threesuperior,
acute,
mu,
paragraph,
periodcentered,
cedilla,
onesuperior,
ordmasculine,
guillemotright,
onequarter,
onehalf,
threequarters,
questiondown,
AE,
multiply,
Oslash,
Thorn,
germandbls,
ae,
eth,
divide,
oslash,
thorn,
dcroat,
Hbar,
dotlessi,
kgreenlandic,
Lslash,
lslash,
Eng,
eng,
OE,
oe,
longs,
uni0180,
uni0181,
uni0182,
uni0183,
uni0184,
uni0185,
uni0186,
uni0187,
uni0188,
uni0189,
uni018A,
uni018B,
uni018C,
uni018D,
uni018E,
uni018F,
uni0190,
uni0191,
florin,
uni0193,
uni0194,
uni0195,
uni0197,
uni0198,
uni0199,
uni019A,
uni019B,
uni019C,
uni019D,

glyphs = (
{
glyphname = .notdef;
lastChange = "2017-04-17 14:53:26 +0000";
layers = (
{
layerId = "10767FFE-EA3C-45A9-8421-483827593C6E";
paths = (
{
closed = 1;
nodes = (
"808 1456 LINE",
"100 1456 LINE",
"100 0 LINE",
"808 0 LINE"
);
},
{
closed = 1;
nodes = (
"452 796 LINE",
"194 1402 LINE",
"709 1402 LINE"
);
},
{
closed = 1;
nodes = (
"754 84 LINE",
"480 728 LINE",
"754 1372 LINE"
);
},
{
closed = 1;
nodes = (
"154 96 LINE",
"154 1360 LINE",
"422 728 LINE"
);
},
{
closed = 1;
nodes = (
"709 54 LINE",
"194 54 LINE",
"452 660 LINE"
);
}
);
width = 908;
}
);
note = .notdef;
},
{
glyphname = exclam;
lastChange = "2017-04-17 14:53:26 +0000";
layers = (
{
layerId = "10767FFE-EA3C-45A9-8421-483827593C6E";
paths = (
{
closed = 1;
nodes = (
"174 406 LINE",
"284 406 LINE",
"291 1456 LINE",
"167 1456 LINE"
);
},
{
closed = 1;
nodes = (
"154 18 OFFCURVE",
"181 -9 OFFCURVE",
"236 -9 CURVE SMOOTH",
"291 -9 OFFCURVE",
"319 18 OFFCURVE",
"319 71 CURVE SMOOTH",
"319 124 OFFCURVE",
"291 151 OFFCURVE",
"236 151 CURVE SMOOTH",
"181 151 OFFCURVE",
"154 124 OFFCURVE",
"154 71 CURVE SMOOTH"
);
}
);
width = 462;
}
);
note = exclam;
unicode = 0021;
},
{
glyphname = quotedbl;
lastChange = "2017-04-17 14:53:26 +0000";
layers = (
{
layerId = "10767FFE-EA3C-45A9-8421-483827593C6E";
paths = (
{
closed = 1;
nodes = (
"143 1083 LINE",
"224 1083 LINE",
"244 1397 LINE",
"244 1536 LINE",
"146 1536 LINE"
);
},
{
closed = 1;
nodes = (
"379 1083 LINE",
"460 1083 LINE",
"479 1397 LINE",
"479 1536 LINE",
"382 1536 LINE"
);
}
);
width = 589;
}
);
leftKerningGroup = quotedbl;
note = quotedbl;
rightKerningGroup = quotedbl;
unicode = 0022;
},
{
glyphname = numbersign;
lastChange = "2017-04-17 14:53:26 +0000";
layers = (
{
layerId = "10767FFE-EA3C-45A9-8421-483827593C6E";
paths = (
{
closed = 1;
nodes = (
"853 410 LINE",
"1126 410 LINE",
"1126 504 LINE",
"871 504 LINE",
"954 945 LINE",
"1201 945 LINE",
"1201 1040 LINE",
"972 1040 LINE",
"1051 1456 LINE",
"951 1456 LINE",
"872 1040 LINE",
"559 1040 LINE",
"637 1456 LINE",
"537 1456 LINE",
"459 1040 LINE",
"161 1040 LINE",
"161 945 LINE",
"441 945 LINE",
"358 504 LINE",
"85 504 LINE",
"85 410 LINE",
"340 410 LINE",
"263 0 LINE",
"363 0 LINE",
"440 410 LINE",
"753 410 LINE",
"676 0 LINE",
"776 0 LINE"
);
},
{
closed = 1;
nodes = (
"854 945 LINE",
"771 504 LINE",
"458 504 LINE",
"541 945 LINE"
);
}
);
width = 1191;
}
);
note = numbersign;
unicode = 0023;
},
{
glyphname = dollar;
lastChange = "2017-04-17 14:53:26 +0000";
layers = (
{
layerId = "10767FFE-EA3C-45A9-8421-483827593C6E";
paths = (
{
closed = 1;
nodes = (
"1021 597 OFFCURVE",
"875 694 OFFCURVE",
"612 783 CURVE SMOOTH",
"348 871 OFFCURVE",
"287 953 OFFCURVE",
"287 1098 CURVE SMOOTH",
"287 1246 OFFCURVE",
"383 1371 OFFCURVE",
"588 1371 CURVE SMOOTH",
"785 1371 OFFCURVE",
"892 1225 OFFCURVE",
"892 1028 CURVE",
"1011 1028 LINE",
"1011 1299 OFFCURVE",
"873 1455 OFFCURVE",
"641 1475 CURVE",
"641 1677 LINE",
"539 1677 LINE",
"539 1475 LINE",
"311 1458 OFFCURVE",
"167 1312 OFFCURVE",
"167 1095 CURVE SMOOTH",
"167 868 OFFCURVE",
"300 767 OFFCURVE",
"559 680 CURVE SMOOTH",
"818 592 OFFCURVE",
"902 510 OFFCURVE",
"902 359 CURVE SMOOTH",
"902 207 OFFCURVE",
"782 85 OFFCURVE",
"581 85 CURVE SMOOTH",
"527 85 OFFCURVE",
"474 95 OFFCURVE",
"421 115 CURVE SMOOTH",
"315 154 OFFCURVE",
"235 247 OFFCURVE",
"235 419 CURVE",
"116 419 LINE",
"116 111 OFFCURVE",
"323 -5 OFFCURVE",
"536 -20 CURVE",
"536 -208 LINE",
"638 -208 LINE",
"638 -19 LINE",
"871 1 OFFCURVE",
"1021 138 OFFCURVE",
"1021 361 CURVE SMOOTH"
);
}
);
width = 1136;
}
);
note = dollar;
unicode = 0024;
},
{
glyphname = percent;
lastChange = "2017-04-17 14:53:26 +0000";
layers = (
{
layerId = "10767FFE-EA3C-45A9-8421-483827593C6E";
paths = (
{
closed = 1;
nodes = (
"110 936 OFFCURVE",
"221 800 OFFCURVE",
"397 800 CURVE SMOOTH",
"570 800 OFFCURVE",
"680 936 OFFCURVE",
"680 1099 CURVE SMOOTH",
"680 1176 LINE SMOOTH",
"680 1341 OFFCURVE",
"570 1477 OFFCURVE",
"395 1477 CURVE SMOOTH",
"220 1477 OFFCURVE",
"110 1341 OFFCURVE",
"110 1176 CURVE SMOOTH",
"110 1099 LINE SMOOTH"
);
},
{
closed = 1;
nodes = (
"206 1285 OFFCURVE",
"268 1390 OFFCURVE",
"395 1390 CURVE SMOOTH",
"522 1390 OFFCURVE",
"583 1285 OFFCURVE",
"583 1176 CURVE SMOOTH",
"583 1099 LINE SMOOTH",
"583 991 OFFCURVE",
"524 887 OFFCURVE",
"397 887 CURVE SMOOTH",
"268 887 OFFCURVE",
"206 992 OFFCURVE",
"206 1099 CURVE SMOOTH",
"206 1176 LINE SMOOTH"
);
},
{
closed = 1;
nodes = (
"360 169 LINE",
"435 121 LINE",
"1146 1259 LINE",
"1071 1307 LINE"
);
},
{
closed = 1;
nodes = (
"842 115 OFFCURVE",
"953 -21 OFFCURVE",
"1129 -21 CURVE SMOOTH",
"1302 -21 OFFCURVE",
"1412 115 OFFCURVE",
"1412 279 CURVE SMOOTH",
"1412 357 LINE SMOOTH",
"1412 521 OFFCURVE",
"1302 657 OFFCURVE",
"1127 657 CURVE SMOOTH",
"952 657 OFFCURVE",
"842 521 OFFCURVE",
"842 357 CURVE SMOOTH",
"842 279 LINE SMOOTH"
);
},
{
closed = 1;
nodes = (
"939 470 OFFCURVE",
"1002 570 OFFCURVE",
"1127 570 CURVE SMOOTH",
"1254 570 OFFCURVE",
"1315 470 OFFCURVE",
"1315 357 CURVE SMOOTH",
"1315 279 LINE SMOOTH",
"1315 170 OFFCURVE",
"1256 66 OFFCURVE",
"1129 66 CURVE SMOOTH",
"1000 66 OFFCURVE",
"939 171 OFFCURVE",
"939 279 CURVE SMOOTH",
"939 357 LINE SMOOTH"
);
}
);
width = 1514;
}
);
note = percent;
unicode = 0025;
},
{
glyphname = ampersand;
lastChange = "2017-04-17 14:53:26 +0000";
layers = (
{
layerId = "10767FFE-EA3C-45A9-8421-483827593C6E";
paths = (
{
closed = 1;
nodes = (
"1032 233 LINE",
"1118 346 OFFCURVE",
"1161 486 OFFCURVE",
"1161 652 CURVE",
"1050 652 LINE",
"1050 527 OFFCURVE",
"1020 416 OFFCURVE",
"959 318 CURVE",
"558 785 LINE",
"685 882 LINE SMOOTH",
"784 958 OFFCURVE",
"884 1059 OFFCURVE",
"884 1191 CURVE SMOOTH",
"884 1346 OFFCURVE",
"769 1477 OFFCURVE",
"573 1477 CURVE SMOOTH",
"370 1477 OFFCURVE",
"239 1349 OFFCURVE",
"239 1145 CURVE SMOOTH",
"239 1025 OFFCURVE",
"301 921 OFFCURVE",
"404 796 CURVE",
"187 625 OFFCURVE",
"108 528 OFFCURVE",
"108 371 CURVE SMOOTH",
"108 138 OFFCURVE",
"281 -20 OFFCURVE",
"561 -20 CURVE SMOOTH",
"713 -20 OFFCURVE",
"856 43 OFFCURVE",
"961 146 CURVE",
"1087 0 LINE",
"1232 0 LINE"
);
},
{
closed = 1;
nodes = (
"359 1270 OFFCURVE",
"433 1375 OFFCURVE",
"573 1375 CURVE SMOOTH",
"701 1375 OFFCURVE",
"771 1286 OFFCURVE",
"771 1191 CURVE SMOOTH",
"771 1092 OFFCURVE",
"709 1024 OFFCURVE",
"625 961 CURVE SMOOTH",
"493 862 LINE",
"404 972 OFFCURVE",
"359 1068 OFFCURVE",
"359 1149 CURVE SMOOTH"
);
},
{
closed = 1;
nodes = (
"228 404 OFFCURVE",
"239 447 OFFCURVE",
"262 499 CURVE SMOOTH",
"284 550 OFFCURVE",
"338 611 OFFCURVE",
"423 681 CURVE",
"470 717 LINE",
"484 701 LINE",
"890 229 LINE",
"796 131 OFFCURVE",
"686 82 OFFCURVE",
"561 82 CURVE SMOOTH",
"336 82 OFFCURVE",
"228 218 OFFCURVE",
"228 371 CURVE SMOOTH"
);
}
);
width = 1261;
}
);
note = ampersand;
unicode = 0026;
},
{
glyphname = quotesingle;
lastChange = "2017-04-17 14:53:26 +0000";
layers = (
{
layerId = "10767FFE-EA3C-45A9-8421-483827593C6E";
paths = (
{
closed = 1;
nodes = (
"125 1437 OFFCURVE",
"123 1288 OFFCURVE",
"120 1091 CURVE",
"209 1091 LINE",
"227 1396 LINE",
"227 1536 LINE",
"125 1536 LINE"
);
}
);
width = 349;
}
);
leftKerningGroup = quotedbl;
note = quotesingle;
rightKerningGroup = quotedbl;
unicode = 0027;
},
{
glyphname = parenleft;
lastChange = "2017-04-17 14:53:26 +0000";
layers = (
{
layerId = "10767FFE-EA3C-45A9-8421-483827593C6E";
paths = (
{
closed = 1;
nodes = (
"141 400 OFFCURVE",
"164 235 OFFCURVE",
"211 94 CURVE SMOOTH",
"304 -190 OFFCURVE",
"456 -387 OFFCURVE",
"593 -470 CURVE",
"622 -393 LINE",
"563 -350 OFFCURVE",
"505 -282 OFFCURVE",
"450 -190 CURVE SMOOTH",
"339 -6 OFFCURVE",
"261 260 OFFCURVE",
"261 572 CURVE SMOOTH",
"261 742 OFFCURVE",
"279 892 OFFCURVE",
"314 1021 CURVE SMOOTH",
"385 1280 OFFCURVE",
"503 1468 OFFCURVE",
"622 1551 CURVE",
"593 1633 LINE",
"524 1592 OFFCURVE",
"455 1522 OFFCURVE",
"386 1424 CURVE SMOOTH",
"246 1227 OFFCURVE",
"141 936 OFFCURVE",
"141 589 CURVE SMOOTH"
);
}
);
width = 654;
}
);
note = parenleft;
unicode = 0028;
},
{
glyphname = parenright;
lastChange = "2017-04-17 14:53:26 +0000";
layers = (
{
layerId = "10767FFE-EA3C-45A9-8421-483827593C6E";
paths = (
{
closed = 1;
nodes = (
"514 758 OFFCURVE",
"491 921 OFFCURVE",
"444 1063 CURVE SMOOTH",
"351 1347 OFFCURVE",
"201 1550 OFFCURVE",
"62 1633 CURVE",
"33 1556 LINE",
"90 1515 OFFCURVE",
"146 1448 OFFCURVE",
"202 1356 CURVE SMOOTH",
"313 1171 OFFCURVE",
"394 904 OFFCURVE",
"394 592 CURVE SMOOTH",
"394 422 OFFCURVE",
"376 272 OFFCURVE",
"341 142 CURVE SMOOTH",
"270 -119 OFFCURVE",
"152 -309 OFFCURVE",
"33 -393 CURVE",
"62 -470 LINE",
"131 -429 OFFCURVE",
"201 -360 OFFCURVE",
"270 -263 CURVE SMOOTH",
"409 -71 OFFCURVE",
"514 218 OFFCURVE",
"514 574 CURVE SMOOTH"
);
}
);
width = 668;
}
);
note = parenright;
unicode = 0029;
},
{
glyphname = asterisk;
lastChange = "2017-04-17 14:53:26 +0000";
layers = (
{
layerId = "10767FFE-EA3C-45A9-8421-483827593C6E";
paths = (
{
closed = 1;
nodes = (
"433 943 LINE",
"647 637 LINE",
"733 700 LINE",
"509 995 LINE",
"843 1109 LINE",
"810 1211 LINE",
"485 1084 LINE",
"494 1456 LINE",
"389 1456 LINE",
"393 1087 LINE",
"62 1209 LINE",
"29 1108 LINE",
"362 1001 LINE",
"144 700 LINE",
"229 639 LINE"
);
}
);
width = 869;
}
);
note = asterisk;
unicode = 002A;
},
{
glyphname = plus;
lastChange = "2017-04-17 14:53:26 +0000";
layers = (
{
layerId = "10767FFE-EA3C-45A9-8421-483827593C6E";
paths = (
{
closed = 1;
nodes = (
"630 741 LINE",
"630 1206 LINE",
"510 1206 LINE",
"510 741 LINE",
"76 741 LINE",
"76 628 LINE",
"510 628 LINE",
"510 146 LINE",
"630 146 LINE",
"630 628 LINE",
"1074 628 LINE",
"1074 741 LINE"
);
}
);
width = 1156;
}
);
note = plus;
unicode = 002B;
},
{
glyphname = comma;
lastChange = "2017-04-17 14:53:26 +0000";
layers = (
{
layerId = "10767FFE-EA3C-45A9-8421-483827593C6E";
paths = (
{
closed = 1;
nodes = (
"154 32 LINE SMOOTH",
"152 -56 OFFCURVE",
"121 -140 OFFCURVE",
"61 -221 CURVE",
"132 -273 LINE",
"225 -188 OFFCURVE",
"272 -81 OFFCURVE",
"272 49 CURVE SMOOTH",
"272 189 LINE",
"154 189 LINE"
);
}
);
width = 393;
}
);
leftKerningGroup = comma;
note = comma;
rightKerningGroup = comma;
unicode = 002C;
},
{
glyphname = hyphen;
lastChange = "2017-04-17 14:53:26 +0000";
layers = (
{
layerId = "10767FFE-EA3C-45A9-8421-483827593C6E";
paths = (
{
closed = 1;
nodes = (
"49 592 LINE",
"528 592 LINE",
"528 694 LINE",
"49 694 LINE"
);
}
);
width = 586;
}
);
leftKerningGroup = hyphen;
note = hyphen;
unicode = 002D;
},
{
glyphname = period;
lastChange = "2017-04-17 14:53:26 +0000";
layers = (
{
layerId = "10767FFE-EA3C-45A9-8421-483827593C6E";
paths = (
{
closed = 1;
nodes = (
"146 18 OFFCURVE",
"174 -9 OFFCURVE",
"230 -9 CURVE SMOOTH",
"287 -9 OFFCURVE",
"316 18 OFFCURVE",
"316 73 CURVE SMOOTH",
"316 128 OFFCURVE",
"287 156 OFFCURVE",
"230 156 CURVE SMOOTH",
"174 156 OFFCURVE",
"146 128 OFFCURVE",
"146 73 CURVE SMOOTH"
);
}
);
width = 489;
}
);
leftKerningGroup = comma;
note = period;
rightKerningGroup = comma;
unicode = 002E;
},
{
glyphname = slash;
lastChange = "2017-04-17 14:53:26 +0000";
layers = (
{
layerId = "10767FFE-EA3C-45A9-8421-483827593C6E";
paths = (
{
closed = 1;
nodes = (
"30 -125 LINE",
"139 -125 LINE",
"747 1456 LINE",
"638 1456 LINE"
);
}
);
width = 814;
}
);
note = slash;
unicode = 002F;
},
{
glyphname = zero;
lastChange = "2017-04-17 14:53:26 +0000";
layers = (
{
layerId = "10767FFE-EA3C-45A9-8421-483827593C6E";
paths = (
{
closed = 1;
nodes = (
"1010 1285 OFFCURVE",
"844 1477 OFFCURVE",
"567 1477 CURVE SMOOTH",
"288 1477 OFFCURVE",
"120 1280 OFFCURVE",
"120 853 CURVE SMOOTH",
"120 587 LINE SMOOTH",
"125 175 OFFCURVE",
"294 -20 OFFCURVE",
"569 -20 CURVE SMOOTH",
"850 -20 OFFCURVE",
"1015 180 OFFCURVE",
"1015 608 CURVE SMOOTH",
"1015 874 LINE"
);
},
{
closed = 1;
nodes = (
"896 267 OFFCURVE",
"789 82 OFFCURVE",
"569 82 CURVE SMOOTH",
"352 82 OFFCURVE",
"240 267 OFFCURVE",
"240 594 CURVE SMOOTH",
"240 880 LINE SMOOTH",
"243 1209 OFFCURVE",
"351 1375 OFFCURVE",
"567 1375 CURVE SMOOTH",
"786 1375 OFFCURVE",
"896 1207 OFFCURVE",
"896 868 CURVE SMOOTH",
"896 594 LINE SMOOTH"
);
}
);
width = 1136;
}
);
note = zero;
unicode = 0030;
},
{
glyphname = one;
lastChange = "2017-04-17 14:53:26 +0000";
layers = (
{
layerId = "10767FFE-EA3C-45A9-8421-483827593C6E";
paths = (
{
closed = 1;
nodes = (
"179 1277 LINE",
"179 1165 LINE",
"574 1312 LINE",
"574 0 LINE",
"694 0 LINE",
"694 1462 LINE",
"674 1462 LINE"
);
}
);
width = 1136;
}
);
note = one;
unicode = 0031;
},
{
glyphname = two;
lastChange = "2017-04-17 14:53:26 +0000";
layers = (
{
layerId = "10767FFE-EA3C-45A9-8421-483827593C6E";
paths = (
{
closed = 1;
nodes = (
"691 560 LINE SMOOTH",
"835 723 OFFCURVE",
"977 909 OFFCURVE",
"977 1086 CURVE SMOOTH",
"977 1330 OFFCURVE",
"816 1476 OFFCURVE",
"553 1476 CURVE SMOOTH",
"273 1476 OFFCURVE",
"105 1277 OFFCURVE",
"105 1036 CURVE",
"225 1036 LINE",
"225 1232 OFFCURVE",
"350 1374 OFFCURVE",
"553 1374 CURVE SMOOTH",
"750 1374 OFFCURVE",
"857 1251 OFFCURVE",
"857 1075 CURVE SMOOTH",
"857 954 OFFCURVE",
"793 836 OFFCURVE",
"614 633 CURVE SMOOTH",
"137 93 LINE",
"137 0 LINE",
"1050 0 LINE",
"1050 102 LINE",
"284 102 LINE"
);
}
);
width = 1136;
}
);
note = two;
unicode = 0032;
},
{
glyphname = three;
lastChange = "2017-04-17 14:53:26 +0000";
layers = (
{
layerId = "10767FFE-EA3C-45A9-8421-483827593C6E";
paths = (
{
closed = 1;
nodes = (
"744 691 OFFCURVE",
"893 603 OFFCURVE",
"893 392 CURVE SMOOTH",
"893 192 OFFCURVE",
"772 82 OFFCURVE",
"565 82 CURVE SMOOTH",
"361 82 OFFCURVE",
"219 210 OFFCURVE",
"219 395 CURVE",
"99 395 LINE",
"99 302 OFFCURVE",
"122 225 OFFCURVE",
"167 164 CURVE SMOOTH",
"257 41 OFFCURVE",
"408 -20 OFFCURVE",
"565 -20 CURVE SMOOTH",
"822 -20 OFFCURVE",
"1012 131 OFFCURVE",
"1012 396 CURVE SMOOTH",
"1012 559 OFFCURVE",
"928 694 OFFCURVE",
"736 746 CURVE",
"900 807 OFFCURVE",
"985 942 OFFCURVE",
"985 1073 CURVE SMOOTH",
"985 1330 OFFCURVE",
"816 1476 OFFCURVE",
"560 1476 CURVE SMOOTH",
"308 1476 OFFCURVE",
"121 1310 OFFCURVE",
"121 1074 CURVE",
"240 1074 LINE",
"240 1259 OFFCURVE",
"377 1374 OFFCURVE",
"560 1374 CURVE SMOOTH",
"769 1374 OFFCURVE",
"866 1252 OFFCURVE",
"866 1077 CURVE SMOOTH",
"866 922 OFFCURVE",
"750 795 OFFCURVE",
"529 794 CURVE SMOOTH",
"404 794 LINE",
"404 691 LINE",
"525 691 LINE SMOOTH"
);
}
);
width = 1136;
}
);
note = three;
unicode = 0033;
},
{
glyphname = four;
lastChange = "2017-04-17 14:53:26 +0000";
layers = (
{
layerId = "10767FFE-EA3C-45A9-8421-483827593C6E";
paths = (
{
closed = 1;
nodes = (
"752 368 LINE",
"752 0 LINE",
"872 0 LINE",
"872 368 LINE",
"1099 368 LINE",
"1099 470 LINE",
"872 470 LINE",
"872 1456 LINE",
"741 1456 LINE",
"68 437 LINE",
"68 368 LINE"
);
},
{
closed = 1;
nodes = (
"752 1301 LINE",
"752 470 LINE",
"215 470 LINE",
"699 1209 LINE"
);
}
);
width = 1136;
}
);
note = four;
unicode = 0034;
},
{
glyphname = five;
lastChange = "2017-04-17 14:53:26 +0000";
layers = (
{
layerId = "10767FFE-EA3C-45A9-8421-483827593C6E";
paths = (
{
closed = 1;
nodes = (
"384 784 OFFCURVE",
"455 825 OFFCURVE",
"594 825 CURVE SMOOTH",
"807 825 OFFCURVE",
"927 667 OFFCURVE",
"927 462 CURVE SMOOTH",
"927 219 OFFCURVE",
"818 82 OFFCURVE",
"611 82 CURVE SMOOTH",
"415 82 OFFCURVE",
"306 182 OFFCURVE",
"283 383 CURVE",
"168 383 LINE",
"192 110 OFFCURVE",
"380 -20 OFFCURVE",
"611 -20 CURVE SMOOTH",
"914 -20 OFFCURVE",
"1047 185 OFFCURVE",
"1047 464 CURVE SMOOTH",
"1047 755 OFFCURVE",
"875 934 OFFCURVE",
"615 934 CURVE SMOOTH",
"494 934 OFFCURVE",
"390 889 OFFCURVE",
"341 853 CURVE",
"393 1345 LINE",
"1018 1345 LINE",
"1018 1456 LINE",
"290 1456 LINE",
"219 747 LINE",
"313 720 LINE"
);
}
);
width = 1136;
}
);
note = five;
unicode = 0035;
},
{
glyphname = six;
lastChange = "2017-04-17 14:53:26 +0000";
layers = (
{
layerId = "10767FFE-EA3C-45A9-8421-483827593C6E";
paths = (
{
closed = 1;
nodes = (
"1033 735 OFFCURVE",
"893 956 OFFCURVE",
"614 956 CURVE SMOOTH",
"456 956 OFFCURVE",
"335 898 OFFCURVE",
"252 781 CURVE",
"275 1141 OFFCURVE",
"476 1360 OFFCURVE",
"819 1363 CURVE SMOOTH",
"844 1363 LINE",
"844 1467 LINE",
"811 1467 LINE SMOOTH",
"352 1460 OFFCURVE",
"130 1135 OFFCURVE",
"130 643 CURVE SMOOTH",
"130 515 LINE SMOOTH",
"130 222 OFFCURVE",
"309 -20 OFFCURVE",
"602 -20 CURVE SMOOTH",
"870 -20 OFFCURVE",
"1033 198 OFFCURVE",
"1033 478 CURVE SMOOTH"
);
},
{
closed = 1;
nodes = (
"291 749 OFFCURVE",
"436 854 OFFCURVE",
"595 854 CURVE SMOOTH",
"810 854 OFFCURVE",
"914 680 OFFCURVE",
"914 473 CURVE SMOOTH",
"914 258 OFFCURVE",
"797 82 OFFCURVE",
"602 82 CURVE SMOOTH",
"406 82 OFFCURVE",
"250 244 OFFCURVE",
"250 513 CURVE SMOOTH",
"250 612 LINE"
);
}
);
width = 1136;
}
);
note = six;
unicode = 0036;
},
{
glyphname = seven;
lastChange = "2017-04-17 14:53:26 +0000";
layers = (
{
layerId = "10767FFE-EA3C-45A9-8421-483827593C6E";
paths = (
{
closed = 1;
nodes = (
"77 1354 LINE",
"905 1354 LINE",
"288 0 LINE",
"412 0 LINE",
"1034 1388 LINE",
"1034 1456 LINE",
"77 1456 LINE"
);
}
);
width = 1136;
}
);
note = seven;
unicode = 0037;
},
{
glyphname = eight;
lastChange = "2017-04-17 14:53:26 +0000";
layers = (
{
layerId = "10767FFE-EA3C-45A9-8421-483827593C6E";
paths = (
{
closed = 1;
nodes = (
"1032 557 OFFCURVE",
"921 691 OFFCURVE",
"756 748 CURVE",
"899 805 OFFCURVE",
"994 927 OFFCURVE",
"994 1082 CURVE SMOOTH",
"994 1335 OFFCURVE",
"810 1476 OFFCURVE",
"567 1476 CURVE SMOOTH",
"324 1476 OFFCURVE",
"143 1335 OFFCURVE",
"143 1082 CURVE SMOOTH",
"143 929 OFFCURVE",
"235 805 OFFCURVE",
"378 748 CURVE",
"213 691 OFFCURVE",
"105 557 OFFCURVE",
"105 386 CURVE SMOOTH",
"105 121 OFFCURVE",
"308 -20 OFFCURVE",
"569 -20 CURVE SMOOTH",
"829 -20 OFFCURVE",
"1032 121 OFFCURVE",
"1032 386 CURVE SMOOTH"
);
},
{
closed = 1;
nodes = (
"875 909 OFFCURVE",
"744 798 OFFCURVE",
"568 798 CURVE SMOOTH",
"391 798 OFFCURVE",
"262 909 OFFCURVE",
"262 1082 CURVE SMOOTH",
"262 1263 OFFCURVE",
"390 1374 OFFCURVE",
"567 1374 CURVE SMOOTH",
"742 1374 OFFCURVE",
"875 1253 OFFCURVE",
"875 1082 CURVE SMOOTH"
);
},
{
closed = 1;
nodes = (
"912 191 OFFCURVE",
"769 82 OFFCURVE",
"569 82 CURVE SMOOTH",
"366 82 OFFCURVE",
"225 191 OFFCURVE",
"225 386 CURVE SMOOTH",
"225 573 OFFCURVE",
"367 696 OFFCURVE",
"567 696 CURVE SMOOTH",
"764 696 OFFCURVE",
"912 573 OFFCURVE",
"912 386 CURVE SMOOTH"
);
}
);
width = 1136;
}
);
note = eight;
unicode = 0038;
},
{
glyphname = nine;
lastChange = "2017-04-17 14:53:26 +0000";
layers = (
{
layerId = "10767FFE-EA3C-45A9-8421-483827593C6E";
paths = (
{
closed = 1;
nodes = (
"1005 1235 OFFCURVE",
"854 1476 OFFCURVE",
"541 1476 CURVE SMOOTH",
"265 1476 OFFCURVE",
"102 1245 OFFCURVE",
"102 965 CURVE SMOOTH",
"102 882 OFFCURVE",
"118 803 OFFCURVE",
"150 729 CURVE SMOOTH",
"213 580 OFFCURVE",
"338 477 OFFCURVE",
"519 477 CURVE SMOOTH",
"674 477 OFFCURVE",
"805 556 OFFCURVE",
"885 675 CURVE",
"877 344 OFFCURVE",
"739 97 OFFCURVE",
"339 93 CURVE SMOOTH",
"303 93 LINE",
"302 -11 LINE",
"328 -11 LINE SMOOTH",
"503 -11 OFFCURVE",
"640 25 OFFCURVE",
"739 97 CURVE SMOOTH",
"935 240 OFFCURVE",
"1005 491 OFFCURVE",
"1005 779 CURVE SMOOTH",
"1005 895 LINE SMOOTH"
);
},
{
closed = 1;
nodes = (
"220 1185 OFFCURVE",
"341 1373 OFFCURVE",
"544 1373 CURVE SMOOTH",
"744 1373 OFFCURVE",
"885 1212 OFFCURVE",
"885 907 CURVE SMOOTH",
"885 836 LINE",
"840 707 OFFCURVE",
"715 580 OFFCURVE",
"534 580 CURVE SMOOTH",
"330 580 OFFCURVE",
"220 771 OFFCURVE",
"220 970 CURVE SMOOTH"
);
}
);
width = 1136;
}
);
note = nine;
unicode = 0039;
},
{
glyphname = colon;
lastChange = "2017-04-17 14:53:26 +0000";
layers = (
{
layerId = "10767FFE-EA3C-45A9-8421-483827593C6E";
paths = (
{
closed = 1;
nodes = (
"127 18 OFFCURVE",
"155 -9 OFFCURVE",
"211 -9 CURVE SMOOTH",
"268 -9 OFFCURVE",
"297 18 OFFCURVE",
"297 73 CURVE SMOOTH",
"297 128 OFFCURVE",
"268 156 OFFCURVE",
"211 156 CURVE SMOOTH",
"155 156 OFFCURVE",
"127 128 OFFCURVE",
"127 73 CURVE SMOOTH"
);
},
{
closed = 1;
nodes = (
"129 941 OFFCURVE",
"157 914 OFFCURVE",
"213 914 CURVE SMOOTH",
"270 914 OFFCURVE",
"299 941 OFFCURVE",
"299 996 CURVE SMOOTH",
"299 1051 OFFCURVE",
"270 1079 OFFCURVE",
"213 1079 CURVE SMOOTH",
"157 1079 OFFCURVE",
"129 1051 OFFCURVE",
"129 996 CURVE SMOOTH"
);
}
);
width = 430;
}
);
note = colon;
unicode = 003A;
},
{
glyphname = semicolon;
lastChange = "2017-04-17 14:53:26 +0000";
layers = (
{
layerId = "10767FFE-EA3C-45A9-8421-483827593C6E";
paths = (
{
closed = 1;
nodes = (
"118 941 OFFCURVE",
"146 914 OFFCURVE",
"202 914 CURVE SMOOTH",
"259 914 OFFCURVE",
"288 941 OFFCURVE",
"288 996 CURVE SMOOTH",
"288 1051 OFFCURVE",
"259 1079 OFFCURVE",
"202 1079 CURVE SMOOTH",
"146 1079 OFFCURVE",
"118 1051 OFFCURVE",
"118 996 CURVE SMOOTH"
);
},
{
closed = 1;
nodes = (
"154 32 LINE SMOOTH",
"152 -56 OFFCURVE",
"121 -140 OFFCURVE",
"61 -221 CURVE",
"132 -273 LINE",
"225 -188 OFFCURVE",
"272 -81 OFFCURVE",
"272 49 CURVE SMOOTH",
"272 189 LINE",
"154 189 LINE"
);
}
);
width = 399;
}
);
note = semicolon;
unicode = 003B;
},
{
glyphname = less;
lastChange = "2017-04-17 14:53:26 +0000";
layers = (
{
layerId = "10767FFE-EA3C-45A9-8421-483827593C6E";
paths = (
{
closed = 1;
nodes = (
"209 656 LINE",
"905 958 LINE",
"905 1083 LINE",
"77 705 LINE",
"77 609 LINE",
"905 230 LINE",
"905 356 LINE"
);
}
);
width = 1047;
}
);
note = less;
unicode = 003C;
},
{
glyphname = equal;
lastChange = "2017-04-17 14:53:26 +0000";
layers = (
{
layerId = "10767FFE-EA3C-45A9-8421-483827593C6E";
paths = (
{
closed = 1;
nodes = (
"150 829 LINE",
"984 829 LINE",
"984 935 LINE",
"150 935 LINE"
);
},
{
closed = 1;
nodes = (
"150 418 LINE",
"984 418 LINE",
"984 524 LINE",
"150 524 LINE"
);
}
);
width = 1133;
}
);
note = equal;
unicode = 003D;
},
{
glyphname = greater;
lastChange = "2017-04-17 14:53:26 +0000";
layers = (
{
layerId = "10767FFE-EA3C-45A9-8421-483827593C6E";
paths = (
{
closed = 1;
nodes = (
"835 660 LINE",
"124 356 LINE",
"124 232 LINE",
"969 611 LINE",
"969 708 LINE",
"124 1086 LINE",
"124 962 LINE"
);
}
);
width = 1062;
}
);
note = greater;
unicode = 003E;
},
{
glyphname = question;
lastChange = "2017-04-17 14:53:26 +0000";
layers = (
{
layerId = "10767FFE-EA3C-45A9-8421-483827593C6E";
paths = (
{
closed = 1;
nodes = (
"496 525 OFFCURVE",
"533 617 OFFCURVE",
"608 681 CURVE SMOOTH",
"747 808 OFFCURVE",
"844 926 OFFCURVE",
"844 1103 CURVE SMOOTH",
"844 1324 OFFCURVE",
"711 1476 OFFCURVE",
"472 1476 CURVE SMOOTH",
"259 1476 OFFCURVE",
"87 1344 OFFCURVE",
"84 1116 CURVE",
"204 1116 LINE",
"207 1275 OFFCURVE",
"317 1370 OFFCURVE",
"472 1370 CURVE SMOOTH",
"637 1370 OFFCURVE",
"724 1261 OFFCURVE",
"724 1102 CURVE SMOOTH",
"724 942 OFFCURVE",
"649 874 OFFCURVE",
"537 763 CURVE SMOOTH",
"416 643 OFFCURVE",
"379 570 OFFCURVE",
"376 405 CURVE",
"496 405 LINE"
);
},
{
closed = 1;
nodes = (
"360 18 OFFCURVE",
"387 -9 OFFCURVE",
"442 -9 CURVE SMOOTH",
"497 -9 OFFCURVE",
"525 18 OFFCURVE",
"525 71 CURVE SMOOTH",
"525 124 OFFCURVE",
"497 151 OFFCURVE",
"442 151 CURVE SMOOTH",
"387 151 OFFCURVE",
"360 124 OFFCURVE",
"360 71 CURVE SMOOTH"
);
}
);
width = 930;
}
);
note = question;
unicode = 003F;
},
{
glyphname = at;
lastChange = "2017-04-17 14:53:26 +0000";
layers = (
{
layerId = "10767FFE-EA3C-45A9-8421-483827593C6E";
paths = (
{
closed = 1;
nodes = (
"1142 -338 OFFCURVE",
"1031 -364 OFFCURVE",
"902 -364 CURVE SMOOTH",
"446 -364 OFFCURVE",
"197 -19 OFFCURVE",
"221 478 CURVE SMOOTH",
"246 993 OFFCURVE",
"549 1327 OFFCURVE",
"980 1327 CURVE SMOOTH",
"1476 1327 OFFCURVE",
"1682 1017 OFFCURVE",
"1657 513 CURVE SMOOTH",
"1646 260 OFFCURVE",
"1550 66 OFFCURVE",
"1373 66 CURVE SMOOTH",
"1352 66 OFFCURVE",
"1328 72 OFFCURVE",
"1301 83 CURVE SMOOTH",
"1247 105 OFFCURVE",
"1205 168 OFFCURVE",
"1217 311 CURVE SMOOTH",
"1267 881 LINE",
"1198 938 OFFCURVE",
"1133 989 OFFCURVE",
"998 989 CURVE SMOOTH",
"782 989 OFFCURVE",
"594 771 OFFCURVE",
"563 427 CURVE SMOOTH",
"539 158 OFFCURVE",
"634 -20 OFFCURVE",
"823 -20 CURVE SMOOTH",
"950 -20 OFFCURVE",
"1049 45 OFFCURVE",
"1122 176 CURVE",
"1149 45 OFFCURVE",
"1229 -20 OFFCURVE",
"1361 -20 CURVE SMOOTH",
"1451 -20 OFFCURVE",
"1524 7 OFFCURVE",
"1580 61 CURVE SMOOTH",
"1692 169 OFFCURVE",
"1743 346 OFFCURVE",
"1750 513 CURVE SMOOTH",
"1773 1069 OFFCURVE",
"1516 1421 OFFCURVE",
"984 1421 CURVE SMOOTH",
"817 1421 OFFCURVE",
"670 1381 OFFCURVE",
"543 1302 CURVE SMOOTH",
"290 1143 OFFCURVE",
"137 851 OFFCURVE",
"121 478 CURVE SMOOTH",
"98 -95 OFFCURVE",
"391 -453 OFFCURVE",
"898 -453 CURVE SMOOTH",
"1019 -453 OFFCURVE",
"1174 -423 OFFCURVE",
"1263 -364 CURVE",
"1233 -285 LINE"
);
},
{
closed = 1;
nodes = (
"701 746 OFFCURVE",
"844 898 OFFCURVE",
"1004 898 CURVE SMOOTH",
"1066 898 OFFCURVE",
"1119 881 OFFCURVE",
"1163 848 CURVE",
"1118 332 LINE",
"1050 132 OFFCURVE",
"941 78 OFFCURVE",
"845 78 CURVE SMOOTH",
"708 78 OFFCURVE",
"647 220 OFFCURVE",
"670 427 CURVE SMOOTH"
);
}
);
width = 1871;
}
);
note = at;
unicode = 0040;
},
{
glyphname = A;
lastChange = "2017-05-28 09:38:47 +0000";
layers = (
{
hints = (
{
horizontal = 1;
origin = "{0, 0}";
type = Anchor;
},
{
horizontal = 1;
origin = "{0, 1}";
type = Anchor;
},
{
horizontal = 1;
origin = "{0, 2}";
type = Anchor;
},
{
horizontal = 1;
origin = "{0, 3}";
type = Anchor;
},
{
horizontal = 1;
origin = "{0, 4}";
type = Anchor;
},
{
horizontal = 1;
origin = "{0, 5}";
type = Anchor;
},
{
horizontal = 1;
origin = "{0, 6}";
type = Anchor;
},
{
horizontal = 1;
origin = "{0, 7}";
type = Anchor;
},
{
horizontal = 1;
origin = "{1, 0}";
type = Anchor;
},
{
horizontal = 1;
origin = "{1, 1}";
type = Anchor;
},
{
horizontal = 1;
origin = "{1, 2}";
type = Anchor;
}
);
layerId = "10767FFE-EA3C-45A9-8421-483827593C6E";
paths = (
{
closed = 1;
nodes = (
"309 408 LINE",
"971 408 LINE",
"1121 0 LINE",
"1249 0 LINE",
"698 1456 LINE",
"581 1456 LINE",
"31 0 LINE",
"159 0 LINE"
);
},
{
closed = 1;
nodes = (
"932 513 LINE",
"348 513 LINE",
"640 1307 LINE"
);
}
);
width = 1280;
}
);
leftKerningGroup = A;
note = A;
rightKerningGroup = A;
unicode = 0041;
},
{
glyphname = B;
lastChange = "2017-05-28 09:38:49 +0000";
layers = (
{
hints = (
{
horizontal = 1;
origin = "{0, 0}";
type = Anchor;
},
{
horizontal = 1;
origin = "{0, 1}";
type = Anchor;
},
{
horizontal = 1;
origin = "{0, 2}";
type = Anchor;
},
{
horizontal = 1;
origin = "{0, 3}";
type = Anchor;
},
{
horizontal = 1;
origin = "{0, 4}";
type = Anchor;
},
{
horizontal = 1;
origin = "{0, 5}";
type = Anchor;
},
{
horizontal = 1;
origin = "{0, 6}";
type = Anchor;
},
{
horizontal = 1;
origin = "{0, 7}";
type = Anchor;
},
{
horizontal = 1;
origin = "{0, 8}";
type = Anchor;
},
{
horizontal = 1;
origin = "{0, 9}";
type = Anchor;
},
{
horizontal = 1;
origin = "{0, 10}";
type = Anchor;
},
{
horizontal = 1;
origin = "{0, 11}";
type = Anchor;
},
{
horizontal = 1;
origin = "{0, 12}";
type = Anchor;
},
{
horizontal = 1;
origin = "{0, 13}";
type = Anchor;
},
{
horizontal = 1;
origin = "{0, 14}";
type = Anchor;
},
{
horizontal = 1;
origin = "{1, 0}";
type = Anchor;
},
{
horizontal = 1;
origin = "{1, 1}";
type = Anchor;
},
{
horizontal = 1;
origin = "{1, 2}";
type = Anchor;
},
{
horizontal = 1;
origin = "{1, 3}";
type = Anchor;
},
{
horizontal = 1;
origin = "{1, 4}";
type = Anchor;
},
{
horizontal = 1;
origin = "{1, 5}";
type = Anchor;
},
{
horizontal = 1;
origin = "{1, 6}";
type = Anchor;
},
{
horizontal = 1;
origin = "{1, 7}";
type = Anchor;
},
{
horizontal = 1;
origin = "{1, 8}";
type = Anchor;
},
{
horizontal = 1;
origin = "{2, 0}";
type = Anchor;
},
{
horizontal = 1;
origin = "{2, 1}";
type = Anchor;
},
{
horizontal = 1;
origin = "{2, 2}";
type = Anchor;
},
{
horizontal = 1;
origin = "{2, 3}";
type = Anchor;
},
{
horizontal = 1;
origin = "{2, 4}";
type = Anchor;
},
{
horizontal = 1;
origin = "{2, 5}";
type = Anchor;
},
{
horizontal = 1;
origin = "{2, 6}";
type = Anchor;
},
{
horizontal = 1;
origin = "{2, 7}";
type = Anchor;
},
{
horizontal = 1;
origin = "{2, 8}";
type = Anchor;
}
);
layerId = "10767FFE-EA3C-45A9-8421-483827593C6E";
paths = (
{
closed = 1;
nodes = (
"1143 579 OFFCURVE",
"1032 723 OFFCURVE",
"860 760 CURVE",
"1005 808 OFFCURVE",
"1090 927 OFFCURVE",
"1090 1076 CURVE SMOOTH",
"1090 1340 OFFCURVE",
"910 1456 OFFCURVE",
"615 1456 CURVE SMOOTH",
"185 1456 LINE",
"185 0 LINE",
"677 0 LINE SMOOTH",
"956 0 OFFCURVE",
"1143 145 OFFCURVE",
"1143 410 CURVE SMOOTH"
);
},
{
closed = 1;
nodes = (
"855 1346 OFFCURVE",
"966 1255 OFFCURVE",
"966 1078 CURVE SMOOTH",
"966 898 OFFCURVE",
"842 804 OFFCURVE",
"627 804 CURVE SMOOTH",
"308 804 LINE",
"308 1351 LINE",
"632 1351 LINE SMOOTH"
);
},
{
closed = 1;
nodes = (
"1019 219 OFFCURVE",
"892 104 OFFCURVE",
"677 104 CURVE SMOOTH",
"308 104 LINE",
"308 701 LINE",
"686 701 LINE SMOOTH",
"913 701 OFFCURVE",
"1019 573 OFFCURVE",
"1019 408 CURVE SMOOTH"
);
}
);
width = 1255;
}
);
note = B;
rightKerningGroup = B;
unicode = 0042;
},
{
glyphname = C;
lastChange = "2017-05-28 09:38:51 +0000";
layers = (
{
hints = (
{
horizontal = 1;
origin = "{0, 0}";
type = Anchor;
},
{
horizontal = 1;
origin = "{0, 1}";
type = Anchor;
},
{
horizontal = 1;
origin = "{0, 2}";
type = Anchor;
},
{
horizontal = 1;
origin = "{0, 3}";
type = Anchor;
},
{
horizontal = 1;
origin = "{0, 4}";
type = Anchor;
},
{
horizontal = 1;
origin = "{0, 5}";
type = Anchor;
},
{
horizontal = 1;
origin = "{0, 6}";
type = Anchor;
},
{
horizontal = 1;
origin = "{0, 7}";
type = Anchor;
},
{
horizontal = 1;
origin = "{0, 8}";
type = Anchor;
},
{
horizontal = 1;
origin = "{0, 9}";
type = Anchor;
},
{
horizontal = 1;
origin = "{0, 10}";
type = Anchor;
},
{
horizontal = 1;
origin = "{0, 11}";
type = Anchor;
},
{
horizontal = 1;
origin = "{0, 12}";
type = Anchor;
},
{
horizontal = 1;
origin = "{0, 13}";
type = Anchor;
},
{
horizontal = 1;
origin = "{0, 14}";
type = Anchor;
},
{
horizontal = 1;
origin = "{0, 15}";
type = Anchor;
},
{
horizontal = 1;
origin = "{0, 16}";
type = Anchor;
},
{
horizontal = 1;
origin = "{0, 17}";
type = Anchor;
},
{
horizontal = 1;
origin = "{0, 18}";
type = Anchor;
},
{
horizontal = 1;
origin = "{0, 19}";
type = Anchor;
},
{
horizontal = 1;
origin = "{0, 20}";
type = Anchor;
},
{
horizontal = 1;
origin = "{0, 21}";
type = Anchor;
},
{
horizontal = 1;
origin = "{0, 22}";
type = Anchor;
},
{
horizontal = 1;
origin = "{0, 23}";
type = Anchor;
},
{
horizontal = 1;
origin = "{0, 24}";
type = Anchor;
},
{
horizontal = 1;
origin = "{0, 25}";
type = Anchor;
},
{
horizontal = 1;
origin = "{0, 26}";
type = Anchor;
},
{
horizontal = 1;
origin = "{0, 27}";
type = Anchor;
}
);
layerId = "10767FFE-EA3C-45A9-8421-483827593C6E";
paths = (
{
closed = 1;
nodes = (
"1061 209 OFFCURVE",
"937 84 OFFCURVE",
"680 84 CURVE SMOOTH",
"409 84 OFFCURVE",
"255 316 OFFCURVE",
"255 637 CURVE SMOOTH",
"255 821 LINE SMOOTH",
"255 1150 OFFCURVE",
"419 1371 OFFCURVE",
"688 1371 CURVE SMOOTH",
"939 1371 OFFCURVE",
"1063 1236 OFFCURVE",
"1092 1001 CURVE",
"1215 1001 LINE",
"1184 1300 OFFCURVE",
"999 1476 OFFCURVE",
"688 1476 CURVE SMOOTH",
"348 1476 OFFCURVE",
"132 1212 OFFCURVE",
"132 819 CURVE SMOOTH",
"132 626 LINE SMOOTH",
"136 239 OFFCURVE",
"351 -20 OFFCURVE",
"680 -20 CURVE SMOOTH",
"1000 -20 OFFCURVE",
"1184 158 OFFCURVE",
"1215 454 CURVE",
"1092 454 LINE"
);
}
);
width = 1330;
}
);
leftKerningGroup = C;
note = C;
rightKerningGroup = C;
unicode = 0043;
},
{
glyphname = D;
lastChange = "2017-05-28 09:38:55 +0000";
layers = (
{
hints = (
{
horizontal = 1;
origin = "{0, 0}";
type = Anchor;
},
{
horizontal = 1;
origin = "{0, 1}";
type = Anchor;
},
{
horizontal = 1;
origin = "{0, 2}";
type = Anchor;
},
{
horizontal = 1;
origin = "{0, 3}";
type = Anchor;
},
{
horizontal = 1;
origin = "{0, 4}";
type = Anchor;
},
{
horizontal = 1;
origin = "{0, 5}";
type = Anchor;
},
{
horizontal = 1;
origin = "{0, 6}";
type = Anchor;
},
{
horizontal = 1;
origin = "{0, 7}";
type = Anchor;
},
{
horizontal = 1;
origin = "{0, 8}";
type = Anchor;
},
{
horizontal = 1;
origin = "{0, 9}";
type = Anchor;
},
{
horizontal = 1;
origin = "{1, 0}";
type = Anchor;
},
{
horizontal = 1;
origin = "{1, 1}";
type = Anchor;
},
{
horizontal = 1;
origin = "{1, 2}";
type = Anchor;
},
{
horizontal = 1;
origin = "{1, 3}";
type = Anchor;
},
{
horizontal = 1;
origin = "{1, 4}";
type = Anchor;
},
{
horizontal = 1;
origin = "{1, 5}";
type = Anchor;
},
{
horizontal = 1;
origin = "{1, 6}";
type = Anchor;
},
{
horizontal = 1;
origin = "{1, 7}";
type = Anchor;
},
{
horizontal = 1;
origin = "{1, 8}";
type = Anchor;
},
{
horizontal = 1;
origin = "{1, 9}";
type = Anchor;
}
);
layerId = "10767FFE-EA3C-45A9-8421-483827593C6E";
paths = (
{
closed = 1;
nodes = (
"958 0 OFFCURVE",
"1213 261 OFFCURVE",
"1213 661 CURVE SMOOTH",
"1213 795 LINE SMOOTH",
"1213 1194 OFFCURVE",
"955 1456 OFFCURVE",
"592 1456 CURVE SMOOTH",
"185 1456 LINE",
"185 0 LINE",
"583 0 LINE SMOOTH"
);
},
{
closed = 1;
nodes = (
"892 1351 OFFCURVE",
"1091 1133 OFFCURVE",
"1091 797 CURVE SMOOTH",
"1091 661 LINE SMOOTH",
"1091 330 OFFCURVE",
"895 104 OFFCURVE",
"583 104 CURVE SMOOTH",
"308 104 LINE",
"308 1351 LINE",
"592 1351 LINE SMOOTH"
);
}
);
width = 1342;
}
);
note = D;
rightKerningGroup = D;
unicode = 0044;
},
{
glyphname = E;
lastChange = "2017-05-28 09:39:18 +0000";
layers = (
{
hints = (
{
horizontal = 1;
origin = "{0, 0}";
type = Anchor;
},
{
horizontal = 1;
origin = "{0, 1}";
type = Anchor;
},
{
horizontal = 1;
origin = "{0, 2}";
type = Anchor;
},
{
horizontal = 1;
origin = "{0, 3}";
type = Anchor;
},
{
horizontal = 1;
origin = "{0, 4}";
type = Anchor;
},
{
horizontal = 1;
origin = "{0, 5}";
type = Anchor;
},
{
horizontal = 1;
origin = "{0, 6}";
type = Anchor;
},
{
horizontal = 1;
origin = "{0, 7}";
type = Anchor;
},
{
horizontal = 1;
origin = "{0, 8}";
type = Anchor;
},
{
horizontal = 1;
origin = "{0, 9}";
type = Anchor;
},
{
horizontal = 1;
origin = "{0, 10}";
type = Anchor;
},
{
horizontal = 1;
origin = "{0, 11}";
type = Anchor;
},
{
horizontal = 1;
origin = "{0, 4}";
type = Delta;
settings = {
deltaV = {
"{100, 100, 0, 0, 0}" = {
"14" = 8;
};
};
};
},
{
horizontal = 1;
origin = "{0, 5}";
type = Delta;
settings = {
deltaV = {
"{100, 100, 0, 0, 0}" = {
"14" = 8;
};
};
};
}
);
layerId = "10767FFE-EA3C-45A9-8421-483827593C6E";
paths = (
{
closed = 1;
nodes = (
"1090 104 LINE",
"308 104 LINE",
"308 698 LINE",
"988 698 LINE",
"988 803 LINE",
"308 803 LINE",
"308 1351 LINE",
"1085 1351 LINE",
"1085 1456 LINE",
"185 1456 LINE",
"185 0 LINE",
"1090 0 LINE"
);
}
);
width = 1165;
}
);
note = E;
rightKerningGroup = E;
unicode = 0045;
},
{
glyphname = F;
lastChange = "2017-05-28 09:39:28 +0000";
layers = (
{
hints = (
{
horizontal = 1;
origin = "{0, 0}";
type = Anchor;
},
{
horizontal = 1;
origin = "{0, 1}";
type = Anchor;
},
{
horizontal = 1;
origin = "{0, 2}";
type = Anchor;
},
{
horizontal = 1;
origin = "{0, 3}";
type = Anchor;
},
{
horizontal = 1;
origin = "{0, 4}";
type = Anchor;
},
{
horizontal = 1;
origin = "{0, 5}";
type = Anchor;
},
{
horizontal = 1;
origin = "{0, 6}";
type = Anchor;
},
{
horizontal = 1;
origin = "{0, 7}";
type = Anchor;
},
{
horizontal = 1;
origin = "{0, 8}";
type = Anchor;
},
{
horizontal = 1;
origin = "{0, 9}";
type = Anchor;
},
{
horizontal = 1;
origin = "{0, 2}";
type = Delta;
settings = {
deltaV = {
"{100, 100, 0, 0, 0}" = {
"14" = 8;
};
};
};
},
{
horizontal = 1;
origin = "{0, 3}";
type = Delta;
settings = {
deltaV = {
"{100, 100, 0, 0, 0}" = {
"14" = 8;
};
};
};
}
);
layerId = "10767FFE-EA3C-45A9-8421-483827593C6E";
paths = (
{
closed = 1;
nodes = (
"308 680 LINE",
"986 680 LINE",
"986 786 LINE",
"308 786 LINE",
"308 1351 LINE",
"1087 1351 LINE",
"1087 1456 LINE",
"185 1456 LINE",
"185 0 LINE",
"308 0 LINE"
);
}
);
width = 1152;
}
);
note = F;
unicode = 0046;
},
{
glyphname = G;
lastChange = "2017-05-28 09:39:34 +0000";
layers = (
{
hints = (
{
horizontal = 1;
origin = "{0, 0}";
type = Anchor;
},
{
horizontal = 1;
origin = "{0, 1}";
type = Anchor;
},
{
horizontal = 1;
origin = "{0, 2}";
type = Anchor;
},
{
horizontal = 1;
origin = "{0, 3}";
type = Anchor;
},
{
horizontal = 1;
origin = "{0, 4}";
type = Anchor;
},
{
horizontal = 1;
origin = "{0, 5}";
type = Anchor;
},
{
horizontal = 1;
origin = "{0, 6}";
type = Anchor;
},
{
horizontal = 1;
origin = "{0, 7}";
type = Anchor;
},
{
horizontal = 1;
origin = "{0, 8}";
type = Anchor;
},
{
horizontal = 1;
origin = "{0, 9}";
type = Anchor;
},
{
horizontal = 1;
origin = "{0, 10}";
type = Anchor;
},
{
horizontal = 1;
origin = "{0, 11}";
type = Anchor;
},
{
horizontal = 1;
origin = "{0, 12}";
type = Anchor;
},
{
horizontal = 1;
origin = "{0, 13}";
type = Anchor;
},
{
horizontal = 1;
origin = "{0, 14}";
type = Anchor;
},
{
horizontal = 1;
origin = "{0, 15}";
type = Anchor;
},
{
horizontal = 1;
origin = "{0, 16}";
type = Anchor;
},
{
horizontal = 1;
origin = "{0, 17}";
type = Anchor;
},
{
horizontal = 1;
origin = "{0, 18}";
type = Anchor;
},
{
horizontal = 1;
origin = "{0, 19}";
type = Anchor;
},
{
horizontal = 1;
origin = "{0, 20}";
type = Anchor;
},
{
horizontal = 1;
origin = "{0, 21}";
type = Anchor;
},
{
horizontal = 1;
origin = "{0, 22}";
type = Anchor;
},
{
horizontal = 1;
origin = "{0, 23}";
type = Anchor;
},
{
horizontal = 1;
origin = "{0, 24}";
type = Anchor;
},
{
horizontal = 1;
origin = "{0, 25}";
type = Anchor;
},
{
horizontal = 1;
origin = "{0, 26}";
type = Anchor;
},
{
horizontal = 1;
origin = "{0, 27}";
type = Anchor;
},
{
horizontal = 1;
origin = "{0, 28}";
type = Anchor;
},
{
horizontal = 1;
origin = "{0, 29}";
type = Anchor;
},
{
horizontal = 1;
origin = "{0, 30}";
type = Anchor;
},
{
horizontal = 1;
origin = "{0, 31}";
type = Anchor;
},
{
horizontal = 1;
origin = "{0, 32}";
type = Anchor;
},
{
horizontal = 1;
origin = "{0, 33}";
type = Anchor;
},
{
horizontal = 1;
origin = "{0, 34}";
type = Anchor;
},
{
horizontal = 1;
origin = "{0, 35}";
type = Anchor;
},
{
horizontal = 1;
origin = "{0, 36}";
type = Anchor;
},
{
horizontal = 1;
origin = "{0, 37}";
type = Anchor;
}
);
layerId = "10767FFE-EA3C-45A9-8421-483827593C6E";
paths = (
{
closed = 1;
nodes = (
"722 587 LINE",
"1113 587 LINE",
"1113 211 LINE",
"1092 186 OFFCURVE",
"1051 158 OFFCURVE",
"989 129 CURVE SMOOTH",
"927 99 OFFCURVE",
"841 84 OFFCURVE",
"730 84 CURVE SMOOTH",
"453 84 OFFCURVE",
"269 306 OFFCURVE",
"269 645 CURVE SMOOTH",
"269 824 LINE SMOOTH",
"269 1152 OFFCURVE",
"426 1371 OFFCURVE",
"710 1371 CURVE SMOOTH",
"973 1371 OFFCURVE",
"1082 1219 OFFCURVE",
"1111 1046 CURVE",
"1234 1046 LINE",
"1202 1291 OFFCURVE",
"1034 1476 OFFCURVE",
"710 1476 CURVE SMOOTH",
"361 1476 OFFCURVE",
"145 1222 OFFCURVE",
"145 822 CURVE SMOOTH",
"145 645 LINE SMOOTH",
"145 238 OFFCURVE",
"386 -20 OFFCURVE",
"729 -20 CURVE SMOOTH",
"882 -20 OFFCURVE",
"998 3 OFFCURVE",
"1078 50 CURVE SMOOTH",
"1157 96 OFFCURVE",
"1210 137 OFFCURVE",
"1235 174 CURVE",
"1235 692 LINE",
"722 692 LINE"
);
}
);
width = 1401;
}
);
leftKerningGroup = C;
note = G;
unicode = 0047;
},
{
glyphname = H;
lastChange = "2017-05-28 09:39:45 +0000";
layers = (
{
hints = (
{
horizontal = 1;
origin = "{0, 0}";
type = Anchor;
},
{
horizontal = 1;
origin = "{0, 1}";
type = Anchor;
},
{
horizontal = 1;
origin = "{0, 2}";
type = Anchor;
},
{
horizontal = 1;
origin = "{0, 3}";
type = Anchor;
},
{
horizontal = 1;
origin = "{0, 4}";
type = Anchor;
},
{
horizontal = 1;
origin = "{0, 5}";
type = Anchor;
},
{
horizontal = 1;
origin = "{0, 6}";
type = Anchor;
},
{
horizontal = 1;
origin = "{0, 7}";
type = Anchor;
},
{
horizontal = 1;
origin = "{0, 8}";
type = Anchor;
},
{
horizontal = 1;
origin = "{0, 9}";
type = Anchor;
},
{
horizontal = 1;
origin = "{0, 10}";
type = Anchor;
},
{
horizontal = 1;
origin = "{0, 11}";
type = Anchor;
},
{
horizontal = 1;
origin = "{0, 2}";
type = Delta;
settings = {
deltaV = {
"{100, 100, 0, 0, 0}" = {
"14" = 8;
};
};
};
},
{
horizontal = 1;
origin = "{0, 3}";
type = Delta;
settings = {
deltaV = {
"{100, 100, 0, 0, 0}" = {
"14" = 8;
};
};
};
}
);
layerId = "10767FFE-EA3C-45A9-8421-483827593C6E";
paths = (
{
closed = 1;
nodes = (
"1263 1456 LINE",
"1140 1456 LINE",
"1140 803 LINE",
"308 803 LINE",
"308 1456 LINE",
"185 1456 LINE",
"185 0 LINE",
"308 0 LINE",
"308 698 LINE",
"1140 698 LINE",
"1140 0 LINE",
"1263 0 LINE"
);
}
);
width = 1449;
}
);
note = H;
rightKerningGroup = H;
unicode = 0048;
},
{
glyphname = I;
lastChange = "2017-05-28 09:39:50 +0000";
layers = (
{
hints = (
{
horizontal = 1;
origin = "{0, 0}";
type = Anchor;
},
{
horizontal = 1;
origin = "{0, 1}";
type = Anchor;
},
{
horizontal = 1;
origin = "{0, 2}";
type = Anchor;
},
{
horizontal = 1;
origin = "{0, 3}";
type = Anchor;
}
);
layerId = "10767FFE-EA3C-45A9-8421-483827593C6E";
paths = (
{
closed = 1;
nodes = (
"212 0 LINE",
"335 0 LINE",
"335 1456 LINE",
"212 1456 LINE"
);
}
);
width = 546;
}
);
note = I;
rightKerningGroup = H;
unicode = 0049;
},
{
glyphname = J;
lastChange = "2017-05-28 09:39:53 +0000";
layers = (
{
hints = (
{
horizontal = 1;
origin = "{0, 0}";
type = Anchor;
},
{
horizontal = 1;
origin = "{0, 1}";
type = Anchor;
},
{
horizontal = 1;
origin = "{0, 2}";
type = Anchor;
},
{
horizontal = 1;
origin = "{0, 3}";
type = Anchor;
},
{
horizontal = 1;
origin = "{0, 4}";
type = Anchor;
},
{
horizontal = 1;
origin = "{0, 5}";
type = Anchor;
},
{
horizontal = 1;
origin = "{0, 6}";
type = Anchor;
},
{
horizontal = 1;
origin = "{0, 7}";
type = Anchor;
},
{
horizontal = 1;
origin = "{0, 8}";
type = Anchor;
},
{
horizontal = 1;
origin = "{0, 9}";
type = Anchor;
},
{
horizontal = 1;
origin = "{0, 10}";
type = Anchor;
},
{
horizontal = 1;
origin = "{0, 11}";
type = Anchor;
},
{
horizontal = 1;
origin = "{0, 12}";
type = Anchor;
},
{
horizontal = 1;
origin = "{0, 13}";
type = Anchor;
},
{
horizontal = 1;
origin = "{0, 14}";
type = Anchor;
},
{
horizontal = 1;
origin = "{0, 15}";
type = Anchor;
}
);
layerId = "10767FFE-EA3C-45A9-8421-483827593C6E";
paths = (
{
closed = 1;
nodes = (
"828 205 OFFCURVE",
"688 84 OFFCURVE",
"511 84 CURVE SMOOTH",
"312 84 OFFCURVE",
"195 191 OFFCURVE",
"195 402 CURVE",
"72 402 LINE",
"72 117 OFFCURVE",
"248 -20 OFFCURVE",
"511 -20 CURVE SMOOTH",
"764 -20 OFFCURVE",
"951 141 OFFCURVE",
"951 434 CURVE SMOOTH",
"951 1456 LINE",
"828 1456 LINE",
"828 434 LINE SMOOTH"
);
}
);
width = 1128;
}
);
leftKerningGroup = J;
note = J;
rightKerningGroup = J;
unicode = 004A;
},
{
glyphname = K;
lastChange = "2017-05-28 09:39:57 +0000";
layers = (
{
hints = (
{
horizontal = 1;
origin = "{0, 0}";
type = Anchor;
},
{
horizontal = 1;
origin = "{0, 1}";
type = Anchor;
},
{
horizontal = 1;
origin = "{0, 2}";
type = Anchor;
},
{
horizontal = 1;
origin = "{0, 3}";
type = Anchor;
},
{
horizontal = 1;
origin = "{0, 4}";
type = Anchor;
},
{
horizontal = 1;
origin = "{0, 5}";
type = Anchor;
},
{
horizontal = 1;
origin = "{0, 6}";
type = Anchor;
},
{
horizontal = 1;
origin = "{0, 7}";
type = Anchor;
},
{
horizontal = 1;
origin = "{0, 8}";
type = Anchor;
},
{
horizontal = 1;
origin = "{0, 9}";
type = Anchor;
},
{
horizontal = 1;
origin = "{0, 10}";
type = Anchor;
},
{
horizontal = 1;
origin = "{0, 11}";
type = Anchor;
},
{
horizontal = 1;
origin = "{0, 12}";
type = Anchor;
}
);
layerId = "10767FFE-EA3C-45A9-8421-483827593C6E";
paths = (
{
closed = 1;
nodes = (
"598 808 LINE",
"1208 1456 LINE",
"1053 1456 LINE",
"506 879 LINE",
"308 673 LINE",
"308 1456 LINE",
"185 1456 LINE",
"185 0 LINE",
"308 0 LINE",
"308 522 LINE",
"513 723 LINE",
"1106 0 LINE",
"1256 0 LINE"
);
}
);
width = 1292;
}
);
note = K;
rightKerningGroup = K;
unicode = 004B;
},
{
glyphname = L;
lastChange = "2017-05-28 09:40:00 +0000";
layers = (
{
hints = (
{
horizontal = 1;
origin = "{0, 0}";
type = Anchor;
},
{
horizontal = 1;
origin = "{0, 1}";
type = Anchor;
},
{
horizontal = 1;
origin = "{0, 2}";
type = Anchor;
},
{
horizontal = 1;
origin = "{0, 3}";
type = Anchor;
},
{
horizontal = 1;
origin = "{0, 4}";
type = Anchor;
},
{
horizontal = 1;
origin = "{0, 5}";
type = Anchor;
}
);
layerId = "10767FFE-EA3C-45A9-8421-483827593C6E";
paths = (
{
closed = 1;
nodes = (
"309 1456 LINE",
"185 1456 LINE",
"185 0 LINE",
"1027 0 LINE",
"1027 104 LINE",
"309 104 LINE"
);
}
);
width = 1080;
}
);
note = L;
rightKerningGroup = L;
unicode = 004C;
},
{
glyphname = M;
lastChange = "2017-05-28 09:40:02 +0000";
layers = (
{
hints = (
{
horizontal = 1;
origin = "{0, 0}";
type = Anchor;
},
{
horizontal = 1;
origin = "{0, 1}";
type = Anchor;
},
{
horizontal = 1;
origin = "{0, 2}";
type = Anchor;
},
{
horizontal = 1;
origin = "{0, 3}";
type = Anchor;
},
{
horizontal = 1;
origin = "{0, 4}";
type = Anchor;
},
{
horizontal = 1;
origin = "{0, 5}";
type = Anchor;
},
{
horizontal = 1;
origin = "{0, 6}";
type = Anchor;
},
{
horizontal = 1;
origin = "{0, 7}";
type = Anchor;
},
{
horizontal = 1;
origin = "{0, 8}";
type = Anchor;
},
{
horizontal = 1;
origin = "{0, 9}";
type = Anchor;
},
{
horizontal = 1;
origin = "{0, 10}";
type = Anchor;
},
{
horizontal = 1;
origin = "{0, 11}";
type = Anchor;
},
{
horizontal = 1;
origin = "{0, 12}";
type = Anchor;
},
{
horizontal = 1;
origin = "{0, 13}";
type = Anchor;
},
{
horizontal = 1;
origin = "{0, 14}";
type = Anchor;
}
);
layerId = "10767FFE-EA3C-45A9-8421-483827593C6E";
paths = (
{
closed = 1;
nodes = (
"185 1456 LINE",
"185 0 LINE",
"308 0 LINE",
"308 639 LINE",
"297 1281 LINE",
"837 0 LINE",
"932 0 LINE",
"1475 1286 LINE",
"1464 635 LINE",
"1464 0 LINE",
"1587 0 LINE",
"1587 1456 LINE",
"1423 1456 LINE",
"885 172 LINE",
"347 1456 LINE"
);
}
);
width = 1772;
}
);
note = M;
rightKerningGroup = H;
unicode = 004D;
},
{
glyphname = N;
lastChange = "2017-05-28 09:40:05 +0000";
layers = (
{
hints = (
{
horizontal = 1;
origin = "{0, 0}";
type = Anchor;
},
{
horizontal = 1;
origin = "{0, 1}";
type = Anchor;
},
{
horizontal = 1;
origin = "{0, 2}";
type = Anchor;
},
{
horizontal = 1;
origin = "{0, 3}";
type = Anchor;
},
{
horizontal = 1;
origin = "{0, 4}";
type = Anchor;
},
{
horizontal = 1;
origin = "{0, 5}";
type = Anchor;
},
{
horizontal = 1;
origin = "{0, 6}";
type = Anchor;
},
{
horizontal = 1;
origin = "{0, 7}";
type = Anchor;
},
{
horizontal = 1;
origin = "{0, 8}";
type = Anchor;
},
{
horizontal = 1;
origin = "{0, 9}";
type = Anchor;
}
);
layerId = "10767FFE-EA3C-45A9-8421-483827593C6E";
paths = (
{
closed = 1;
nodes = (
"1146 210 LINE",
"309 1456 LINE",
"185 1456 LINE",
"185 0 LINE",
"309 0 LINE",
"309 1246 LINE",
"1145 0 LINE",
"1269 0 LINE",
"1269 1456 LINE",
"1146 1456 LINE"
);
}
);
width = 1455;
}
);
note = N;
rightKerningGroup = H;
unicode = 004E;
},
{
glyphname = O;
lastChange = "2017-05-28 09:40:08 +0000";
layers = (
{
hints = (
{
horizontal = 1;
origin = "{0, 0}";
type = Anchor;
},
{
horizontal = 1;
origin = "{0, 1}";
type = Anchor;
},
{
horizontal = 1;
origin = "{0, 2}";
type = Anchor;
},
{
horizontal = 1;
origin = "{0, 3}";
type = Anchor;
},
{
horizontal = 1;
origin = "{0, 4}";
type = Anchor;
},
{
horizontal = 1;
origin = "{0, 5}";
type = Anchor;
},
{
horizontal = 1;
origin = "{0, 6}";
type = Anchor;
},
{
horizontal = 1;
origin = "{0, 7}";
type = Anchor;
},
{
horizontal = 1;
origin = "{0, 8}";
type = Anchor;
},
{
horizontal = 1;
origin = "{0, 9}";
type = Anchor;
},
{
horizontal = 1;
origin = "{0, 10}";
type = Anchor;
},
{
horizontal = 1;
origin = "{0, 11}";
type = Anchor;
},
{
horizontal = 1;
origin = "{0, 12}";
type = Anchor;
},
{
horizontal = 1;
origin = "{0, 13}";
type = Anchor;
},
{
horizontal = 1;
origin = "{1, 0}";
type = Anchor;
},
{
horizontal = 1;
origin = "{1, 1}";
type = Anchor;
},
{
horizontal = 1;
origin = "{1, 2}";
type = Anchor;
},
{
horizontal = 1;
origin = "{1, 3}";
type = Anchor;
},
{
horizontal = 1;
origin = "{1, 4}";
type = Anchor;
},
{
horizontal = 1;
origin = "{1, 5}";
type = Anchor;
},
{
horizontal = 1;
origin = "{1, 6}";
type = Anchor;
},
{
horizontal = 1;
origin = "{1, 7}";
type = Anchor;
},
{
horizontal = 1;
origin = "{1, 8}";
type = Anchor;
},
{
horizontal = 1;
origin = "{1, 9}";
type = Anchor;
},
{
horizontal = 1;
origin = "{1, 10}";
type = Anchor;
},
{
horizontal = 1;
origin = "{1, 11}";
type = Anchor;
},
{
horizontal = 1;
origin = "{1, 12}";
type = Anchor;
},
{
horizontal = 1;
origin = "{1, 13}";
type = Anchor;
}
);
layerId = "10767FFE-EA3C-45A9-8421-483827593C6E";
paths = (
{
closed = 1;
nodes = (
"1260 1213 OFFCURVE",
"1037 1476 OFFCURVE",
"692 1476 CURVE SMOOTH",
"353 1476 OFFCURVE",
"126 1213 OFFCURVE",
"126 806 CURVE SMOOTH",
"126 635 LINE SMOOTH",
"131 236 OFFCURVE",
"359 -20 OFFCURVE",
"694 -20 CURVE SMOOTH",
"1039 -20 OFFCURVE",
"1260 242 OFFCURVE",
"1260 650 CURVE SMOOTH",
"1260 806 LINE SMOOTH"
);
},
{
closed = 1;
nodes = (
"1138 303 OFFCURVE",
"977 88 OFFCURVE",
"694 88 CURVE SMOOTH",
"419 88 OFFCURVE",
"249 303 OFFCURVE",
"249 650 CURVE SMOOTH",
"249 808 LINE SMOOTH",
"249 1152 OFFCURVE",
"417 1368 OFFCURVE",
"692 1368 CURVE SMOOTH",
"975 1368 OFFCURVE",
"1138 1152 OFFCURVE",
"1138 808 CURVE SMOOTH",
"1138 650 LINE SMOOTH"
);
}
);
width = 1387;
}
);
leftKerningGroup = C;
note = O;
rightKerningGroup = D;
unicode = 004F;
},
{
glyphname = P;
lastChange = "2017-05-28 09:40:11 +0000";
layers = (
{
hints = (
{
horizontal = 1;
origin = "{0, 0}";
type = Anchor;
},
{
horizontal = 1;
origin = "{0, 1}";
type = Anchor;
},
{
horizontal = 1;
origin = "{0, 2}";
type = Anchor;
},
{
horizontal = 1;
origin = "{0, 3}";
type = Anchor;
},
{
horizontal = 1;
origin = "{0, 4}";
type = Anchor;
},
{
horizontal = 1;
origin = "{0, 5}";
type = Anchor;
},
{
horizontal = 1;
origin = "{0, 6}";
type = Anchor;
},
{
horizontal = 1;
origin = "{0, 7}";
type = Anchor;
},
{
horizontal = 1;
origin = "{0, 8}";
type = Anchor;
},
{
horizontal = 1;
origin = "{0, 9}";
type = Anchor;
},
{
horizontal = 1;
origin = "{0, 10}";
type = Anchor;
},
{
horizontal = 1;
origin = "{1, 0}";
type = Anchor;
},
{
horizontal = 1;
origin = "{1, 1}";
type = Anchor;
},
{
horizontal = 1;
origin = "{1, 2}";
type = Anchor;
},
{
horizontal = 1;
origin = "{1, 3}";
type = Anchor;
},
{
horizontal = 1;
origin = "{1, 4}";
type = Anchor;
},
{
horizontal = 1;
origin = "{1, 5}";
type = Anchor;
},
{
horizontal = 1;
origin = "{1, 6}";
type = Anchor;
},
{
horizontal = 1;
origin = "{1, 7}";
type = Anchor;
},
{
horizontal = 1;
origin = "{1, 8}";
type = Anchor;
}
);
layerId = "10767FFE-EA3C-45A9-8421-483827593C6E";
paths = (
{
closed = 1;
nodes = (
"1001 593 OFFCURVE",
"1171 753 OFFCURVE",
"1171 1022 CURVE SMOOTH",
"1171 1279 OFFCURVE",
"1001 1456 OFFCURVE",
"681 1456 CURVE SMOOTH",
"185 1456 LINE",
"185 0 LINE",
"308 0 LINE",
"308 593 LINE",
"681 593 LINE SMOOTH"
);
},
{
closed = 1;
nodes = (
"940 1351 OFFCURVE",
"1048 1199 OFFCURVE",
"1048 1020 CURVE SMOOTH",
"1048 839 OFFCURVE",
"940 698 OFFCURVE",
"681 698 CURVE SMOOTH",
"308 698 LINE",
"308 1351 LINE",
"681 1351 LINE SMOOTH"
);
}
);
width = 1261;
}
);
note = P;
rightKerningGroup = P;
unicode = 0050;
},
{
glyphname = Q;
lastChange = "2017-05-28 09:40:15 +0000";
layers = (
{
hints = (
{
horizontal = 1;
origin = "{0, 0}";
type = Anchor;
},
{
horizontal = 1;
origin = "{0, 1}";
type = Anchor;
},
{
horizontal = 1;
origin = "{0, 2}";
type = Anchor;
},
{
horizontal = 1;
origin = "{0, 3}";
type = Anchor;
},
{
horizontal = 1;
origin = "{0, 4}";
type = Anchor;
},
{
horizontal = 1;
origin = "{0, 5}";
type = Anchor;
},
{
horizontal = 1;
origin = "{0, 6}";
type = Anchor;
},
{
horizontal = 1;
origin = "{0, 7}";
type = Anchor;
},
{
horizontal = 1;
origin = "{0, 8}";
type = Anchor;
},
{
horizontal = 1;
origin = "{0, 9}";
type = Anchor;
},
{
horizontal = 1;
origin = "{0, 10}";
type = Anchor;
},
{
horizontal = 1;
origin = "{0, 11}";
type = Anchor;
},
{
horizontal = 1;
origin = "{0, 12}";
type = Anchor;
},
{
horizontal = 1;
origin = "{0, 13}";
type = Anchor;
},
{
horizontal = 1;
origin = "{0, 14}";
type = Anchor;
},
{
horizontal = 1;
origin = "{0, 15}";
type = Anchor;
},
{
horizontal = 1;
origin = "{0, 16}";
type = Anchor;
},
{
horizontal = 1;
origin = "{0, 17}";
type = Anchor;
},
{
horizontal = 1;
origin = "{0, 18}";
type = Anchor;
},
{
horizontal = 1;
origin = "{0, 19}";
type = Anchor;
},
{
horizontal = 1;
origin = "{1, 0}";
type = Anchor;
},
{
horizontal = 1;
origin = "{1, 1}";
type = Anchor;
},
{
horizontal = 1;
origin = "{1, 2}";
type = Anchor;
},
{
horizontal = 1;
origin = "{1, 3}";
type = Anchor;
},
{
horizontal = 1;
origin = "{1, 4}";
type = Anchor;
},
{
horizontal = 1;
origin = "{1, 5}";
type = Anchor;
},
{
horizontal = 1;
origin = "{1, 6}";
type = Anchor;
},
{
horizontal = 1;
origin = "{1, 7}";
type = Anchor;
},
{
horizontal = 1;
origin = "{1, 8}";
type = Anchor;
},
{
horizontal = 1;
origin = "{1, 9}";
type = Anchor;
},
{
horizontal = 1;
origin = "{1, 10}";
type = Anchor;
},
{
horizontal = 1;
origin = "{1, 11}";
type = Anchor;
},
{
horizontal = 1;
origin = "{1, 12}";
type = Anchor;
},
{
horizontal = 1;
origin = "{1, 13}";
type = Anchor;
}
);
layerId = "10767FFE-EA3C-45A9-8421-483827593C6E";
paths = (
{
closed = 1;
nodes = (
"1151 158 OFFCURVE",
"1256 370 OFFCURVE",
"1256 650 CURVE SMOOTH",
"1256 806 LINE SMOOTH",
"1256 1213 OFFCURVE",
"1033 1476 OFFCURVE",
"688 1476 CURVE SMOOTH",
"348 1476 OFFCURVE",
"121 1213 OFFCURVE",
"121 806 CURVE SMOOTH",
"121 650 LINE SMOOTH",
"121 242 OFFCURVE",
"350 -20 OFFCURVE",
"690 -20 CURVE SMOOTH",
"749 -20 OFFCURVE",
"805 -12 OFFCURVE",
"858 3 CURVE",
"1154 -255 LINE",
"1239 -178 LINE",
"974 53 LINE"
);
},
{
closed = 1;
nodes = (
"1133 303 OFFCURVE",
"973 88 OFFCURVE",
"690 88 CURVE SMOOTH",
"415 88 OFFCURVE",
"245 303 OFFCURVE",
"245 650 CURVE SMOOTH",
"245 808 LINE SMOOTH",
"245 1152 OFFCURVE",
"413 1368 OFFCURVE",
"688 1368 CURVE SMOOTH",
"971 1368 OFFCURVE",
"1133 1152 OFFCURVE",
"1133 808 CURVE SMOOTH",
"1133 650 LINE SMOOTH"
);
}
);
width = 1387;
}
);
leftKerningGroup = C;
note = Q;
unicode = 0051;
},
{
glyphname = R;
lastChange = "2017-05-28 09:40:19 +0000";
layers = (
{
hints = (
{
horizontal = 1;
origin = "{0, 0}";
type = Anchor;
},
{
horizontal = 1;
origin = "{0, 1}";
type = Anchor;
},
{
horizontal = 1;
origin = "{0, 2}";
type = Anchor;
},
{
horizontal = 1;
origin = "{0, 3}";
type = Anchor;
},
{
horizontal = 1;
origin = "{0, 4}";
type = Anchor;
},
{
horizontal = 1;
origin = "{0, 5}";
type = Anchor;
},
{
horizontal = 1;
origin = "{0, 6}";
type = Anchor;
},
{
horizontal = 1;
origin = "{0, 7}";
type = Anchor;
},
{
horizontal = 1;
origin = "{0, 8}";
type = Anchor;
},
{
horizontal = 1;
origin = "{0, 9}";
type = Anchor;
},
{
horizontal = 1;
origin = "{0, 10}";
type = Anchor;
},
{
horizontal = 1;
origin = "{0, 11}";
type = Anchor;
},
{
horizontal = 1;
origin = "{0, 12}";
type = Anchor;
},
{
horizontal = 1;
origin = "{0, 13}";
type = Anchor;
},
{
horizontal = 1;
origin = "{0, 14}";
type = Anchor;
},
{
horizontal = 1;
origin = "{1, 0}";
type = Anchor;
},
{
horizontal = 1;
origin = "{1, 1}";
type = Anchor;
},
{
horizontal = 1;
origin = "{1, 2}";
type = Anchor;
},
{
horizontal = 1;
origin = "{1, 3}";
type = Anchor;
},
{
horizontal = 1;
origin = "{1, 4}";
type = Anchor;
},
{
horizontal = 1;
origin = "{1, 5}";
type = Anchor;
},
{
horizontal = 1;
origin = "{1, 6}";
type = Anchor;
},
{
horizontal = 1;
origin = "{1, 7}";
type = Anchor;
},
{
horizontal = 1;
origin = "{1, 8}";
type = Anchor;
}
);
layerId = "10767FFE-EA3C-45A9-8421-483827593C6E";
paths = (
{
closed = 1;
nodes = (
"1212 13 LINE",
"848 632 LINE",
"1027 684 OFFCURVE",
"1149 834 OFFCURVE",
"1149 1027 CURVE SMOOTH",
"1149 1306 OFFCURVE",
"958 1456 OFFCURVE",
"655 1456 CURVE SMOOTH",
"182 1456 LINE",
"182 0 LINE",
"305 0 LINE",
"305 607 LINE",
"729 607 LINE",
"1080 0 LINE",
"1212 0 LINE"
);
},
{
closed = 1;
nodes = (
"895 1351 OFFCURVE",
"1026 1227 OFFCURVE",
"1026 1027 CURVE SMOOTH",
"1026 860 OFFCURVE",
"911 711 OFFCURVE",
"682 711 CURVE SMOOTH",
"305 711 LINE",
"305 1351 LINE",
"655 1351 LINE SMOOTH"
);
}
);
width = 1301;
}
);
note = R;
unicode = 0052;
},
{
glyphname = S;
lastChange = "2017-05-28 09:40:23 +0000";
layers = (
{
hints = (
{
horizontal = 1;
origin = "{0, 0}";
type = Anchor;
},
{
horizontal = 1;
origin = "{0, 1}";
type = Anchor;
},
{
horizontal = 1;
origin = "{0, 2}";
type = Anchor;
},
{
horizontal = 1;
origin = "{0, 3}";
type = Anchor;
},
{
horizontal = 1;
origin = "{0, 4}";
type = Anchor;
},
{
horizontal = 1;
origin = "{0, 5}";
type = Anchor;
},
{
horizontal = 1;
origin = "{0, 6}";
type = Anchor;
},
{
horizontal = 1;
origin = "{0, 7}";
type = Anchor;
},
{
horizontal = 1;
origin = "{0, 8}";
type = Anchor;
},
{
horizontal = 1;
origin = "{0, 9}";
type = Anchor;
},
{
horizontal = 1;
origin = "{0, 10}";
type = Anchor;
},
{
horizontal = 1;
origin = "{0, 11}";
type = Anchor;
},
{
horizontal = 1;
origin = "{0, 12}";
type = Anchor;
},
{
horizontal = 1;
origin = "{0, 13}";
type = Anchor;
},
{
horizontal = 1;
origin = "{0, 14}";
type = Anchor;
},
{
horizontal = 1;
origin = "{0, 15}";
type = Anchor;
},
{
horizontal = 1;
origin = "{0, 16}";
type = Anchor;
},
{
horizontal = 1;
origin = "{0, 17}";
type = Anchor;
},
{
horizontal = 1;
origin = "{0, 18}";
type = Anchor;
},
{
horizontal = 1;
origin = "{0, 19}";
type = Anchor;
},
{
horizontal = 1;
origin = "{0, 20}";
type = Anchor;
},
{
horizontal = 1;
origin = "{0, 21}";
type = Anchor;
},
{
horizontal = 1;
origin = "{0, 22}";
type = Anchor;
},
{
horizontal = 1;
origin = "{0, 23}";
type = Anchor;
},
{
horizontal = 1;
origin = "{0, 24}";
type = Anchor;
},
{
horizontal = 1;
origin = "{0, 25}";
type = Anchor;
},
{
horizontal = 1;
origin = "{0, 26}";
type = Anchor;
},
{
horizontal = 1;
origin = "{0, 27}";
type = Anchor;
},
{
horizontal = 1;
origin = "{0, 28}";
type = Anchor;
},
{
horizontal = 1;
origin = "{0, 29}";
type = Anchor;
},
{
horizontal = 1;
origin = "{0, 30}";
type = Anchor;
},
{
horizontal = 1;
origin = "{0, 31}";
type = Anchor;
},
{
horizontal = 1;
origin = "{0, 32}";
type = Anchor;
},
{
horizontal = 1;
origin = "{0, 33}";
type = Anchor;
},
{
horizontal = 1;
origin = "{0, 34}";
type = Anchor;
},
{
horizontal = 1;
origin = "{0, 35}";
type = Anchor;
},
{
horizontal = 1;
origin = "{0, 36}";
type = Anchor;
},
{
horizontal = 1;
origin = "{0, 37}";
type = Anchor;
},
{
horizontal = 1;
origin = "{0, 38}";
type = Anchor;
},
{
horizontal = 1;
origin = "{0, 39}";
type = Anchor;
},
{
horizontal = 1;
origin = "{0, 40}";
type = Anchor;
},
{
horizontal = 1;
origin = "{0, 41}";
type = Anchor;
},
{
horizontal = 1;
origin = "{0, 42}";
type = Anchor;
},
{
horizontal = 1;
origin = "{0, 43}";
type = Anchor;
},
{
horizontal = 1;
origin = "{0, 44}";
type = Anchor;
},
{
horizontal = 1;
origin = "{0, 45}";
type = Anchor;
},
{
horizontal = 1;
origin = "{0, 46}";
type = Anchor;
}
);
layerId = "10767FFE-EA3C-45A9-8421-483827593C6E";
paths = (
{
closed = 1;
nodes = (
"1009 194 OFFCURVE",
"861 84 OFFCURVE",
"632 84 CURVE SMOOTH",
"565 84 OFFCURVE",
"500 95 OFFCURVE",
"436 116 CURVE SMOOTH",
"307 159 OFFCURVE",
"212 252 OFFCURVE",
"212 416 CURVE",
"88 416 LINE",
"88 313 OFFCURVE",
"115 230 OFFCURVE",
"170 166 CURVE SMOOTH",
"279 38 OFFCURVE",
"459 -20 OFFCURVE",
"632 -20 CURVE SMOOTH",
"923 -20 OFFCURVE",
"1133 123 OFFCURVE",
"1133 360 CURVE SMOOTH",
"1133 595 OFFCURVE",
"960 708 OFFCURVE",
"653 792 CURVE SMOOTH",
"499 834 OFFCURVE",
"395 879 OFFCURVE",
"341 928 CURVE SMOOTH",
"286 976 OFFCURVE",
"259 1034 OFFCURVE",
"259 1103 CURVE SMOOTH",
"259 1248 OFFCURVE",
"383 1371 OFFCURVE",
"624 1371 CURVE SMOOTH",
"861 1371 OFFCURVE",
"1000 1232 OFFCURVE",
"1000 1041 CURVE",
"1123 1041 LINE",
"1123 1284 OFFCURVE",
"931 1476 OFFCURVE",
"624 1476 CURVE SMOOTH",
"337 1476 OFFCURVE",
"135 1324 OFFCURVE",
"135 1100 CURVE SMOOTH",
"135 871 OFFCURVE",
"315 768 OFFCURVE",
"611 685 CURVE SMOOTH",
"907 602 OFFCURVE",
"1009 522 OFFCURVE",
"1009 358 CURVE SMOOTH"
);
}
);
width = 1213;
}
);
leftKerningGroup = S;
note = S;
unicode = 0053;
},
{
glyphname = T;
lastChange = "2017-05-28 09:40:27 +0000";
layers = (
{
hints = (
{
horizontal = 1;
origin = "{0, 0}";
type = Anchor;
},
{
horizontal = 1;
origin = "{0, 1}";
type = Anchor;
},
{
horizontal = 1;
origin = "{0, 2}";
type = Anchor;
},
{
horizontal = 1;
origin = "{0, 3}";
type = Anchor;
},
{
horizontal = 1;
origin = "{0, 4}";
type = Anchor;
},
{
horizontal = 1;
origin = "{0, 5}";
type = Anchor;
},
{
horizontal = 1;
origin = "{0, 6}";
type = Anchor;
},
{
horizontal = 1;
origin = "{0, 7}";
type = Anchor;
}
);
layerId = "10767FFE-EA3C-45A9-8421-483827593C6E";
paths = (
{
closed = 1;
nodes = (
"551 0 LINE",
"673 0 LINE",
"673 1351 LINE",
"1172 1351 LINE",
"1172 1456 LINE",
"52 1456 LINE",
"52 1351 LINE",
"551 1351 LINE"
);
}
);
width = 1223;
}
);
leftKerningGroup = T;
note = T;
rightKerningGroup = T;
unicode = 0054;
},
{
glyphname = U;
lastChange = "2017-05-28 09:40:30 +0000";
layers = (
{
hints = (
{
horizontal = 1;
origin = "{0, 0}";
type = Anchor;
},
{
horizontal = 1;
origin = "{0, 1}";
type = Anchor;
},
{
horizontal = 1;
origin = "{0, 2}";
type = Anchor;
},
{
horizontal = 1;
origin = "{0, 3}";
type = Anchor;
},
{
horizontal = 1;
origin = "{0, 4}";
type = Anchor;
},
{
horizontal = 1;
origin = "{0, 5}";
type = Anchor;
},
{
horizontal = 1;
origin = "{0, 6}";
type = Anchor;
},
{
horizontal = 1;
origin = "{0, 7}";
type = Anchor;
},
{
horizontal = 1;
origin = "{0, 8}";
type = Anchor;
},
{
horizontal = 1;
origin = "{0, 9}";
type = Anchor;
},
{
horizontal = 1;
origin = "{0, 10}";
type = Anchor;
},
{
horizontal = 1;
origin = "{0, 11}";
type = Anchor;
},
{
horizontal = 1;
origin = "{0, 12}";
type = Anchor;
},
{
horizontal = 1;
origin = "{0, 13}";
type = Anchor;
},
{
horizontal = 1;
origin = "{0, 14}";
type = Anchor;
},
{
horizontal = 1;
origin = "{0, 15}";
type = Anchor;
},
{
horizontal = 1;
origin = "{0, 16}";
type = Anchor;
},
{
horizontal = 1;
origin = "{0, 17}";
type = Anchor;
}
);
layerId = "10767FFE-EA3C-45A9-8421-483827593C6E";
paths = (
{
closed = 1;
nodes = (
"1064 215 OFFCURVE",
"901 84 OFFCURVE",
"674 84 CURVE SMOOTH",
"449 84 OFFCURVE",
"285 215 OFFCURVE",
"285 470 CURVE SMOOTH",
"285 1456 LINE",
"163 1456 LINE",
"163 470 LINE SMOOTH",
"163 142 OFFCURVE",
"383 -20 OFFCURVE",
"674 -20 CURVE SMOOTH",
"958 -20 OFFCURVE",
"1187 142 OFFCURVE",
"1187 470 CURVE SMOOTH",
"1187 1456 LINE",
"1064 1456 LINE",
"1064 470 LINE SMOOTH"
);
}
);
width = 1347;
}
);
leftKerningGroup = U;
note = U;
rightKerningGroup = J;
unicode = 0055;
},
{
glyphname = V;
lastChange = "2017-05-28 09:40:33 +0000";
layers = (
{
hints = (
{
horizontal = 1;
origin = "{0, 0}";
type = Anchor;
},
{
horizontal = 1;
origin = "{0, 1}";
type = Anchor;
},
{
horizontal = 1;
origin = "{0, 2}";
type = Anchor;
},
{
horizontal = 1;
origin = "{0, 3}";
type = Anchor;
},
{
horizontal = 1;
origin = "{0, 4}";
type = Anchor;
},
{
horizontal = 1;
origin = "{0, 5}";
type = Anchor;
},
{
horizontal = 1;
origin = "{0, 6}";
type = Anchor;
},
{
horizontal = 1;
origin = "{0, 7}";
type = Anchor;
},
{
horizontal = 1;
origin = "{0, 8}";
type = Anchor;
}
);
layerId = "10767FFE-EA3C-45A9-8421-483827593C6E";
paths = (
{
closed = 1;
nodes = (
"640 181 LINE",
"632 150 LINE",
"623 181 LINE",
"166 1456 LINE",
"32 1456 LINE",
"573 0 LINE",
"691 0 LINE",
"1233 1456 LINE",
"1099 1456 LINE"
);
}
);
width = 1264;
}
);
leftKerningGroup = V;
note = V;
rightKerningGroup = V;
unicode = 0056;
},
{
glyphname = W;
lastChange = "2017-05-28 09:40:36 +0000";
layers = (
{
hints = (
{
horizontal = 1;
origin = "{0, 0}";
type = Anchor;
},
{
horizontal = 1;
origin = "{0, 1}";
type = Anchor;
},
{
horizontal = 1;
origin = "{0, 2}";
type = Anchor;
},
{
horizontal = 1;
origin = "{0, 3}";
type = Anchor;
},
{
horizontal = 1;
origin = "{0, 4}";
type = Anchor;
},
{
horizontal = 1;
origin = "{0, 5}";
type = Anchor;
},
{
horizontal = 1;
origin = "{0, 6}";
type = Anchor;
},
{
horizontal = 1;
origin = "{0, 7}";
type = Anchor;
},
{
horizontal = 1;
origin = "{0, 8}";
type = Anchor;
},
{
horizontal = 1;
origin = "{0, 9}";
type = Anchor;
},
{
horizontal = 1;
origin = "{0, 10}";
type = Anchor;
},
{
horizontal = 1;
origin = "{0, 11}";
type = Anchor;
},
{
horizontal = 1;
origin = "{0, 12}";
type = Anchor;
},
{
horizontal = 1;
origin = "{0, 13}";
type = Anchor;
},
{
horizontal = 1;
origin = "{0, 14}";
type = Anchor;
},
{
horizontal = 1;
origin = "{0, 15}";
type = Anchor;
},
{
horizontal = 1;
origin = "{0, 16}";
type = Anchor;
},
{
horizontal = 1;
origin = "{0, 17}";
type = Anchor;
},
{
horizontal = 1;
origin = "{0, 18}";
type = Anchor;
}
);
layerId = "10767FFE-EA3C-45A9-8421-483827593C6E";
paths = (
{
closed = 1;
nodes = (
"1394 394 LINE",
"1347 166 LINE",
"1292 384 LINE",
"981 1456 LINE",
"870 1456 LINE",
"554 384 LINE",
"499 167 LINE",
"453 393 LINE",
"187 1456 LINE",
"61 1456 LINE",
"434 0 LINE",
"552 0 LINE",
"889 1139 LINE",
"926 1284 LINE",
"962 1139 LINE",
"1293 0 LINE",
"1411 0 LINE",
"1783 1456 LINE",
"1657 1456 LINE"
);
}
);
width = 1836;
}
);
leftKerningGroup = W;
note = W;
rightKerningGroup = W;
unicode = 0057;
},
{
glyphname = X;
lastChange = "2017-05-28 09:40:38 +0000";
layers = (
{
hints = (
{
horizontal = 1;
origin = "{0, 0}";
type = Anchor;
},
{
horizontal = 1;
origin = "{0, 1}";
type = Anchor;
},
{
horizontal = 1;
origin = "{0, 2}";
type = Anchor;
},
{
horizontal = 1;
origin = "{0, 3}";
type = Anchor;
},
{
horizontal = 1;
origin = "{0, 4}";
type = Anchor;
},
{
horizontal = 1;
origin = "{0, 5}";
type = Anchor;
},
{
horizontal = 1;
origin = "{0, 6}";
type = Anchor;
},
{
horizontal = 1;
origin = "{0, 7}";
type = Anchor;
},
{
horizontal = 1;
origin = "{0, 8}";
type = Anchor;
},
{
horizontal = 1;
origin = "{0, 9}";
type = Anchor;
},
{
horizontal = 1;
origin = "{0, 10}";
type = Anchor;
},
{
horizontal = 1;
origin = "{0, 11}";
type = Anchor;
}
);
layerId = "10767FFE-EA3C-45A9-8421-483827593C6E";
paths = (
{
closed = 1;
nodes = (
"553 739 LINE",
"56 0 LINE",
"202 0 LINE",
"628 636 LINE",
"1052 0 LINE",
"1199 0 LINE",
"702 739 LINE",
"1184 1456 LINE",
"1037 1456 LINE",
"628 840 LINE",
"218 1456 LINE",
"71 1456 LINE"
);
}
);
width = 1254;
}
);
leftKerningGroup = X;
note = X;
rightKerningGroup = X;
unicode = 0058;
},
{
glyphname = Y;
lastChange = "2017-05-28 09:40:41 +0000";
layers = (
{
hints = (
{
horizontal = 1;
origin = "{0, 0}";
type = Anchor;
},
{
horizontal = 1;
origin = "{0, 1}";
type = Anchor;
},
{
horizontal = 1;
origin = "{0, 2}";
type = Anchor;
},
{
horizontal = 1;
origin = "{0, 3}";
type = Anchor;
},
{
horizontal = 1;
origin = "{0, 4}";
type = Anchor;
},
{
horizontal = 1;
origin = "{0, 5}";
type = Anchor;
},
{
horizontal = 1;
origin = "{0, 6}";
type = Anchor;
},
{
horizontal = 1;
origin = "{0, 7}";
type = Anchor;
},
{
horizontal = 1;
origin = "{0, 8}";
type = Anchor;
}
);
layerId = "10767FFE-EA3C-45A9-8421-483827593C6E";
paths = (
{
closed = 1;
nodes = (
"550 549 LINE",
"550 0 LINE",
"673 0 LINE",
"673 549 LINE",
"1199 1456 LINE",
"1056 1456 LINE",
"611 662 LINE",
"170 1456 LINE",
"24 1456 LINE"
);
}
);
width = 1227;
}
);
leftKerningGroup = Y;
note = Y;
rightKerningGroup = Y;
unicode = 0059;
},
{
glyphname = Z;
lastChange = "2017-05-28 09:40:44 +0000";
layers = (
{
hints = (
{
horizontal = 1;
origin = "{0, 0}";
type = Anchor;
},
{
horizontal = 1;
origin = "{0, 1}";
type = Anchor;
},
{
horizontal = 1;
origin = "{0, 2}";
type = Anchor;
},
{
horizontal = 1;
origin = "{0, 3}";
type = Anchor;
},
{
horizontal = 1;
origin = "{0, 4}";
type = Anchor;
},
{
horizontal = 1;
origin = "{0, 5}";
type = Anchor;
},
{
horizontal = 1;
origin = "{0, 6}";
type = Anchor;
},
{
horizontal = 1;
origin = "{0, 7}";
type = Anchor;
},
{
horizontal = 1;
origin = "{0, 8}";
type = Anchor;
},
{
horizontal = 1;
origin = "{0, 9}";
type = Anchor;
}
);
layerId = "10767FFE-EA3C-45A9-8421-483827593C6E";
paths = (
{
closed = 1;
nodes = (
"90 93 LINE",
"90 0 LINE",
"1138 0 LINE",
"1138 104 LINE",
"239 104 LINE",
"1106 1368 LINE",
"1106 1456 LINE",
"117 1456 LINE",
"117 1352 LINE",
"956 1352 LINE"
);
}
);
width = 1225;
}
);
leftKerningGroup = Z;
note = Z;
rightKerningGroup = Z;
unicode = 005A;
},
{
glyphname = bracketleft;
lastChange = "2017-04-17 14:53:26 +0000";
layers = (
{
layerId = "10767FFE-EA3C-45A9-8421-483827593C6E";
paths = (
{
closed = 1;
nodes = (
"164 -312 LINE",
"494 -312 LINE",
"494 -210 LINE",
"284 -210 LINE",
"284 1562 LINE",
"494 1562 LINE",
"494 1664 LINE",
"164 1664 LINE"
);
}
);
width = 491;
}
);
note = bracketleft;
unicode = 005B;
},
{
glyphname = backslash;
lastChange = "2017-04-17 14:53:26 +0000";
layers = (
{
layerId = "10767FFE-EA3C-45A9-8421-483827593C6E";
paths = (
{
closed = 1;
nodes = (
"166 1456 LINE",
"49 1456 LINE",
"657 -125 LINE",
"774 -125 LINE"
);
}
);
width = 807;
}
);
note = backslash;
unicode = 005C;
},
{
glyphname = bracketright;
lastChange = "2017-04-17 14:53:26 +0000";
layers = (
{
layerId = "10767FFE-EA3C-45A9-8421-483827593C6E";
paths = (
{
closed = 1;
nodes = (
"211 -210 LINE",
"1 -210 LINE",
"1 -312 LINE",
"331 -312 LINE",
"331 1664 LINE",
"1 1664 LINE",
"1 1562 LINE",
"211 1562 LINE"
);
}
);
width = 491;
}
);
note = bracketright;
unicode = 005D;
},
{
glyphname = asciicircum;
lastChange = "2017-04-17 14:53:26 +0000";
layers = (
{
layerId = "10767FFE-EA3C-45A9-8421-483827593C6E";
paths = (
{
closed = 1;
nodes = (
"421 1298 LINE",
"649 729 LINE",
"765 729 LINE",
"466 1456 LINE",
"377 1456 LINE",
"78 729 LINE",
"193 729 LINE"
);
}
);
width = 853;
}
);
note = asciicircum;
unicode = 005E;
},
{
glyphname = underscore;
lastChange = "2017-04-17 14:53:26 +0000";
layers = (
{
layerId = "10767FFE-EA3C-45A9-8421-483827593C6E";
paths = (
{
closed = 1;
nodes = (
"2 -102 LINE",
"883 -102 LINE",
"883 0 LINE",
"2 0 LINE"
);
}
);
width = 885;
}
);
note = underscore;
unicode = 005F;
},
{
glyphname = grave;
lastChange = "2017-04-17 14:53:26 +0000";
layers = (
{
layerId = "10767FFE-EA3C-45A9-8421-483827593C6E";
paths = (
{
closed = 1;
nodes = (
"330 1257 LINE",
"439 1257 LINE",
"248 1536 LINE",
"103 1536 LINE"
);
}
);
width = 585;
}
);
note = grave;
unicode = 0060;
},
{
glyphname = a;
lastChange = "2017-05-28 09:43:33 +0000";
layers = (
{
hints = (
{
horizontal = 1;
origin = "{0, 0}";
type = Anchor;
},
{
horizontal = 1;
origin = "{0, 1}";
type = Anchor;
},
{
horizontal = 1;
origin = "{0, 2}";
type = Anchor;
},
{
horizontal = 1;
origin = "{0, 3}";
type = Anchor;
},
{
horizontal = 1;
origin = "{0, 4}";
type = Anchor;
},
{
horizontal = 1;
origin = "{0, 5}";
type = Anchor;
},
{
horizontal = 1;
origin = "{0, 6}";
type = Anchor;
},
{
horizontal = 1;
origin = "{0, 7}";
type = Anchor;
},
{
horizontal = 1;
origin = "{0, 8}";
type = Anchor;
},
{
horizontal = 1;
origin = "{0, 9}";
type = Anchor;
},
{
horizontal = 1;
origin = "{0, 10}";
type = Anchor;
},
{
horizontal = 1;
origin = "{0, 11}";
type = Anchor;
},
{
horizontal = 1;
origin = "{0, 12}";
type = Anchor;
},
{
horizontal = 1;
origin = "{0, 13}";
type = Anchor;
},
{
horizontal = 1;
origin = "{0, 14}";
type = Anchor;
},
{
horizontal = 1;
origin = "{0, 15}";
type = Anchor;
},
{
horizontal = 1;
origin = "{0, 16}";
type = Anchor;
},
{
horizontal = 1;
origin = "{0, 17}";
type = Anchor;
},
{
horizontal = 1;
origin = "{0, 18}";
type = Anchor;
},
{
horizontal = 1;
origin = "{0, 19}";
type = Anchor;
},
{
horizontal = 1;
origin = "{0, 20}";
type = Anchor;
},
{
horizontal = 1;
origin = "{0, 21}";
type = Anchor;
},
{
horizontal = 1;
origin = "{0, 22}";
type = Anchor;
},
{
horizontal = 1;
origin = "{0, 23}";
type = Anchor;
},
{
horizontal = 1;
origin = "{0, 24}";
type = Anchor;
},
{
horizontal = 1;
origin = "{0, 25}";
type = Anchor;
},
{
horizontal = 1;
origin = "{0, 26}";
type = Anchor;
},
{
horizontal = 1;
origin = "{0, 27}";
type = Anchor;
},
{
horizontal = 1;
origin = "{0, 28}";
type = Anchor;
},
{
horizontal = 1;
origin = "{0, 29}";
type = Anchor;
},
{
horizontal = 1;
origin = "{0, 30}";
type = Anchor;
},
{
horizontal = 1;
origin = "{0, 31}";
type = Anchor;
},
{
horizontal = 1;
origin = "{0, 32}";
type = Anchor;
},
{
horizontal = 1;
origin = "{1, 0}";
type = Anchor;
},
{
horizontal = 1;
origin = "{1, 1}";
type = Anchor;
},
{
horizontal = 1;
origin = "{1, 2}";
type = Anchor;
},
{
horizontal = 1;
origin = "{1, 3}";
type = Anchor;
},
{
horizontal = 1;
origin = "{1, 4}";
type = Anchor;
},
{
horizontal = 1;
origin = "{1, 5}";
type = Anchor;
},
{
horizontal = 1;
origin = "{1, 6}";
type = Anchor;
},
{
horizontal = 1;
origin = "{1, 7}";
type = Anchor;
},
{
horizontal = 1;
origin = "{1, 8}";
type = Anchor;
},
{
horizontal = 1;
origin = "{1, 9}";
type = Anchor;
},
{
horizontal = 1;
origin = "{1, 10}";
type = Anchor;
}
);
layerId = "10767FFE-EA3C-45A9-8421-483827593C6E";
paths = (
{
closed = 1;
nodes = (
"968 13 LINE",
"946 64 OFFCURVE",
"935 143 OFFCURVE",
"935 250 CURVE SMOOTH",
"935 750 LINE SMOOTH",
"935 985 OFFCURVE",
"772 1102 OFFCURVE",
"541 1102 CURVE SMOOTH",
"294 1102 OFFCURVE",
"126 947 OFFCURVE",
"126 784 CURVE",
"246 783 LINE",
"246 904 OFFCURVE",
"368 1002 OFFCURVE",
"536 1002 CURVE SMOOTH",
"716 1002 OFFCURVE",
"815 907 OFFCURVE",
"815 752 CURVE SMOOTH",
"815 630 LINE",
"594 630 LINE SMOOTH",
"289 630 OFFCURVE",
"101 499 OFFCURVE",
"101 287 CURVE SMOOTH",
"101 111 OFFCURVE",
"238 -20 OFFCURVE",
"450 -20 CURVE SMOOTH",
"621 -20 OFFCURVE",
"744 59 OFFCURVE",
"816 151 CURVE",
"819 86 OFFCURVE",
"827 36 OFFCURVE",
"840 0 CURVE",
"968 0 LINE"
);
},
{
closed = 1;
nodes = (
"312 86 OFFCURVE",
"220 180 OFFCURVE",
"220 297 CURVE SMOOTH",
"220 446 OFFCURVE",
"363 537 OFFCURVE",
"604 538 CURVE SMOOTH",
"815 538 LINE",
"815 299 LINE",
"763 180 OFFCURVE",
"636 86 OFFCURVE",
"463 86 CURVE SMOOTH"
);
}
);
width = 1098;
}
);
leftKerningGroup = a;
note = a;
rightKerningGroup = a;
unicode = 0061;
},
{
glyphname = b;
lastChange = "2017-05-28 09:43:31 +0000";
layers = (
{
hints = (
{
horizontal = 1;
origin = "{0, 0}";
type = Anchor;
},
{
horizontal = 1;
origin = "{0, 1}";
type = Anchor;
},
{
horizontal = 1;
origin = "{0, 2}";
type = Anchor;
},
{
horizontal = 1;
origin = "{0, 3}";
type = Anchor;
},
{
horizontal = 1;
origin = "{0, 4}";
type = Anchor;
},
{
horizontal = 1;
origin = "{0, 5}";
type = Anchor;
},
{
horizontal = 1;
origin = "{0, 6}";
type = Anchor;
},
{
horizontal = 1;
origin = "{0, 7}";
type = Anchor;
},
{
horizontal = 1;
origin = "{0, 8}";
type = Anchor;
},
{
horizontal = 1;
origin = "{0, 9}";
type = Anchor;
},
{
horizontal = 1;
origin = "{0, 10}";
type = Anchor;
},
{
horizontal = 1;
origin = "{0, 11}";
type = Anchor;
},
{
horizontal = 1;
origin = "{0, 12}";
type = Anchor;
},
{
horizontal = 1;
origin = "{0, 13}";
type = Anchor;
},
{
horizontal = 1;
origin = "{0, 14}";
type = Anchor;
},
{
horizontal = 1;
origin = "{0, 15}";
type = Anchor;
},
{
horizontal = 1;
origin = "{0, 16}";
type = Anchor;
},
{
horizontal = 1;
origin = "{0, 17}";
type = Anchor;
},
{
horizontal = 1;
origin = "{1, 0}";
type = Anchor;
},
{
horizontal = 1;
origin = "{1, 1}";
type = Anchor;
},
{
horizontal = 1;
origin = "{1, 2}";
type = Anchor;
},
{
horizontal = 1;
origin = "{1, 3}";
type = Anchor;
},
{
horizontal = 1;
origin = "{1, 4}";
type = Anchor;
},
{
horizontal = 1;
origin = "{1, 5}";
type = Anchor;
},
{
horizontal = 1;
origin = "{1, 6}";
type = Anchor;
},
{
horizontal = 1;
origin = "{1, 7}";
type = Anchor;
},
{
horizontal = 1;
origin = "{1, 8}";
type = Anchor;
},
{
horizontal = 1;
origin = "{1, 9}";
type = Anchor;
},
{
horizontal = 1;
origin = "{1, 10}";
type = Anchor;
},
{
horizontal = 1;
origin = "{1, 11}";
type = Anchor;
},
{
horizontal = 1;
origin = "{1, 12}";
type = Anchor;
},
{
horizontal = 1;
origin = "{1, 13}";
type = Anchor;
}
);
layerId = "10767FFE-EA3C-45A9-8421-483827593C6E";
paths = (
{
closed = 1;
nodes = (
"1028 887 OFFCURVE",
"877 1102 OFFCURVE",
"613 1102 CURVE SMOOTH",
"464 1102 OFFCURVE",
"352 1043 OFFCURVE",
"275 926 CURVE",
"275 1536 LINE",
"155 1536 LINE",
"155 0 LINE",
"267 0 LINE",
"273 149 LINE",
"350 36 OFFCURVE",
"464 -20 OFFCURVE",
"615 -20 CURVE SMOOTH",
"876 -20 OFFCURVE",
"1028 207 OFFCURVE",
"1028 530 CURVE SMOOTH",
"1028 551 LINE SMOOTH"
);
},
{
closed = 1;
nodes = (
"814 998 OFFCURVE",
"907 803 OFFCURVE",
"907 551 CURVE SMOOTH",
"907 525 LINE SMOOTH",
"906 276 OFFCURVE",
"809 84 OFFCURVE",
"592 84 CURVE SMOOTH",
"427 84 OFFCURVE",
"324 173 OFFCURVE",
"275 288 CURVE",
"275 777 LINE",
"319 892 OFFCURVE",
"410 998 OFFCURVE",
"590 998 CURVE SMOOTH"
);
}
);
width = 1135;
}
);
note = b;
rightKerningGroup = b;
unicode = 0062;
},
{
glyphname = c;
lastChange = "2017-05-28 09:43:29 +0000";
layers = (
{
hints = (
{
horizontal = 1;
origin = "{0, 0}";
type = Anchor;
},
{
horizontal = 1;
origin = "{0, 1}";
type = Anchor;
},
{
horizontal = 1;
origin = "{0, 2}";
type = Anchor;
},
{
horizontal = 1;
origin = "{0, 3}";
type = Anchor;
},
{
horizontal = 1;
origin = "{0, 4}";
type = Anchor;
},
{
horizontal = 1;
origin = "{0, 5}";
type = Anchor;
},
{
horizontal = 1;
origin = "{0, 6}";
type = Anchor;
},
{
horizontal = 1;
origin = "{0, 7}";
type = Anchor;
},
{
horizontal = 1;
origin = "{0, 8}";
type = Anchor;
},
{
horizontal = 1;
origin = "{0, 9}";
type = Anchor;
},
{
horizontal = 1;
origin = "{0, 10}";
type = Anchor;
},
{
horizontal = 1;
origin = "{0, 11}";
type = Anchor;
},
{
horizontal = 1;
origin = "{0, 12}";
type = Anchor;
},
{
horizontal = 1;
origin = "{0, 13}";
type = Anchor;
},
{
horizontal = 1;
origin = "{0, 14}";
type = Anchor;
},
{
horizontal = 1;
origin = "{0, 15}";
type = Anchor;
},
{
horizontal = 1;
origin = "{0, 16}";
type = Anchor;
},
{
horizontal = 1;
origin = "{0, 17}";
type = Anchor;
},
{
horizontal = 1;
origin = "{0, 18}";
type = Anchor;
},
{
horizontal = 1;
origin = "{0, 19}";
type = Anchor;
},
{
horizontal = 1;
origin = "{0, 20}";
type = Anchor;
},
{
horizontal = 1;
origin = "{0, 21}";
type = Anchor;
},
{
horizontal = 1;
origin = "{0, 22}";
type = Anchor;
},
{
horizontal = 1;
origin = "{0, 23}";
type = Anchor;
},
{
horizontal = 1;
origin = "{0, 24}";
type = Anchor;
},
{
horizontal = 1;
origin = "{0, 25}";
type = Anchor;
},
{
horizontal = 1;
origin = "{0, 26}";
type = Anchor;
},
{
horizontal = 1;
origin = "{0, 27}";
type = Anchor;
}
);
layerId = "10767FFE-EA3C-45A9-8421-483827593C6E";
paths = (
{
closed = 1;
nodes = (
"308 82 OFFCURVE",
"214 289 OFFCURVE",
"214 520 CURVE SMOOTH",
"214 562 LINE SMOOTH",
"214 791 OFFCURVE",
"308 1000 OFFCURVE",
"555 1000 CURVE SMOOTH",
"719 1000 OFFCURVE",
"847 893 OFFCURVE",
"858 718 CURVE",
"972 718 LINE",
"961 953 OFFCURVE",
"787 1102 OFFCURVE",
"555 1102 CURVE SMOOTH",
"254 1102 OFFCURVE",
"95 866 OFFCURVE",
"95 562 CURVE SMOOTH",
"95 513 LINE SMOOTH",
"98 212 OFFCURVE",
"256 -20 OFFCURVE",
"557 -20 CURVE SMOOTH",
"777 -20 OFFCURVE",
"961 128 OFFCURVE",
"972 335 CURVE",
"858 335 LINE",
"846 170 OFFCURVE",
"708 82 OFFCURVE",
"557 82 CURVE SMOOTH"
);
}
);
width = 1056;
}
);
leftKerningGroup = c;
note = c;
rightKerningGroup = c;
unicode = 0063;
},
{
glyphname = d;
lastChange = "2017-05-28 09:43:27 +0000";
layers = (
{
hints = (
{
horizontal = 1;
origin = "{0, 0}";
type = Anchor;
},
{
horizontal = 1;
origin = "{0, 1}";
type = Anchor;
},
{
horizontal = 1;
origin = "{0, 2}";
type = Anchor;
},
{
horizontal = 1;
origin = "{0, 3}";
type = Anchor;
},
{
horizontal = 1;
origin = "{0, 4}";
type = Anchor;
},
{
horizontal = 1;
origin = "{0, 5}";
type = Anchor;
},
{
horizontal = 1;
origin = "{0, 6}";
type = Anchor;
},
{
horizontal = 1;
origin = "{0, 7}";
type = Anchor;
},
{
horizontal = 1;
origin = "{0, 8}";
type = Anchor;
},
{
horizontal = 1;
origin = "{0, 9}";
type = Anchor;
},
{
horizontal = 1;
origin = "{0, 10}";
type = Anchor;
},
{
horizontal = 1;
origin = "{0, 11}";
type = Anchor;
},
{
horizontal = 1;
origin = "{0, 12}";
type = Anchor;
},
{
horizontal = 1;
origin = "{0, 13}";
type = Anchor;
},
{
horizontal = 1;
origin = "{0, 14}";
type = Anchor;
},
{
horizontal = 1;
origin = "{0, 15}";
type = Anchor;
},
{
horizontal = 1;
origin = "{0, 16}";
type = Anchor;
},
{
horizontal = 1;
origin = "{0, 17}";
type = Anchor;
},
{
horizontal = 1;
origin = "{1, 0}";
type = Anchor;
},
{
horizontal = 1;
origin = "{1, 1}";
type = Anchor;
},
{
horizontal = 1;
origin = "{1, 2}";
type = Anchor;
},
{
horizontal = 1;
origin = "{1, 3}";
type = Anchor;
},
{
horizontal = 1;
origin = "{1, 4}";
type = Anchor;
},
{
horizontal = 1;
origin = "{1, 5}";
type = Anchor;
},
{
horizontal = 1;
origin = "{1, 6}";
type = Anchor;
},
{
horizontal = 1;
origin = "{1, 7}";
type = Anchor;
},
{
horizontal = 1;
origin = "{1, 8}";
type = Anchor;
},
{
horizontal = 1;
origin = "{1, 9}";
type = Anchor;
},
{
horizontal = 1;
origin = "{1, 10}";
type = Anchor;
},
{
horizontal = 1;
origin = "{1, 11}";
type = Anchor;
},
{
horizontal = 1;
origin = "{1, 12}";
type = Anchor;
},
{
horizontal = 1;
origin = "{1, 13}";
type = Anchor;
}
);
layerId = "10767FFE-EA3C-45A9-8421-483827593C6E";
paths = (
{
closed = 1;
nodes = (
"980 1536 LINE",
"860 1536 LINE",
"860 931 LINE",
"784 1045 OFFCURVE",
"673 1102 OFFCURVE",
"526 1102 CURVE SMOOTH",
"269 1102 OFFCURVE",
"109 887 OFFCURVE",
"109 551 CURVE SMOOTH",
"109 530 LINE SMOOTH",
"109 207 OFFCURVE",
"269 -20 OFFCURVE",
"524 -20 CURVE SMOOTH",
"673 -20 OFFCURVE",
"786 35 OFFCURVE",
"862 145 CURVE",
"868 0 LINE",
"980 0 LINE"
);
},
{
closed = 1;
nodes = (
"229 803 OFFCURVE",
"329 998 OFFCURVE",
"549 998 CURVE SMOOTH",
"722 998 OFFCURVE",
"813 899 OFFCURVE",
"860 790 CURVE",
"860 279 LINE",
"807 167 OFFCURVE",
"710 84 OFFCURVE",
"547 84 CURVE SMOOTH",
"330 84 OFFCURVE",
"229 278 OFFCURVE",
"229 530 CURVE SMOOTH",
"229 551 LINE SMOOTH"
);
}
);
width = 1138;
}
);
leftKerningGroup = c;
note = d;
unicode = 0064;
},
{
glyphname = e;
lastChange = "2017-05-28 09:43:25 +0000";
layers = (
{
hints = (
{
horizontal = 1;
origin = "{0, 0}";
type = Anchor;
},
{
horizontal = 1;
origin = "{0, 1}";
type = Anchor;
},
{
horizontal = 1;
origin = "{0, 2}";
type = Anchor;
},
{
horizontal = 1;
origin = "{0, 3}";
type = Anchor;
},
{
horizontal = 1;
origin = "{0, 4}";
type = Anchor;
},
{
horizontal = 1;
origin = "{0, 5}";
type = Anchor;
},
{
horizontal = 1;
origin = "{0, 6}";
type = Anchor;
},
{
horizontal = 1;
origin = "{0, 7}";
type = Anchor;
},
{
horizontal = 1;
origin = "{0, 8}";
type = Anchor;
},
{
horizontal = 1;
origin = "{0, 9}";
type = Anchor;
},
{
horizontal = 1;
origin = "{0, 10}";
type = Anchor;
},
{
horizontal = 1;
origin = "{0, 11}";
type = Anchor;
},
{
horizontal = 1;
origin = "{0, 12}";
type = Anchor;
},
{
horizontal = 1;
origin = "{0, 13}";
type = Anchor;
},
{
horizontal = 1;
origin = "{0, 14}";
type = Anchor;
},
{
horizontal = 1;
origin = "{0, 15}";
type = Anchor;
},
{
horizontal = 1;
origin = "{0, 16}";
type = Anchor;
},
{
horizontal = 1;
origin = "{0, 17}";
type = Anchor;
},
{
horizontal = 1;
origin = "{0, 18}";
type = Anchor;
},
{
horizontal = 1;
origin = "{0, 19}";
type = Anchor;
},
{
horizontal = 1;
origin = "{0, 20}";
type = Anchor;
},
{
horizontal = 1;
origin = "{0, 21}";
type = Anchor;
},
{
horizontal = 1;
origin = "{0, 22}";
type = Anchor;
},
{
horizontal = 1;
origin = "{1, 0}";
type = Anchor;
},
{
horizontal = 1;
origin = "{1, 1}";
type = Anchor;
},
{
horizontal = 1;
origin = "{1, 2}";
type = Anchor;
},
{
horizontal = 1;
origin = "{1, 3}";
type = Anchor;
},
{
horizontal = 1;
origin = "{1, 4}";
type = Anchor;
},
{
horizontal = 1;
origin = "{1, 5}";
type = Anchor;
},
{
horizontal = 1;
origin = "{1, 6}";
type = Anchor;
},
{
horizontal = 1;
origin = "{1, 7}";
type = Anchor;
}
);
layerId = "10767FFE-EA3C-45A9-8421-483827593C6E";
paths = (
{
closed = 1;
nodes = (
"808 130 OFFCURVE",
"707 81 OFFCURVE",
"580 81 CURVE SMOOTH",
"360 81 OFFCURVE",
"210 272 OFFCURVE",
"210 511 CURVE SMOOTH",
"210 534 LINE",
"982 534 LINE",
"982 607 LINE SMOOTH",
"982 895 OFFCURVE",
"829 1102 OFFCURVE",
"554 1102 CURVE SMOOTH",
"307 1102 OFFCURVE",
"90 887 OFFCURVE",
"90 554 CURVE SMOOTH",
"90 511 LINE SMOOTH",
"90 200 OFFCURVE",
"294 -20 OFFCURVE",
"575 -20 CURVE SMOOTH",
"768 -20 OFFCURVE",
"888 67 OFFCURVE",
"959 172 CURVE",
"883 229 LINE"
);
},
{
closed = 1;
nodes = (
"757 1000 OFFCURVE",
"858 830 OFFCURVE",
"862 649 CURVE SMOOTH",
"862 636 LINE",
"215 636 LINE",
"240 855 OFFCURVE",
"371 1000 OFFCURVE",
"554 1000 CURVE SMOOTH"
);
}
);
width = 1059;
}
);
leftKerningGroup = c;
note = e;
rightKerningGroup = e;
unicode = 0065;
},
{
glyphname = f;
lastChange = "2017-05-28 09:43:23 +0000";
layers = (
{
hints = (
{
horizontal = 1;
origin = "{0, 0}";
type = Anchor;
},
{
horizontal = 1;
origin = "{0, 1}";
type = Anchor;
},
{
horizontal = 1;
origin = "{0, 2}";
type = Anchor;
},
{
horizontal = 1;
origin = "{0, 3}";
type = Anchor;
},
{
horizontal = 1;
origin = "{0, 4}";
type = Anchor;
},
{
horizontal = 1;
origin = "{0, 5}";
type = Anchor;
},
{
horizontal = 1;
origin = "{0, 6}";
type = Anchor;
},
{
horizontal = 1;
origin = "{0, 7}";
type = Anchor;
},
{
horizontal = 1;
origin = "{0, 8}";
type = Anchor;
},
{
horizontal = 1;
origin = "{0, 9}";
type = Anchor;
},
{
horizontal = 1;
origin = "{0, 10}";
type = Anchor;
},
{
horizontal = 1;
origin = "{0, 11}";
type = Anchor;
},
{
horizontal = 1;
origin = "{0, 12}";
type = Anchor;
},
{
horizontal = 1;
origin = "{0, 13}";
type = Anchor;
},
{
horizontal = 1;
origin = "{0, 14}";
type = Anchor;
},
{
horizontal = 1;
origin = "{0, 15}";
type = Anchor;
},
{
horizontal = 1;
origin = "{0, 16}";
type = Anchor;
},
{
horizontal = 1;
origin = "{0, 17}";
type = Anchor;
},
{
horizontal = 1;
origin = "{0, 18}";
type = Anchor;
},
{
horizontal = 1;
origin = "{0, 19}";
type = Anchor;
},
{
horizontal = 1;
origin = "{0, 20}";
type = Anchor;
},
{
horizontal = 1;
origin = "{0, 21}";
type = Anchor;
},
{
horizontal = 1;
origin = "{0, 22}";
type = Anchor;
},
{
horizontal = 1;
origin = "{0, 23}";
type = Anchor;
}
);
layerId = "10767FFE-EA3C-45A9-8421-483827593C6E";
paths = (
{
closed = 1;
nodes = (
"362 1082 LINE",
"362 1217 LINE SMOOTH",
"362 1368 OFFCURVE",
"442 1452 OFFCURVE",
"571 1452 CURVE SMOOTH",
"612 1452 OFFCURVE",
"648 1448 OFFCURVE",
"681 1440 CURVE",
"690 1540 LINE",
"650 1551 OFFCURVE",
"607 1557 OFFCURVE",
"562 1557 CURVE SMOOTH",
"366 1557 OFFCURVE",
"244 1437 OFFCURVE",
"243 1221 CURVE SMOOTH",
"243 1082 LINE",
"63 1082 LINE",
"63 984 LINE",
"243 984 LINE",
"243 0 LINE",
"362 0 LINE",
"362 984 LINE",
"621 984 LINE",
"621 1082 LINE"
);
}
);
width = 678;
}
);
note = f;
unicode = 0066;
},
{
glyphname = g;
lastChange = "2017-05-28 09:43:21 +0000";
layers = (
{
hints = (
{
horizontal = 1;
origin = "{0, 0}";
type = Anchor;
},
{
horizontal = 1;
origin = "{0, 1}";
type = Anchor;
},
{
horizontal = 1;
origin = "{0, 2}";
type = Anchor;
},
{
horizontal = 1;
origin = "{0, 3}";
type = Anchor;
},
{
horizontal = 1;
origin = "{0, 4}";
type = Anchor;
},
{
horizontal = 1;
origin = "{0, 5}";
type = Anchor;
},
{
horizontal = 1;
origin = "{0, 6}";
type = Anchor;
},
{
horizontal = 1;
origin = "{0, 7}";
type = Anchor;
},
{
horizontal = 1;
origin = "{0, 8}";
type = Anchor;
},
{
horizontal = 1;
origin = "{0, 9}";
type = Anchor;
},
{
horizontal = 1;
origin = "{0, 10}";
type = Anchor;
},
{
horizontal = 1;
origin = "{0, 11}";
type = Anchor;
},
{
horizontal = 1;
origin = "{0, 12}";
type = Anchor;
},
{
horizontal = 1;
origin = "{0, 13}";
type = Anchor;
},
{
horizontal = 1;
origin = "{0, 14}";
type = Anchor;
},
{
horizontal = 1;
origin = "{0, 15}";
type = Anchor;
},
{
horizontal = 1;
origin = "{0, 16}";
type = Anchor;
},
{
horizontal = 1;
origin = "{0, 17}";
type = Anchor;
},
{
horizontal = 1;
origin = "{0, 18}";
type = Anchor;
},
{
horizontal = 1;
origin = "{0, 19}";
type = Anchor;
},
{
horizontal = 1;
origin = "{0, 20}";
type = Anchor;
},
{
horizontal = 1;
origin = "{0, 21}";
type = Anchor;
},
{
horizontal = 1;
origin = "{0, 22}";
type = Anchor;
},
{
horizontal = 1;
origin = "{0, 23}";
type = Anchor;
},
{
horizontal = 1;
origin = "{0, 24}";
type = Anchor;
},
{
horizontal = 1;
origin = "{0, 25}";
type = Anchor;
},
{
horizontal = 1;
origin = "{0, 26}";
type = Anchor;
},
{
horizontal = 1;
origin = "{0, 27}";
type = Anchor;
},
{
horizontal = 1;
origin = "{0, 28}";
type = Anchor;
},
{
horizontal = 1;
origin = "{0, 29}";
type = Anchor;
},
{
horizontal = 1;
origin = "{1, 0}";
type = Anchor;
},
{
horizontal = 1;
origin = "{1, 1}";
type = Anchor;
},
{
horizontal = 1;
origin = "{1, 2}";
type = Anchor;
},
{
horizontal = 1;
origin = "{1, 3}";
type = Anchor;
},
{
horizontal = 1;
origin = "{1, 4}";
type = Anchor;
},
{
horizontal = 1;
origin = "{1, 5}";
type = Anchor;
},
{
horizontal = 1;
origin = "{1, 6}";
type = Anchor;
},
{
horizontal = 1;
origin = "{1, 7}";
type = Anchor;
},
{
horizontal = 1;
origin = "{1, 8}";
type = Anchor;
},
{
horizontal = 1;
origin = "{1, 9}";
type = Anchor;
},
{
horizontal = 1;
origin = "{1, 10}";
type = Anchor;
},
{
horizontal = 1;
origin = "{1, 11}";
type = Anchor;
},
{
horizontal = 1;
origin = "{1, 12}";
type = Anchor;
},
{
horizontal = 1;
origin = "{1, 13}";
type = Anchor;
}
);
layerId = "10767FFE-EA3C-45A9-8421-483827593C6E";
paths = (
{
closed = 1;
nodes = (
"809 -432 OFFCURVE",
"980 -262 OFFCURVE",
"980 19 CURVE SMOOTH",
"980 1082 LINE",
"868 1082 LINE",
"863 927 LINE",
"786 1044 OFFCURVE",
"674 1102 OFFCURVE",
"526 1102 CURVE SMOOTH",
"266 1102 OFFCURVE",
"109 887 OFFCURVE",
"109 551 CURVE SMOOTH",
"109 518 LINE SMOOTH",
"113 202 OFFCURVE",
"269 -20 OFFCURVE",
"524 -20 CURVE SMOOTH",
"671 -20 OFFCURVE",
"783 34 OFFCURVE",
"860 141 CURVE",
"860 15 LINE SMOOTH",
"860 -202 OFFCURVE",
"743 -330 OFFCURVE",
"539 -330 CURVE SMOOTH",
"420 -330 OFFCURVE",
"319 -278 OFFCURVE",
"236 -174 CURVE",
"169 -247 LINE",
"256 -370 OFFCURVE",
"411 -432 OFFCURVE",
"546 -432 CURVE SMOOTH"
);
},
{
closed = 1;
nodes = (
"229 803 OFFCURVE",
"329 998 OFFCURVE",
"549 998 CURVE SMOOTH",
"725 998 OFFCURVE",
"815 895 OFFCURVE",
"860 784 CURVE",
"860 284 LINE",
"808 169 OFFCURVE",
"711 84 OFFCURVE",
"547 84 CURVE SMOOTH",
"330 84 OFFCURVE",
"229 278 OFFCURVE",
"229 530 CURVE SMOOTH",
"229 551 LINE SMOOTH"
);
}
);
width = 1137;
}
);
leftKerningGroup = c;
note = g;
unicode = 0067;
},
{
glyphname = h;
lastChange = "2017-05-28 09:43:18 +0000";
layers = (
{
hints = (
{
horizontal = 1;
origin = "{0, 0}";
type = Anchor;
},
{
horizontal = 1;
origin = "{0, 1}";
type = Anchor;
},
{
horizontal = 1;
origin = "{0, 2}";
type = Anchor;
},
{
horizontal = 1;
origin = "{0, 3}";
type = Anchor;
},
{
horizontal = 1;
origin = "{0, 4}";
type = Anchor;
},
{
horizontal = 1;
origin = "{0, 5}";
type = Anchor;
},
{
horizontal = 1;
origin = "{0, 6}";
type = Anchor;
},
{
horizontal = 1;
origin = "{0, 7}";
type = Anchor;
},
{
horizontal = 1;
origin = "{0, 8}";
type = Anchor;
},
{
horizontal = 1;
origin = "{0, 9}";
type = Anchor;
},
{
horizontal = 1;
origin = "{0, 10}";
type = Anchor;
},
{
horizontal = 1;
origin = "{0, 11}";
type = Anchor;
},
{
horizontal = 1;
origin = "{0, 12}";
type = Anchor;
},
{
horizontal = 1;
origin = "{0, 13}";
type = Anchor;
},
{
horizontal = 1;
origin = "{0, 14}";
type = Anchor;
},
{
horizontal = 1;
origin = "{0, 15}";
type = Anchor;
},
{
horizontal = 1;
origin = "{0, 16}";
type = Anchor;
},
{
horizontal = 1;
origin = "{0, 17}";
type = Anchor;
},
{
horizontal = 1;
origin = "{0, 18}";
type = Anchor;
},
{
horizontal = 1;
origin = "{0, 19}";
type = Anchor;
}
);
layerId = "10767FFE-EA3C-45A9-8421-483827593C6E";
paths = (
{
closed = 1;
nodes = (
"754 999 OFFCURVE",
"852 930 OFFCURVE",
"853 710 CURVE SMOOTH",
"853 0 LINE",
"973 0 LINE",
"973 710 LINE",
"972 991 OFFCURVE",
"841 1102 OFFCURVE",
"628 1102 CURVE SMOOTH",
"473 1102 OFFCURVE",
"351 1022 OFFCURVE",
"276 901 CURVE",
"276 1536 LINE",
"156 1536 LINE",
"156 0 LINE",
"276 0 LINE",
"276 744 LINE",
"323 875 OFFCURVE",
"430 999 OFFCURVE",
"598 999 CURVE SMOOTH"
);
}
);
width = 1125;
}
);
note = h;
rightKerningGroup = h;
unicode = 0068;
},
{
glyphname = i;
lastChange = "2017-05-28 09:43:15 +0000";
layers = (
{
hints = (
{
horizontal = 1;
origin = "{0, 0}";
type = Anchor;
},
{
horizontal = 1;
origin = "{0, 1}";
type = Anchor;
},
{
horizontal = 1;
origin = "{0, 2}";
type = Anchor;
},
{
horizontal = 1;
origin = "{0, 3}";
type = Anchor;
},
{
horizontal = 1;
origin = "{0, 4}";
type = Anchor;
},
{
horizontal = 1;
origin = "{0, 5}";
type = Anchor;
},
{
horizontal = 1;
origin = "{0, 6}";
type = Anchor;
},
{
horizontal = 1;
origin = "{0, 7}";
type = Anchor;
},
{
horizontal = 1;
origin = "{0, 8}";
type = Anchor;
},
{
horizontal = 1;
origin = "{0, 9}";
type = Anchor;
},
{
horizontal = 1;
origin = "{0, 10}";
type = Anchor;
},
{
horizontal = 1;
origin = "{0, 11}";
type = Anchor;
},
{
horizontal = 1;
origin = "{1, 0}";
type = Anchor;
},
{
horizontal = 1;
origin = "{1, 1}";
type = Anchor;
},
{
horizontal = 1;
origin = "{1, 2}";
type = Anchor;
},
{
horizontal = 1;
origin = "{1, 3}";
type = Anchor;
}
);
layerId = "10767FFE-EA3C-45A9-8421-483827593C6E";
paths = (
{
closed = 1;
nodes = (
"149 1342 OFFCURVE",
"176 1316 OFFCURVE",
"231 1316 CURVE SMOOTH",
"286 1316 OFFCURVE",
"314 1342 OFFCURVE",
"314 1395 CURVE SMOOTH",
"314 1449 OFFCURVE",
"286 1476 OFFCURVE",
"231 1476 CURVE SMOOTH",
"176 1476 OFFCURVE",
"149 1449 OFFCURVE",
"149 1395 CURVE SMOOTH"
);
},
{
closed = 1;
nodes = (
"171 0 LINE",
"290 0 LINE",
"290 1082 LINE",
"171 1082 LINE"
);
}
);
width = 460;
}
);
note = i;
unicode = 0069;
},
{
glyphname = j;
lastChange = "2017-05-28 09:43:13 +0000";
layers = (
{
hints = (
{
horizontal = 1;
origin = "{0, 0}";
type = Anchor;
},
{
horizontal = 1;
origin = "{0, 1}";
type = Anchor;
},
{
horizontal = 1;
origin = "{0, 2}";
type = Anchor;
},
{
horizontal = 1;
origin = "{0, 3}";
type = Anchor;
},
{
horizontal = 1;
origin = "{0, 4}";
type = Anchor;
},
{
horizontal = 1;
origin = "{0, 5}";
type = Anchor;
},
{
horizontal = 1;
origin = "{0, 6}";
type = Anchor;
},
{
horizontal = 1;
origin = "{0, 7}";
type = Anchor;
},
{
horizontal = 1;
origin = "{0, 8}";
type = Anchor;
},
{
horizontal = 1;
origin = "{0, 9}";
type = Anchor;
},
{
horizontal = 1;
origin = "{0, 10}";
type = Anchor;
},
{
horizontal = 1;
origin = "{0, 11}";
type = Anchor;
},
{
horizontal = 1;
origin = "{1, 0}";
type = Anchor;
},
{
horizontal = 1;
origin = "{1, 1}";
type = Anchor;
},
{
horizontal = 1;
origin = "{1, 2}";
type = Anchor;
},
{
horizontal = 1;
origin = "{1, 3}";
type = Anchor;
},
{
horizontal = 1;
origin = "{1, 4}";
type = Anchor;
},
{
horizontal = 1;
origin = "{1, 5}";
type = Anchor;
},
{
horizontal = 1;
origin = "{1, 6}";
type = Anchor;
},
{
horizontal = 1;
origin = "{1, 7}";
type = Anchor;
},
{
horizontal = 1;
origin = "{1, 8}";
type = Anchor;
},
{
horizontal = 1;
origin = "{1, 9}";
type = Anchor;
},
{
horizontal = 1;
origin = "{1, 10}";
type = Anchor;
},
{
horizontal = 1;
origin = "{1, 11}";
type = Anchor;
},
{
horizontal = 1;
origin = "{1, 12}";
type = Anchor;
},
{
horizontal = 1;
origin = "{1, 13}";
type = Anchor;
},
{
horizontal = 1;
origin = "{1, 14}";
type = Anchor;
},
{
horizontal = 1;
origin = "{1, 15}";
type = Anchor;
}
);
layerId = "10767FFE-EA3C-45A9-8421-483827593C6E";
paths = (
{
closed = 1;
nodes = (
"145 1342 OFFCURVE",
"172 1316 OFFCURVE",
"227 1316 CURVE SMOOTH",
"282 1316 OFFCURVE",
"310 1342 OFFCURVE",
"310 1395 CURVE SMOOTH",
"310 1440 OFFCURVE",
"278 1476 OFFCURVE",
"227 1476 CURVE SMOOTH",
"172 1476 OFFCURVE",
"145 1449 OFFCURVE",
"145 1395 CURVE SMOOTH"
);
},
{
closed = 1;
nodes = (
"166 -265 OFFCURVE",
"106 -333 OFFCURVE",
"-13 -333 CURVE SMOOTH",
"-40 -333 OFFCURVE",
"-70 -328 OFFCURVE",
"-103 -319 CURVE",
"-104 -418 LINE",
"-71 -431 OFFCURVE",
"-36 -437 OFFCURVE",
"2 -437 CURVE SMOOTH",
"191 -437 OFFCURVE",
"286 -334 OFFCURVE",
"286 -129 CURVE SMOOTH",
"286 1082 LINE",
"166 1082 LINE",
"166 -129 LINE SMOOTH"
);
}
);
width = 468;
}
);
note = j;
unicode = 006A;
},
{
glyphname = k;
lastChange = "2017-05-28 09:43:11 +0000";
layers = (
{
hints = (
{
horizontal = 1;
origin = "{0, 0}";
type = Anchor;
},
{
horizontal = 1;
origin = "{0, 1}";
type = Anchor;
},
{
horizontal = 1;
origin = "{0, 2}";
type = Anchor;
},
{
horizontal = 1;
origin = "{0, 3}";
type = Anchor;
},
{
horizontal = 1;
origin = "{0, 4}";
type = Anchor;
},
{
horizontal = 1;
origin = "{0, 5}";
type = Anchor;
},
{
horizontal = 1;
origin = "{0, 6}";
type = Anchor;
},
{
horizontal = 1;
origin = "{0, 7}";
type = Anchor;
},
{
horizontal = 1;
origin = "{0, 8}";
type = Anchor;
},
{
horizontal = 1;
origin = "{0, 9}";
type = Anchor;
},
{
horizontal = 1;
origin = "{0, 10}";
type = Anchor;
},
{
horizontal = 1;
origin = "{0, 11}";
type = Anchor;
},
{
horizontal = 1;
origin = "{0, 12}";
type = Anchor;
}
);
layerId = "10767FFE-EA3C-45A9-8421-483827593C6E";
paths = (
{
closed = 1;
nodes = (
"496 626 LINE",
"955 1082 LINE",
"804 1082 LINE",
"389 676 LINE",
"276 554 LINE",
"276 1536 LINE",
"157 1536 LINE",
"157 0 LINE",
"276 0 LINE",
"276 413 LINE",
"413 545 LINE",
"851 0 LINE",
"995 0 LINE"
);
}
);
width = 1004;
}
);
note = k;
unicode = 006B;
},
{
glyphname = l;
lastChange = "2017-05-28 09:43:09 +0000";
layers = (
{
hints = (
{
horizontal = 1;
origin = "{0, 0}";
type = Anchor;
},
{
horizontal = 1;
origin = "{0, 1}";
type = Anchor;
},
{
horizontal = 1;
origin = "{0, 2}";
type = Anchor;
},
{
horizontal = 1;
origin = "{0, 3}";
type = Anchor;
}
);
layerId = "10767FFE-EA3C-45A9-8421-483827593C6E";
paths = (
{
closed = 1;
nodes = (
"171 0 LINE",
"290 0 LINE",
"290 1536 LINE",
"171 1536 LINE"
);
}
);
width = 460;
}
);
note = l;
unicode = 006C;
},
{
glyphname = m;
lastChange = "2017-05-28 09:41:35 +0000";
layers = (
{
hints = (
{
horizontal = 1;
origin = "{0, 0}";
type = Anchor;
},
{
horizontal = 1;
origin = "{0, 1}";
type = Anchor;
},
{
horizontal = 1;
origin = "{0, 2}";
type = Anchor;
},
{
horizontal = 1;
origin = "{0, 3}";
type = Anchor;
},
{
horizontal = 1;
origin = "{0, 4}";
type = Anchor;
},
{
horizontal = 1;
origin = "{0, 5}";
type = Anchor;
},
{
horizontal = 1;
origin = "{0, 6}";
type = Anchor;
},
{
horizontal = 1;
origin = "{0, 7}";
type = Anchor;
},
{
horizontal = 1;
origin = "{0, 8}";
type = Anchor;
},
{
horizontal = 1;
origin = "{0, 9}";
type = Anchor;
},
{
horizontal = 1;
origin = "{0, 10}";
type = Anchor;
},
{
horizontal = 1;
origin = "{0, 11}";
type = Anchor;
},
{
horizontal = 1;
origin = "{0, 12}";
type = Anchor;
},
{
horizontal = 1;
origin = "{0, 13}";
type = Anchor;
},
{
horizontal = 1;
origin = "{0, 14}";
type = Anchor;
},
{
horizontal = 1;
origin = "{0, 15}";
type = Anchor;
},
{
horizontal = 1;
origin = "{0, 16}";
type = Anchor;
},
{
horizontal = 1;
origin = "{0, 17}";
type = Anchor;
},
{
horizontal = 1;
origin = "{0, 18}";
type = Anchor;
},
{
horizontal = 1;
origin = "{0, 19}";
type = Anchor;
},
{
horizontal = 1;
origin = "{0, 20}";
type = Anchor;
},
{
horizontal = 1;
origin = "{0, 21}";
type = Anchor;
},
{
horizontal = 1;
origin = "{0, 22}";
type = Anchor;
},
{
horizontal = 1;
origin = "{0, 23}";
type = Anchor;
},
{
horizontal = 1;
origin = "{0, 24}";
type = Anchor;
},
{
horizontal = 1;
origin = "{0, 25}";
type = Anchor;
},
{
horizontal = 1;
origin = "{0, 26}";
type = Anchor;
},
{
horizontal = 1;
origin = "{0, 27}";
type = Anchor;
},
{
horizontal = 1;
origin = "{0, 28}";
type = Anchor;
},
{
horizontal = 1;
origin = "{0, 29}";
type = Anchor;
},
{
horizontal = 1;
origin = "{0, 30}";
type = Anchor;
},
{
horizontal = 1;
origin = "{0, 31}";
type = Anchor;
},
{
horizontal = 1;
origin = "{0, 32}";
type = Anchor;
},
{
horizontal = 1;
origin = "{0, 33}";
type = Anchor;
},
{
horizontal = 1;
origin = "{0, 34}";
type = Anchor;
}
);
layerId = "10767FFE-EA3C-45A9-8421-483827593C6E";
paths = (
{
closed = 1;
nodes = (
"741 999 OFFCURVE",
"848 931 OFFCURVE",
"848 716 CURVE SMOOTH",
"848 0 LINE",
"968 0 LINE",
"968 716 LINE",
"980 843 OFFCURVE",
"1084 998 OFFCURVE",
"1285 999 CURVE SMOOTH",
"1441 1000 OFFCURVE",
"1548 935 OFFCURVE",
"1549 711 CURVE SMOOTH",
"1549 0 LINE",
"1668 0 LINE",
"1668 710 LINE",
"1667 987 OFFCURVE",
"1538 1102 OFFCURVE",
"1314 1102 CURVE SMOOTH",
"1141 1102 OFFCURVE",
"1013 1015 OFFCURVE",
"944 892 CURVE",
"899 1032 OFFCURVE",
"791 1102 OFFCURVE",
"620 1102 CURVE SMOOTH",
"460 1102 OFFCURVE",
"341 1025 OFFCURVE",
"269 906 CURVE",
"266 1082 LINE",
"150 1082 LINE",
"150 0 LINE",
"270 0 LINE",
"270 744 LINE",
"309 873 OFFCURVE",
"404 999 OFFCURVE",
"585 999 CURVE SMOOTH"
);
}
);
width = 1816;
}
);
leftKerningGroup = m;
note = m;
rightKerningGroup = h;
unicode = 006D;
},
{
glyphname = n;
lastChange = "2017-05-28 09:41:31 +0000";
layers = (
{
hints = (
{
horizontal = 1;
origin = "{0, 0}";
type = Anchor;
},
{
horizontal = 1;
origin = "{0, 1}";
type = Anchor;
},
{
horizontal = 1;
origin = "{0, 2}";
type = Anchor;
},
{
horizontal = 1;
origin = "{0, 3}";
type = Anchor;
},
{
horizontal = 1;
origin = "{0, 4}";
type = Anchor;
},
{
horizontal = 1;
origin = "{0, 5}";
type = Anchor;
},
{
horizontal = 1;
origin = "{0, 6}";
type = Anchor;
},
{
horizontal = 1;
origin = "{0, 7}";
type = Anchor;
},
{
horizontal = 1;
origin = "{0, 8}";
type = Anchor;
},
{
horizontal = 1;
origin = "{0, 9}";
type = Anchor;
},
{
horizontal = 1;
origin = "{0, 10}";
type = Anchor;
},
{
horizontal = 1;
origin = "{0, 11}";
type = Anchor;
},
{
horizontal = 1;
origin = "{0, 12}";
type = Anchor;
},
{
horizontal = 1;
origin = "{0, 13}";
type = Anchor;
},
{
horizontal = 1;
origin = "{0, 14}";
type = Anchor;
},
{
horizontal = 1;
origin = "{0, 15}";
type = Anchor;
},
{
horizontal = 1;
origin = "{0, 16}";
type = Anchor;
},
{
horizontal = 1;
origin = "{0, 17}";
type = Anchor;
},
{
horizontal = 1;
origin = "{0, 18}";
type = Anchor;
},
{
horizontal = 1;
origin = "{0, 19}";
type = Anchor;
}
);
layerId = "10767FFE-EA3C-45A9-8421-483827593C6E";
paths = (
{
closed = 1;
nodes = (
"754 999 OFFCURVE",
"852 930 OFFCURVE",
"853 710 CURVE SMOOTH",
"853 0 LINE",
"973 0 LINE",
"973 710 LINE",
"972 991 OFFCURVE",
"841 1102 OFFCURVE",
"628 1102 CURVE SMOOTH",
"473 1102 OFFCURVE",
"350 1022 OFFCURVE",
"275 899 CURVE",
"271 1082 LINE",
"156 1082 LINE",
"156 0 LINE",
"276 0 LINE",
"276 744 LINE",
"323 875 OFFCURVE",
"430 999 OFFCURVE",
"598 999 CURVE SMOOTH"
);
}
);
width = 1126;
}
);
leftKerningGroup = m;
note = n;
rightKerningGroup = h;
unicode = 006E;
},
{
glyphname = o;
lastChange = "2017-05-28 09:41:29 +0000";
layers = (
{
hints = (
{
horizontal = 1;
origin = "{0, 0}";
type = Anchor;
},
{
horizontal = 1;
origin = "{0, 1}";
type = Anchor;
},
{
horizontal = 1;
origin = "{0, 2}";
type = Anchor;
},
{
horizontal = 1;
origin = "{0, 3}";
type = Anchor;
},
{
horizontal = 1;
origin = "{0, 4}";
type = Anchor;
},
{
horizontal = 1;
origin = "{0, 5}";
type = Anchor;
},
{
horizontal = 1;
origin = "{0, 6}";
type = Anchor;
},
{
horizontal = 1;
origin = "{0, 7}";
type = Anchor;
},
{
horizontal = 1;
origin = "{0, 8}";
type = Anchor;
},
{
horizontal = 1;
origin = "{0, 9}";
type = Anchor;
},
{
horizontal = 1;
origin = "{0, 10}";
type = Anchor;
},
{
horizontal = 1;
origin = "{0, 11}";
type = Anchor;
},
{
horizontal = 1;
origin = "{0, 12}";
type = Anchor;
},
{
horizontal = 1;
origin = "{0, 13}";
type = Anchor;
},
{
horizontal = 1;
origin = "{1, 0}";
type = Anchor;
},
{
horizontal = 1;
origin = "{1, 1}";
type = Anchor;
},
{
horizontal = 1;
origin = "{1, 2}";
type = Anchor;
},
{
horizontal = 1;
origin = "{1, 3}";
type = Anchor;
},
{
horizontal = 1;
origin = "{1, 4}";
type = Anchor;
},
{
horizontal = 1;
origin = "{1, 5}";
type = Anchor;
},
{
horizontal = 1;
origin = "{1, 6}";
type = Anchor;
},
{
horizontal = 1;
origin = "{1, 7}";
type = Anchor;
},
{
horizontal = 1;
origin = "{1, 8}";
type = Anchor;
},
{
horizontal = 1;
origin = "{1, 9}";
type = Anchor;
},
{
horizontal = 1;
origin = "{1, 10}";
type = Anchor;
},
{
horizontal = 1;
origin = "{1, 11}";
type = Anchor;
},
{
horizontal = 1;
origin = "{1, 12}";
type = Anchor;
},
{
horizontal = 1;
origin = "{1, 13}";
type = Anchor;
}
);
layerId = "10767FFE-EA3C-45A9-8421-483827593C6E";
paths = (
{
closed = 1;
nodes = (
"91 209 OFFCURVE",
"282 -20 OFFCURVE",
"575 -20 CURVE SMOOTH",
"867 -20 OFFCURVE",
"1057 209 OFFCURVE",
"1057 525 CURVE SMOOTH",
"1057 567 LINE",
"1053 876 OFFCURVE",
"865 1102 OFFCURVE",
"573 1102 CURVE SMOOTH",
"282 1102 OFFCURVE",
"91 872 OFFCURVE",
"91 557 CURVE SMOOTH",
"91 525 LINE SMOOTH"
);
},
{
closed = 1;
nodes = (
"211 791 OFFCURVE",
"340 1000 OFFCURVE",
"573 1000 CURVE SMOOTH",
"808 1000 OFFCURVE",
"937 790 OFFCURVE",
"937 557 CURVE SMOOTH",
"937 525 LINE SMOOTH",
"937 286 OFFCURVE",
"808 82 OFFCURVE",
"575 82 CURVE SMOOTH",
"339 82 OFFCURVE",
"211 286 OFFCURVE",
"211 525 CURVE SMOOTH",
"211 556 LINE SMOOTH"
);
}
);
width = 1148;
}
);
leftKerningGroup = o;
note = o;
rightKerningGroup = o;
unicode = 006F;
},
{
glyphname = p;
lastChange = "2017-05-28 09:41:27 +0000";
layers = (
{
hints = (
{
horizontal = 1;
origin = "{0, 0}";
type = Anchor;
},
{
horizontal = 1;
origin = "{0, 1}";
type = Anchor;
},
{
horizontal = 1;
origin = "{0, 2}";
type = Anchor;
},
{
horizontal = 1;
origin = "{0, 3}";
type = Anchor;
},
{
horizontal = 1;
origin = "{0, 4}";
type = Anchor;
},
{
horizontal = 1;
origin = "{0, 5}";
type = Anchor;
},
{
horizontal = 1;
origin = "{0, 6}";
type = Anchor;
},
{
horizontal = 1;
origin = "{0, 7}";
type = Anchor;
},
{
horizontal = 1;
origin = "{0, 8}";
type = Anchor;
},
{
horizontal = 1;
origin = "{0, 9}";
type = Anchor;
},
{
horizontal = 1;
origin = "{0, 10}";
type = Anchor;
},
{
horizontal = 1;
origin = "{0, 11}";
type = Anchor;
},
{
horizontal = 1;
origin = "{0, 12}";
type = Anchor;
},
{
horizontal = 1;
origin = "{0, 13}";
type = Anchor;
},
{
horizontal = 1;
origin = "{0, 14}";
type = Anchor;
},
{
horizontal = 1;
origin = "{0, 15}";
type = Anchor;
},
{
horizontal = 1;
origin = "{0, 16}";
type = Anchor;
},
{
horizontal = 1;
origin = "{0, 17}";
type = Anchor;
},
{
horizontal = 1;
origin = "{1, 0}";
type = Anchor;
},
{
horizontal = 1;
origin = "{1, 1}";
type = Anchor;
},
{
horizontal = 1;
origin = "{1, 2}";
type = Anchor;
},
{
horizontal = 1;
origin = "{1, 3}";
type = Anchor;
},
{
horizontal = 1;
origin = "{1, 4}";
type = Anchor;
},
{
horizontal = 1;
origin = "{1, 5}";
type = Anchor;
},
{
horizontal = 1;
origin = "{1, 6}";
type = Anchor;
},
{
horizontal = 1;
origin = "{1, 7}";
type = Anchor;
},
{
horizontal = 1;
origin = "{1, 8}";
type = Anchor;
},
{
horizontal = 1;
origin = "{1, 9}";
type = Anchor;
},
{
horizontal = 1;
origin = "{1, 10}";
type = Anchor;
},
{
horizontal = 1;
origin = "{1, 11}";
type = Anchor;
},
{
horizontal = 1;
origin = "{1, 12}";
type = Anchor;
},
{
horizontal = 1;
origin = "{1, 13}";
type = Anchor;
}
);
layerId = "10767FFE-EA3C-45A9-8421-483827593C6E";
paths = (
{
closed = 1;
nodes = (
"875 -20 OFFCURVE",
"1027 207 OFFCURVE",
"1027 530 CURVE SMOOTH",
"1027 551 LINE SMOOTH",
"1027 887 OFFCURVE",
"876 1102 OFFCURVE",
"612 1102 CURVE SMOOTH",
"463 1102 OFFCURVE",
"350 1044 OFFCURVE",
"273 929 CURVE",
"267 1082 LINE",
"155 1082 LINE",
"155 -416 LINE",
"275 -416 LINE",
"275 137 LINE",
"354 32 OFFCURVE",
"467 -20 OFFCURVE",
"614 -20 CURVE SMOOTH"
);
},
{
closed = 1;
nodes = (
"805 998 OFFCURVE",
"907 803 OFFCURVE",
"907 551 CURVE SMOOTH",
"907 530 LINE SMOOTH",
"907 278 OFFCURVE",
"804 82 OFFCURVE",
"587 82 CURVE SMOOTH",
"426 82 OFFCURVE",
"327 162 OFFCURVE",
"275 270 CURVE",
"275 792 LINE",
"322 900 OFFCURVE",
"413 998 OFFCURVE",
"585 998 CURVE SMOOTH"
);
}
);
width = 1135;
}
);
leftKerningGroup = m;
note = p;
rightKerningGroup = b;
unicode = 0070;
},
{
glyphname = q;
lastChange = "2017-05-28 09:41:24 +0000";
layers = (
{
hints = (
{
horizontal = 1;
origin = "{0, 0}";
type = Anchor;
},
{
horizontal = 1;
origin = "{0, 1}";
type = Anchor;
},
{
horizontal = 1;
origin = "{0, 2}";
type = Anchor;
},
{
horizontal = 1;
origin = "{0, 3}";
type = Anchor;
},
{
horizontal = 1;
origin = "{0, 4}";
type = Anchor;
},
{
horizontal = 1;
origin = "{0, 5}";
type = Anchor;
},
{
horizontal = 1;
origin = "{0, 6}";
type = Anchor;
},
{
horizontal = 1;
origin = "{0, 7}";
type = Anchor;
},
{
horizontal = 1;
origin = "{0, 8}";
type = Anchor;
},
{
horizontal = 1;
origin = "{0, 9}";
type = Anchor;
},
{
horizontal = 1;
origin = "{0, 10}";
type = Anchor;
},
{
horizontal = 1;
origin = "{0, 11}";
type = Anchor;
},
{
horizontal = 1;
origin = "{0, 12}";
type = Anchor;
},
{
horizontal = 1;
origin = "{0, 13}";
type = Anchor;
},
{
horizontal = 1;
origin = "{0, 14}";
type = Anchor;
},
{
horizontal = 1;
origin = "{0, 15}";
type = Anchor;
},
{
horizontal = 1;
origin = "{0, 16}";
type = Anchor;
},
{
horizontal = 1;
origin = "{0, 17}";
type = Anchor;
},
{
horizontal = 1;
origin = "{1, 0}";
type = Anchor;
},
{
horizontal = 1;
origin = "{1, 1}";
type = Anchor;
},
{
horizontal = 1;
origin = "{1, 2}";
type = Anchor;
},
{
horizontal = 1;
origin = "{1, 3}";
type = Anchor;
},
{
horizontal = 1;
origin = "{1, 4}";
type = Anchor;
},
{
horizontal = 1;
origin = "{1, 5}";
type = Anchor;
},
{
horizontal = 1;
origin = "{1, 6}";
type = Anchor;
},
{
horizontal = 1;
origin = "{1, 7}";
type = Anchor;
},
{
horizontal = 1;
origin = "{1, 8}";
type = Anchor;
},
{
horizontal = 1;
origin = "{1, 9}";
type = Anchor;
},
{
horizontal = 1;
origin = "{1, 10}";
type = Anchor;
},
{
horizontal = 1;
origin = "{1, 11}";
type = Anchor;
},
{
horizontal = 1;
origin = "{1, 12}";
type = Anchor;
},
{
horizontal = 1;
origin = "{1, 13}";
type = Anchor;
}
);
layerId = "10767FFE-EA3C-45A9-8421-483827593C6E";
paths = (
{
closed = 1;
nodes = (
"862 936 LINE",
"784 1047 OFFCURVE",
"673 1102 OFFCURVE",
"528 1102 CURVE SMOOTH",
"264 1102 OFFCURVE",
"109 887 OFFCURVE",
"109 551 CURVE SMOOTH",
"109 518 LINE SMOOTH",
"113 202 OFFCURVE",
"267 -20 OFFCURVE",
"526 -20 CURVE SMOOTH",
"670 -20 OFFCURVE",
"781 31 OFFCURVE",
"860 134 CURVE",
"860 -416 LINE",
"979 -416 LINE",
"979 1082 LINE",
"867 1082 LINE"
);
},
{
closed = 1;
nodes = (
"229 803 OFFCURVE",
"331 1000 OFFCURVE",
"551 1000 CURVE SMOOTH",
"718 1000 OFFCURVE",
"811 903 OFFCURVE",
"860 798 CURVE",
"860 270 LINE",
"805 162 OFFCURVE",
"708 82 OFFCURVE",
"549 82 CURVE SMOOTH",
"332 82 OFFCURVE",
"229 278 OFFCURVE",
"229 530 CURVE SMOOTH",
"229 551 LINE SMOOTH"
);
}
);
width = 1143;
}
);
leftKerningGroup = c;
note = q;
unicode = 0071;
},
{
glyphname = r;
lastChange = "2017-05-28 09:41:22 +0000";
layers = (
{
hints = (
{
horizontal = 1;
origin = "{0, 0}";
type = Anchor;
},
{
horizontal = 1;
origin = "{0, 1}";
type = Anchor;
},
{
horizontal = 1;
origin = "{0, 2}";
type = Anchor;
},
{
horizontal = 1;
origin = "{0, 3}";
type = Anchor;
},
{
horizontal = 1;
origin = "{0, 4}";
type = Anchor;
},
{
horizontal = 1;
origin = "{0, 5}";
type = Anchor;
},
{
horizontal = 1;
origin = "{0, 6}";
type = Anchor;
},
{
horizontal = 1;
origin = "{0, 7}";
type = Anchor;
},
{
horizontal = 1;
origin = "{0, 8}";
type = Anchor;
},
{
horizontal = 1;
origin = "{0, 9}";
type = Anchor;
},
{
horizontal = 1;
origin = "{0, 10}";
type = Anchor;
},
{
horizontal = 1;
origin = "{0, 11}";
type = Anchor;
},
{
horizontal = 1;
origin = "{0, 12}";
type = Anchor;
},
{
horizontal = 1;
origin = "{0, 13}";
type = Anchor;
},
{
horizontal = 1;
origin = "{0, 14}";
type = Anchor;
},
{
horizontal = 1;
origin = "{0, 15}";
type = Anchor;
},
{
horizontal = 1;
origin = "{0, 16}";
type = Anchor;
},
{
horizontal = 1;
origin = "{0, 17}";
type = Anchor;
}
);
layerId = "10767FFE-EA3C-45A9-8421-483827593C6E";
paths = (
{
closed = 1;
nodes = (
"598 988 OFFCURVE",
"625 986 OFFCURVE",
"656 981 CURVE",
"660 1090 LINE",
"639 1098 OFFCURVE",
"612 1102 OFFCURVE",
"580 1102 CURVE SMOOTH",
"441 1102 OFFCURVE",
"340 1039 OFFCURVE",
"276 913 CURVE",
"273 1082 LINE",
"156 1082 LINE",
"156 0 LINE",
"276 0 LINE",
"276 746 LINE",
"316 889 OFFCURVE",
"415 988 OFFCURVE",
"576 988 CURVE SMOOTH"
);
}
);
width = 690;
}
);
note = r;
rightKerningGroup = r;
unicode = 0072;
},
{
glyphname = s;
lastChange = "2017-05-28 09:41:17 +0000";
layers = (
{
hints = (
{
horizontal = 1;
origin = "{0, 0}";
type = Anchor;
},
{
horizontal = 1;
origin = "{0, 1}";
type = Anchor;
},
{
horizontal = 1;
origin = "{0, 2}";
type = Anchor;
},
{
horizontal = 1;
origin = "{0, 3}";
type = Anchor;
},
{
horizontal = 1;
origin = "{0, 4}";
type = Anchor;
},
{
horizontal = 1;
origin = "{0, 5}";
type = Anchor;
},
{
horizontal = 1;
origin = "{0, 6}";
type = Anchor;
},
{
horizontal = 1;
origin = "{0, 7}";
type = Anchor;
},
{
horizontal = 1;
origin = "{0, 8}";
type = Anchor;
},
{
horizontal = 1;
origin = "{0, 9}";
type = Anchor;
},
{
horizontal = 1;
origin = "{0, 10}";
type = Anchor;
},
{
horizontal = 1;
origin = "{0, 11}";
type = Anchor;
},
{
horizontal = 1;
origin = "{0, 12}";
type = Anchor;
},
{
horizontal = 1;
origin = "{0, 13}";
type = Anchor;
},
{
horizontal = 1;
origin = "{0, 14}";
type = Anchor;
},
{
horizontal = 1;
origin = "{0, 15}";
type = Anchor;
},
{
horizontal = 1;
origin = "{0, 16}";
type = Anchor;
},
{
horizontal = 1;
origin = "{0, 17}";
type = Anchor;
},
{
horizontal = 1;
origin = "{0, 18}";
type = Anchor;
},
{
horizontal = 1;
origin = "{0, 19}";
type = Anchor;
},
{
horizontal = 1;
origin = "{0, 20}";
type = Anchor;
},
{
horizontal = 1;
origin = "{0, 21}";
type = Anchor;
},
{
horizontal = 1;
origin = "{0, 22}";
type = Anchor;
},
{
horizontal = 1;
origin = "{0, 23}";
type = Anchor;
},
{
horizontal = 1;
origin = "{0, 24}";
type = Anchor;
},
{
horizontal = 1;
origin = "{0, 25}";
type = Anchor;
},
{
horizontal = 1;
origin = "{0, 26}";
type = Anchor;
},
{
horizontal = 1;
origin = "{0, 27}";
type = Anchor;
},
{
horizontal = 1;
origin = "{0, 28}";
type = Anchor;
},
{
horizontal = 1;
origin = "{0, 29}";
type = Anchor;
},
{
horizontal = 1;
origin = "{0, 30}";
type = Anchor;
},
{
horizontal = 1;
origin = "{0, 31}";
type = Anchor;
},
{
horizontal = 1;
origin = "{0, 32}";
type = Anchor;
},
{
horizontal = 1;
origin = "{0, 33}";
type = Anchor;
},
{
horizontal = 1;
origin = "{0, 34}";
type = Anchor;
},
{
horizontal = 1;
origin = "{0, 35}";
type = Anchor;
},
{
horizontal = 1;
origin = "{0, 36}";
type = Anchor;
},
{
horizontal = 1;
origin = "{0, 37}";
type = Anchor;
},
{
horizontal = 1;
origin = "{0, 38}";
type = Anchor;
},
{
horizontal = 1;
origin = "{0, 39}";
type = Anchor;
},
{
horizontal = 1;
origin = "{0, 40}";
type = Anchor;
},
{
horizontal = 1;
origin = "{0, 41}";
type = Anchor;
},
{
horizontal = 1;
origin = "{0, 42}";
type = Anchor;
},
{
horizontal = 1;
origin = "{0, 43}";
type = Anchor;
}
);
layerId = "10767FFE-EA3C-45A9-8421-483827593C6E";
paths = (
{
closed = 1;
nodes = (
"805 175 OFFCURVE",
"707 82 OFFCURVE",
"526 82 CURVE SMOOTH",
"389 82 OFFCURVE",
"232 133 OFFCURVE",
"221 304 CURVE",
"102 304 LINE",
"102 135 OFFCURVE",
"251 -20 OFFCURVE",
"526 -20 CURVE SMOOTH",
"769 -20 OFFCURVE",
"925 103 OFFCURVE",
"925 282 CURVE SMOOTH",
"925 467 OFFCURVE",
"786 546 OFFCURVE",
"544 602 CURVE SMOOTH",
"423 629 OFFCURVE",
"345 659 OFFCURVE",
"310 692 CURVE SMOOTH",
"275 725 OFFCURVE",
"257 765 OFFCURVE",
"257 812 CURVE SMOOTH",
"257 903 OFFCURVE",
"332 1000 OFFCURVE",
"519 1000 CURVE SMOOTH",
"699 1000 OFFCURVE",
"798 891 OFFCURVE",
"798 779 CURVE",
"919 779 LINE",
"919 964 OFFCURVE",
"770 1102 OFFCURVE",
"519 1102 CURVE SMOOTH",
"284 1102 OFFCURVE",
"138 969 OFFCURVE",
"138 808 CURVE SMOOTH",
"138 629 OFFCURVE",
"274 555 OFFCURVE",
"515 504 CURVE SMOOTH",
"636 479 OFFCURVE",
"714 446 OFFCURVE",
"751 405 CURVE SMOOTH",
"787 364 OFFCURVE",
"805 321 OFFCURVE",
"805 276 CURVE SMOOTH"
);
}
);
width = 1038;
}
);
leftKerningGroup = s;
note = s;
unicode = 0073;
},
{
glyphname = t;
lastChange = "2017-05-28 09:41:14 +0000";
layers = (
{
hints = (
{
horizontal = 1;
origin = "{0, 0}";
type = Anchor;
},
{
horizontal = 1;
origin = "{0, 1}";
type = Anchor;
},
{
horizontal = 1;
origin = "{0, 2}";
type = Anchor;
},
{
horizontal = 1;
origin = "{0, 3}";
type = Anchor;
},
{
horizontal = 1;
origin = "{0, 4}";
type = Anchor;
},
{
horizontal = 1;
origin = "{0, 5}";
type = Anchor;
},
{
horizontal = 1;
origin = "{0, 6}";
type = Anchor;
},
{
horizontal = 1;
origin = "{0, 7}";
type = Anchor;
},
{
horizontal = 1;
origin = "{0, 8}";
type = Anchor;
},
{
horizontal = 1;
origin = "{0, 9}";
type = Anchor;
},
{
horizontal = 1;
origin = "{0, 10}";
type = Anchor;
},
{
horizontal = 1;
origin = "{0, 11}";
type = Anchor;
},
{
horizontal = 1;
origin = "{0, 12}";
type = Anchor;
},
{
horizontal = 1;
origin = "{0, 13}";
type = Anchor;
},
{
horizontal = 1;
origin = "{0, 14}";
type = Anchor;
},
{
horizontal = 1;
origin = "{0, 15}";
type = Anchor;
},
{
horizontal = 1;
origin = "{0, 16}";
type = Anchor;
},
{
horizontal = 1;
origin = "{0, 17}";
type = Anchor;
},
{
horizontal = 1;
origin = "{0, 18}";
type = Anchor;
},
{
horizontal = 1;
origin = "{0, 19}";
type = Anchor;
},
{
horizontal = 1;
origin = "{0, 20}";
type = Anchor;
},
{
horizontal = 1;
origin = "{0, 21}";
type = Anchor;
},
{
horizontal = 1;
origin = "{0, 22}";
type = Anchor;
},
{
horizontal = 1;
origin = "{0, 23}";
type = Anchor;
}
);
layerId = "10767FFE-EA3C-45A9-8421-483827593C6E";
paths = (
{
closed = 1;
nodes = (
"542 89 OFFCURVE",
"510 85 OFFCURVE",
"483 85 CURVE SMOOTH",
"410 85 OFFCURVE",
"343 112 OFFCURVE",
"343 264 CURVE SMOOTH",
"343 984 LINE",
"566 984 LINE",
"566 1082 LINE",
"343 1082 LINE",
"343 1360 LINE",
"222 1360 LINE",
"222 1082 LINE",
"24 1082 LINE",
"24 984 LINE",
"222 984 LINE",
"222 264 LINE SMOOTH",
"222 47 OFFCURVE",
"319 -20 OFFCURVE",
"458 -20 CURVE SMOOTH",
"513 -20 OFFCURVE",
"555 -15 OFFCURVE",
"586 -4 CURVE",
"581 96 LINE"
);
}
);
width = 659;
}
);
note = t;
unicode = 0074;
},
{
glyphname = u;
lastChange = "2017-05-28 09:41:12 +0000";
layers = (
{
hints = (
{
horizontal = 1;
origin = "{0, 0}";
type = Anchor;
},
{
horizontal = 1;
origin = "{0, 1}";
type = Anchor;
},
{
horizontal = 1;
origin = "{0, 2}";
type = Anchor;
},
{
horizontal = 1;
origin = "{0, 3}";
type = Anchor;
},
{
horizontal = 1;
origin = "{0, 4}";
type = Anchor;
},
{
horizontal = 1;
origin = "{0, 5}";
type = Anchor;
},
{
horizontal = 1;
origin = "{0, 6}";
type = Anchor;
},
{
horizontal = 1;
origin = "{0, 7}";
type = Anchor;
},
{
horizontal = 1;
origin = "{0, 8}";
type = Anchor;
},
{
horizontal = 1;
origin = "{0, 9}";
type = Anchor;
},
{
horizontal = 1;
origin = "{0, 10}";
type = Anchor;
},
{
horizontal = 1;
origin = "{0, 11}";
type = Anchor;
},
{
horizontal = 1;
origin = "{0, 12}";
type = Anchor;
},
{
horizontal = 1;
origin = "{0, 13}";
type = Anchor;
},
{
horizontal = 1;
origin = "{0, 14}";
type = Anchor;
},
{
horizontal = 1;
origin = "{0, 15}";
type = Anchor;
},
{
horizontal = 1;
origin = "{0, 16}";
type = Anchor;
},
{
horizontal = 1;
origin = "{0, 17}";
type = Anchor;
},
{
horizontal = 1;
origin = "{0, 18}";
type = Anchor;
},
{
horizontal = 1;
origin = "{0, 19}";
type = Anchor;
}
);
layerId = "10767FFE-EA3C-45A9-8421-483827593C6E";
paths = (
{
closed = 1;
nodes = (
"970 1082 LINE",
"850 1082 LINE",
"850 297 LINE",
"810 174 OFFCURVE",
"713 84 OFFCURVE",
"522 84 CURVE SMOOTH",
"385 84 OFFCURVE",
"272 157 OFFCURVE",
"272 388 CURVE SMOOTH",
"272 1082 LINE",
"152 1082 LINE",
"152 385 LINE SMOOTH",
"153 93 OFFCURVE",
"297 -20 OFFCURVE",
"508 -20 CURVE SMOOTH",
"665 -20 OFFCURVE",
"780 32 OFFCURVE",
"852 137 CURVE",
"855 0 LINE",
"970 0 LINE"
);
}
);
width = 1125;
}
);
leftKerningGroup = u;
note = u;
unicode = 0075;
},
{
glyphname = v;
lastChange = "2017-05-28 09:41:09 +0000";
layers = (
{
hints = (
{
horizontal = 1;
origin = "{0, 0}";
type = Anchor;
},
{
horizontal = 1;
origin = "{0, 1}";
type = Anchor;
},
{
horizontal = 1;
origin = "{0, 2}";
type = Anchor;
},
{
horizontal = 1;
origin = "{0, 3}";
type = Anchor;
},
{
horizontal = 1;
origin = "{0, 4}";
type = Anchor;
},
{
horizontal = 1;
origin = "{0, 5}";
type = Anchor;
},
{
horizontal = 1;
origin = "{0, 6}";
type = Anchor;
}
);
layerId = "10767FFE-EA3C-45A9-8421-483827593C6E";
paths = (
{
closed = 1;
nodes = (
"494 164 LINE",
"162 1082 LINE",
"38 1082 LINE",
"444 0 LINE",
"541 0 LINE",
"946 1082 LINE",
"822 1082 LINE"
);
}
);
width = 985;
}
);
leftKerningGroup = v;
note = v;
rightKerningGroup = v;
unicode = 0076;
},
{
glyphname = w;
lastChange = "2017-05-28 09:41:07 +0000";
layers = (
{
hints = (
{
horizontal = 1;
origin = "{0, 0}";
type = Anchor;
},
{
horizontal = 1;
origin = "{0, 1}";
type = Anchor;
},
{
horizontal = 1;
origin = "{0, 2}";
type = Anchor;
},
{
horizontal = 1;
origin = "{0, 3}";
type = Anchor;
},
{
horizontal = 1;
origin = "{0, 4}";
type = Anchor;
},
{
horizontal = 1;
origin = "{0, 5}";
type = Anchor;
},
{
horizontal = 1;
origin = "{0, 6}";
type = Anchor;
},
{
horizontal = 1;
origin = "{0, 7}";
type = Anchor;
},
{
horizontal = 1;
origin = "{0, 8}";
type = Anchor;
},
{
horizontal = 1;
origin = "{0, 9}";
type = Anchor;
},
{
horizontal = 1;
origin = "{0, 10}";
type = Anchor;
},
{
horizontal = 1;
origin = "{0, 11}";
type = Anchor;
},
{
horizontal = 1;
origin = "{0, 12}";
type = Anchor;
},
{
horizontal = 1;
origin = "{0, 13}";
type = Anchor;
},
{
horizontal = 1;
origin = "{0, 14}";
type = Anchor;
},
{
horizontal = 1;
origin = "{0, 15}";
type = Anchor;
},
{
horizontal = 1;
origin = "{0, 16}";
type = Anchor;
},
{
horizontal = 1;
origin = "{0, 17}";
type = Anchor;
},
{
horizontal = 1;
origin = "{0, 18}";
type = Anchor;
}
);
layerId = "10767FFE-EA3C-45A9-8421-483827593C6E";
paths = (
{
closed = 1;
nodes = (
"1127 252 LINE",
"1105 148 LINE",
"1076 261 LINE",
"820 1082 LINE",
"717 1082 LINE",
"457 254 LINE",
"434 158 LINE",
"416 249 LINE",
"186 1082 LINE",
"63 1082 LINE",
"377 0 LINE",
"479 0 LINE",
"752 858 LINE",
"766 918 LINE",
"778 859 LINE",
"1057 0 LINE",
"1159 0 LINE",
"1474 1082 LINE",
"1350 1082 LINE"
);
}
);
width = 1545;
}
);
note = w;
unicode = 0077;
},
{
glyphname = x;
lastChange = "2017-05-28 09:41:05 +0000";
layers = (
{
hints = (
{
horizontal = 1;
origin = "{0, 0}";
type = Anchor;
},
{
horizontal = 1;
origin = "{0, 1}";
type = Anchor;
},
{
horizontal = 1;
origin = "{0, 2}";
type = Anchor;
},
{
horizontal = 1;
origin = "{0, 3}";
type = Anchor;
},
{
horizontal = 1;
origin = "{0, 4}";
type = Anchor;
},
{
horizontal = 1;
origin = "{0, 5}";
type = Anchor;
},
{
horizontal = 1;
origin = "{0, 6}";
type = Anchor;
},
{
horizontal = 1;
origin = "{0, 7}";
type = Anchor;
},
{
horizontal = 1;
origin = "{0, 8}";
type = Anchor;
},
{
horizontal = 1;
origin = "{0, 9}";
type = Anchor;
},
{
horizontal = 1;
origin = "{0, 10}";
type = Anchor;
},
{
horizontal = 1;
origin = "{0, 11}";
type = Anchor;
}
);
layerId = "10767FFE-EA3C-45A9-8421-483827593C6E";
paths = (
{
closed = 1;
nodes = (
"431 551 LINE",
"48 0 LINE",
"190 0 LINE",
"497 458 LINE",
"806 0 LINE",
"946 0 LINE",
"564 551 LINE",
"931 1082 LINE",
"789 1082 LINE",
"496 644 LINE",
"205 1082 LINE",
"64 1082 LINE"
);
}
);
width = 997;
}
);
leftKerningGroup = x;
note = x;
rightKerningGroup = x;
unicode = 0078;
},
{
glyphname = y;
lastChange = "2017-05-28 09:41:02 +0000";
layers = (
{
hints = (
{
horizontal = 1;
origin = "{0, 0}";
type = Anchor;
},
{
horizontal = 1;
origin = "{0, 1}";
type = Anchor;
},
{
horizontal = 1;
origin = "{0, 2}";
type = Anchor;
},
{
horizontal = 1;
origin = "{0, 3}";
type = Anchor;
},
{
horizontal = 1;
origin = "{0, 4}";
type = Anchor;
},
{
horizontal = 1;
origin = "{0, 5}";
type = Anchor;
},
{
horizontal = 1;
origin = "{0, 6}";
type = Anchor;
},
{
horizontal = 1;
origin = "{0, 7}";
type = Anchor;
},
{
horizontal = 1;
origin = "{0, 8}";
type = Anchor;
},
{
horizontal = 1;
origin = "{0, 9}";
type = Anchor;
},
{
horizontal = 1;
origin = "{0, 10}";
type = Anchor;
},
{
horizontal = 1;
origin = "{0, 11}";
type = Anchor;
},
{
horizontal = 1;
origin = "{0, 12}";
type = Anchor;
},
{
horizontal = 1;
origin = "{0, 13}";
type = Anchor;
},
{
horizontal = 1;
origin = "{0, 14}";
type = Anchor;
},
{
horizontal = 1;
origin = "{0, 15}";
type = Anchor;
},
{
horizontal = 1;
origin = "{0, 16}";
type = Anchor;
},
{
horizontal = 1;
origin = "{0, 17}";
type = Anchor;
},
{
horizontal = 1;
origin = "{0, 18}";
type = Anchor;
},
{
horizontal = 1;
origin = "{0, 19}";
type = Anchor;
},
{
horizontal = 1;
origin = "{0, 20}";
type = Anchor;
},
{
horizontal = 1;
origin = "{0, 21}";
type = Anchor;
},
{
horizontal = 1;
origin = "{0, 22}";
type = Anchor;
}
);
layerId = "10767FFE-EA3C-45A9-8421-483827593C6E";
paths = (
{
closed = 1;
nodes = (
"249 -437 OFFCURVE",
"302 -422 OFFCURVE",
"342 -391 CURVE SMOOTH",
"422 -331 OFFCURVE",
"462 -239 OFFCURVE",
"486 -174 CURVE SMOOTH",
"944 1082 LINE",
"815 1082 LINE",
"500 172 LINE",
"163 1082 LINE",
"33 1082 LINE",
"441 9 LINE",
"387 -138 LINE SMOOTH",
"342 -265 OFFCURVE",
"283 -331 OFFCURVE",
"152 -331 CURVE SMOOTH",
"129 -331 OFFCURVE",
"108 -329 OFFCURVE",
"91 -324 CURVE",
"91 -424 LINE",
"117 -433 OFFCURVE",
"148 -437 OFFCURVE",
"183 -437 CURVE SMOOTH"
);
}
);
width = 974;
}
);
leftKerningGroup = v;
note = y;
rightKerningGroup = v;
unicode = 0079;
},
{
glyphname = z;
lastChange = "2017-05-28 09:40:57 +0000";
layers = (
{
hints = (
{
horizontal = 1;
origin = "{0, 0}";
type = Anchor;
},
{
horizontal = 1;
origin = "{0, 1}";
type = Anchor;
},
{
horizontal = 1;
origin = "{0, 2}";
type = Anchor;
},
{
horizontal = 1;
origin = "{0, 3}";
type = Anchor;
},
{
horizontal = 1;
origin = "{0, 4}";
type = Anchor;
},
{
horizontal = 1;
origin = "{0, 5}";
type = Anchor;
},
{
horizontal = 1;
origin = "{0, 6}";
type = Anchor;
},
{
horizontal = 1;
origin = "{0, 7}";
type = Anchor;
},
{
horizontal = 1;
origin = "{0, 8}";
type = Anchor;
},
{
horizontal = 1;
origin = "{0, 9}";
type = Anchor;
}
);
layerId = "10767FFE-EA3C-45A9-8421-483827593C6E";
paths = (
{
closed = 1;
nodes = (
"88 89 LINE",
"88 0 LINE",
"939 0 LINE",
"939 102 LINE",
"237 102 LINE",
"894 994 LINE",
"894 1082 LINE",
"108 1082 LINE",
"108 979 LINE",
"743 979 LINE"
);
}
);
width = 997;
}
);
leftKerningGroup = z;
note = z;
rightKerningGroup = z;
unicode = 007A;
},
{
glyphname = braceleft;
lastChange = "2017-04-17 14:53:26 +0000";
layers = (
{
layerId = "10767FFE-EA3C-45A9-8421-483827593C6E";
paths = (
{
closed = 1;
nodes = (
"223 543 OFFCURVE",
"300 455 OFFCURVE",
"300 279 CURVE SMOOTH",
"300 59 LINE SMOOTH",
"300 -150 OFFCURVE",
"380 -328 OFFCURVE",
"637 -405 CURVE",
"667 -325 LINE",
"490 -266 OFFCURVE",
"419 -124 OFFCURVE",
"419 59 CURVE SMOOTH",
"419 275 LINE SMOOTH",
"419 439 OFFCURVE",
"358 546 OFFCURVE",
"237 595 CURVE",
"358 646 OFFCURVE",
"419 752 OFFCURVE",
"419 914 CURVE SMOOTH",
"419 1132 LINE SMOOTH",
"419 1313 OFFCURVE",
"485 1462 OFFCURVE",
"664 1518 CURVE",
"637 1597 LINE",
"380 1520 OFFCURVE",
"300 1343 OFFCURVE",
"300 1132 CURVE SMOOTH",
"300 911 LINE SMOOTH",
"300 736 OFFCURVE",
"223 648 OFFCURVE",
"69 648 CURVE",
"69 543 LINE"
);
}
);
width = 677;
}
);
note = braceleft;
unicode = 007B;
},
{
glyphname = bar;
lastChange = "2017-04-17 14:53:26 +0000";
layers = (
{
layerId = "10767FFE-EA3C-45A9-8421-483827593C6E";
paths = (
{
closed = 1;
nodes = (
"178 -270 LINE",
"280 -270 LINE",
"280 1456 LINE",
"178 1456 LINE"
);
}
);
width = 453;
}
);
note = bar;
unicode = 007C;
},
{
glyphname = braceright;
lastChange = "2017-04-17 14:53:26 +0000";
layers = (
{
layerId = "10767FFE-EA3C-45A9-8421-483827593C6E";
paths = (
{
closed = 1;
nodes = (
"453 648 OFFCURVE",
"376 736 OFFCURVE",
"376 911 CURVE SMOOTH",
"376 1132 LINE SMOOTH",
"376 1343 OFFCURVE",
"298 1520 OFFCURVE",
"39 1597 CURVE",
"13 1518 LINE",
"190 1462 OFFCURVE",
"257 1313 OFFCURVE",
"257 1132 CURVE SMOOTH",
"257 914 LINE SMOOTH",
"257 749 OFFCURVE",
"321 642 OFFCURVE",
"450 595 CURVE",
"321 549 OFFCURVE",
"257 442 OFFCURVE",
"257 274 CURVE SMOOTH",
"257 65 LINE SMOOTH",
"257 -140 OFFCURVE",
"175 -270 OFFCURVE",
"10 -325 CURVE",
"39 -405 LINE",
"298 -328 OFFCURVE",
"376 -150 OFFCURVE",
"376 59 CURVE SMOOTH",
"376 279 LINE SMOOTH",
"376 455 OFFCURVE",
"453 543 OFFCURVE",
"607 543 CURVE",
"607 648 LINE"
);
}
);
width = 677;
}
);
note = braceright;
unicode = 007D;
},
{
glyphname = asciitilde;
lastChange = "2017-04-17 14:53:26 +0000";
layers = (
{
layerId = "10767FFE-EA3C-45A9-8421-483827593C6E";
paths = (
{
closed = 1;
nodes = (
"1150 622 OFFCURVE",
"1079 530 OFFCURVE",
"958 530 CURVE SMOOTH",
"886 530 OFFCURVE",
"835 556 OFFCURVE",
"739 644 CURVE SMOOTH",
"643 731 OFFCURVE",
"560 788 OFFCURVE",
"441 788 CURVE SMOOTH",
"253 788 OFFCURVE",
"146 638 OFFCURVE",
"146 449 CURVE",
"254 450 LINE",
"254 604 OFFCURVE",
"316 681 OFFCURVE",
"441 681 CURVE SMOOTH",
"516 681 OFFCURVE",
"561 656 OFFCURVE",
"661 568 CURVE SMOOTH",
"761 479 OFFCURVE",
"839 423 OFFCURVE",
"958 423 CURVE SMOOTH",
"1145 423 OFFCURVE",
"1255 581 OFFCURVE",
"1255 765 CURVE",
"1150 765 LINE"
);
}
);
width = 1403;
}
);
note = asciitilde;
unicode = 007E;
},
{
glyphname = exclamdown;
lastChange = "2017-04-17 14:53:26 +0000";
layers = (
{
layerId = "10767FFE-EA3C-45A9-8421-483827593C6E";
paths = (
{
closed = 1;
nodes = (
"306 1076 OFFCURVE",
"279 1102 OFFCURVE",
"224 1102 CURVE SMOOTH",
"169 1102 OFFCURVE",
"141 1076 OFFCURVE",
"141 1023 CURVE SMOOTH",
"141 969 OFFCURVE",
"169 942 OFFCURVE",
"224 942 CURVE SMOOTH",
"279 942 OFFCURVE",
"306 969 OFFCURVE",
"306 1023 CURVE SMOOTH"
);
},
{
closed = 1;
nodes = (
"286 690 LINE",
"175 690 LINE",
"168 -360 LINE",
"292 -360 LINE"
);
}
);
width = 453;
}
);
note = exclamdown;
unicode = 00A1;
},
{
glyphname = cent;
lastChange = "2017-04-17 14:53:26 +0000";
layers = (
{
layerId = "10767FFE-EA3C-45A9-8421-483827593C6E";
paths = (
{
closed = 1;
nodes = (
"870 170 OFFCURVE",
"731 82 OFFCURVE",
"580 82 CURVE SMOOTH",
"332 82 OFFCURVE",
"238 289 OFFCURVE",
"238 520 CURVE SMOOTH",
"238 562 LINE SMOOTH",
"238 791 OFFCURVE",
"334 1000 OFFCURVE",
"579 1000 CURVE SMOOTH",
"742 1000 OFFCURVE",
"873 893 OFFCURVE",
"882 718 CURVE",
"996 718 LINE",
"987 933 OFFCURVE",
"839 1076 OFFCURVE",
"636 1099 CURVE",
"636 1318 LINE",
"516 1318 LINE",
"516 1098 LINE",
"255 1067 OFFCURVE",
"119 845 OFFCURVE",
"119 562 CURVE SMOOTH",
"119 520 LINE SMOOTH",
"119 239 OFFCURVE",
"255 15 OFFCURVE",
"516 -16 CURVE",
"516 -245 LINE",
"636 -245 LINE",
"636 -17 LINE",
"831 6 OFFCURVE",
"987 146 OFFCURVE",
"996 335 CURVE",
"882 335 LINE"
);
}
);
width = 1115;
}
);
note = cent;
unicode = 00A2;
},
{
glyphname = sterling;
lastChange = "2017-04-17 14:53:26 +0000";
layers = (
{
layerId = "10767FFE-EA3C-45A9-8421-483827593C6E";
paths = (
{
closed = 1;
nodes = (
"1094 104 LINE",
"349 104 LINE",
"394 165 OFFCURVE",
"416 253 OFFCURVE",
"414 368 CURVE SMOOTH",
"405 645 LINE",
"746 645 LINE",
"746 750 LINE",
"401 750 LINE",
"392 1039 LINE",
"392 1254 OFFCURVE",
"503 1372 OFFCURVE",
"666 1372 CURVE SMOOTH",
"815 1372 OFFCURVE",
"945 1291 OFFCURVE",
"945 1088 CURVE",
"1067 1088 LINE",
"1067 1317 OFFCURVE",
"925 1476 OFFCURVE",
"674 1476 CURVE SMOOTH",
"435 1476 OFFCURVE",
"269 1315 OFFCURVE",
"269 1039 CURVE SMOOTH",
"278 750 LINE",
"93 750 LINE",
"93 645 LINE",
"281 645 LINE",
"290 368 LINE SMOOTH",
"293 263 OFFCURVE",
"265 124 OFFCURVE",
"196 104 CURVE",
"97 104 LINE",
"97 0 LINE",
"1094 0 LINE"
);
}
);
width = 1170;
}
);
note = sterling;
unicode = 00A3;
},
{
glyphname = currency;
lastChange = "2017-04-17 14:53:26 +0000";
layers = (
{
layerId = "10767FFE-EA3C-45A9-8421-483827593C6E";
paths = (
{
closed = 1;
nodes = (
"1295 337 OFFCURVE",
"1335 465 OFFCURVE",
"1335 608 CURVE SMOOTH",
"1335 758 OFFCURVE",
"1292 890 OFFCURVE",
"1205 1003 CURVE",
"1376 1178 LINE",
"1289 1265 LINE",
"1120 1093 LINE",
"1011 1187 OFFCURVE",
"884 1234 OFFCURVE",
"740 1234 CURVE SMOOTH",
"597 1234 OFFCURVE",
"471 1187 OFFCURVE",
"362 1094 CURVE",
"195 1264 LINE",
"110 1178 LINE",
"278 1006 LINE",
"189 891 OFFCURVE",
"145 759 OFFCURVE",
"145 608 CURVE SMOOTH",
"145 463 OFFCURVE",
"186 335 OFFCURVE",
"269 222 CURVE",
"110 60 LINE",
"195 -26 LINE",
"350 132 LINE",
"461 31 OFFCURVE",
"591 -20 OFFCURVE",
"740 -20 CURVE SMOOTH",
"891 -20 OFFCURVE",
"1028 37 OFFCURVE",
"1132 133 CURVE",
"1289 -27 LINE",
"1376 60 LINE",
"1214 225 LINE"
);
},
{
closed = 1;
nodes = (
"258 703 OFFCURVE",
"280 789 OFFCURVE",
"324 867 CURVE SMOOTH",
"411 1023 OFFCURVE",
"564 1123 OFFCURVE",
"740 1123 CURVE SMOOTH",
"1004 1123 OFFCURVE",
"1221 891 OFFCURVE",
"1221 608 CURVE SMOOTH",
"1221 513 OFFCURVE",
"1199 426 OFFCURVE",
"1156 348 CURVE SMOOTH",
"1068 191 OFFCURVE",
"916 91 OFFCURVE",
"740 91 CURVE SMOOTH",
"475 91 OFFCURVE",
"258 324 OFFCURVE",
"258 608 CURVE SMOOTH"
);
}
);
width = 1481;
}
);
note = currency;
unicode = 00A4;
},
{
glyphname = yen;
lastChange = "2017-04-17 14:53:26 +0000";
layers = (
{
layerId = "10767FFE-EA3C-45A9-8421-483827593C6E";
paths = (
{
closed = 1;
nodes = (
"587 413 LINE",
"587 617 LINE",
"945 617 LINE",
"945 706 LINE",
"631 706 LINE",
"1030 1456 LINE",
"893 1456 LINE",
"528 731 LINE",
"163 1456 LINE",
"24 1456 LINE",
"423 706 LINE",
"109 706 LINE",
"109 617 LINE",
"463 617 LINE",
"463 413 LINE",
"109 413 LINE",
"109 324 LINE",
"463 324 LINE",
"463 0 LINE",
"587 0 LINE",
"587 324 LINE",
"945 324 LINE",
"945 413 LINE"
);
}
);
width = 1057;
}
);
note = yen;
unicode = 00A5;
},
{
glyphname = brokenbar;
lastChange = "2017-04-17 14:53:26 +0000";
layers = (
{
layerId = "10767FFE-EA3C-45A9-8421-483827593C6E";
paths = (
{
closed = 1;
nodes = (
"160 698 LINE",
"280 698 LINE",
"280 1456 LINE",
"160 1456 LINE"
);
},
{
closed = 1;
nodes = (
"160 501 LINE",
"160 -270 LINE",
"280 -270 LINE",
"280 501 LINE"
);
}
);
width = 445;
}
);
note = brokenbar;
unicode = 00A6;
},
{
glyphname = section;
lastChange = "2017-04-17 14:53:26 +0000";
layers = (
{
layerId = "10767FFE-EA3C-45A9-8421-483827593C6E";
paths = (
{
closed = 1;
nodes = (
"1075 9 OFFCURVE",
"1010 96 OFFCURVE",
"887 159 CURVE",
"1032 203 OFFCURVE",
"1120 299 OFFCURVE",
"1120 431 CURVE SMOOTH",
"1120 439 LINE",
"1116 667 OFFCURVE",
"948 748 OFFCURVE",
"660 826 CURVE SMOOTH",
"372 904 OFFCURVE",
"274 962 OFFCURVE",
"274 1123 CURVE SMOOTH",
"274 1260 OFFCURVE",
"381 1375 OFFCURVE",
"624 1375 CURVE SMOOTH",
"853 1375 OFFCURVE",
"978 1228 OFFCURVE",
"978 1045 CURVE",
"1097 1045 LINE",
"1097 1324 OFFCURVE",
"919 1476 OFFCURVE",
"624 1476 CURVE SMOOTH",
"339 1476 OFFCURVE",
"154 1335 OFFCURVE",
"154 1120 CURVE SMOOTH",
"154 977 OFFCURVE",
"217 889 OFFCURVE",
"332 826 CURVE",
"183 779 OFFCURVE",
"109 687 OFFCURVE",
"109 551 CURVE SMOOTH",
"109 314 OFFCURVE",
"293 220 OFFCURVE",
"585 147 CURVE SMOOTH",
"731 106 OFFCURVE",
"829 65 OFFCURVE",
"880 24 CURVE SMOOTH",
"930 -17 OFFCURVE",
"955 -72 OFFCURVE",
"955 -141 CURVE SMOOTH",
"955 -286 OFFCURVE",
"829 -393 OFFCURVE",
"606 -393 CURVE SMOOTH",
"546 -393 OFFCURVE",
"487 -383 OFFCURVE",
"428 -362 CURVE SMOOTH",
"311 -322 OFFCURVE",
"223 -230 OFFCURVE",
"223 -62 CURVE",
"103 -64 LINE",
"103 -172 OFFCURVE",
"128 -257 OFFCURVE",
"177 -320 CURVE SMOOTH",
"276 -445 OFFCURVE",
"441 -495 OFFCURVE",
"606 -495 CURVE SMOOTH",
"890 -495 OFFCURVE",
"1075 -364 OFFCURVE",
"1075 -139 CURVE SMOOTH"
);
},
{
closed = 1;
nodes = (
"484 291 OFFCURVE",
"372 334 OFFCURVE",
"315 374 CURVE SMOOTH",
"258 413 OFFCURVE",
"229 473 OFFCURVE",
"229 553 CURVE SMOOTH",
"229 665 OFFCURVE",
"300 753 OFFCURVE",
"456 772 CURVE",
"495 758 OFFCURVE",
"542 744 OFFCURVE",
"596 730 CURVE SMOOTH",
"751 685 OFFCURVE",
"857 642 OFFCURVE",
"914 600 CURVE SMOOTH",
"971 558 OFFCURVE",
"1000 501 OFFCURVE",
"1000 428 CURVE SMOOTH",
"1000 320 OFFCURVE",
"911 233 OFFCURVE",
"754 214 CURVE",
"649 246 LINE SMOOTH"
);
}
);
width = 1240;
}
);
note = section;
unicode = 00A7;
},
{
glyphname = dieresis;
lastChange = "2017-04-17 14:53:26 +0000";
layers = (
{
layerId = "10767FFE-EA3C-45A9-8421-483827593C6E";
paths = (
{
closed = 1;
nodes = (
"138 1344 OFFCURVE",
"165 1317 OFFCURVE",
"220 1317 CURVE SMOOTH",
"275 1317 OFFCURVE",
"303 1344 OFFCURVE",
"303 1397 CURVE SMOOTH",
"303 1450 OFFCURVE",
"275 1477 OFFCURVE",
"220 1477 CURVE SMOOTH",
"165 1477 OFFCURVE",
"138 1450 OFFCURVE",
"138 1397 CURVE SMOOTH"
);
},
{
closed = 1;
nodes = (
"575 1343 OFFCURVE",
"602 1317 OFFCURVE",
"657 1317 CURVE SMOOTH",
"712 1317 OFFCURVE",
"740 1343 OFFCURVE",
"740 1396 CURVE SMOOTH",
"740 1450 OFFCURVE",
"712 1477 OFFCURVE",
"657 1477 CURVE SMOOTH",
"602 1477 OFFCURVE",
"575 1450 OFFCURVE",
"575 1396 CURVE SMOOTH"
);
}
);
width = 881;
}
);
note = dieresis;
unicode = 00A8;
},
{
glyphname = copyright;
lastChange = "2017-04-17 14:53:26 +0000";
layers = (
{
layerId = "10767FFE-EA3C-45A9-8421-483827593C6E";
paths = (
{
closed = 1;
nodes = (
"107 588 OFFCURVE",
"139 461 OFFCURVE",
"203 348 CURVE SMOOTH",
"331 121 OFFCURVE",
"557 -21 OFFCURVE",
"817 -21 CURVE SMOOTH",
"948 -21 OFFCURVE",
"1067 12 OFFCURVE",
"1174 79 CURVE SMOOTH",
"1389 211 OFFCURVE",
"1527 448 OFFCURVE",
"1527 729 CURVE SMOOTH",
"1527 870 OFFCURVE",
"1495 997 OFFCURVE",
"1431 1110 CURVE SMOOTH",
"1303 1336 OFFCURVE",
"1078 1476 OFFCURVE",
"817 1476 CURVE SMOOTH",
"687 1476 OFFCURVE",
"568 1443 OFFCURVE",
"461 1378 CURVE SMOOTH",
"245 1246 OFFCURVE",
"107 1010 OFFCURVE",
"107 729 CURVE SMOOTH"
);
},
{
closed = 1;
nodes = (
"193 853 OFFCURVE",
"221 965 OFFCURVE",
"278 1065 CURVE SMOOTH",
"390 1264 OFFCURVE",
"589 1390 OFFCURVE",
"817 1390 CURVE SMOOTH",
"931 1390 OFFCURVE",
"1035 1361 OFFCURVE",
"1130 1302 CURVE SMOOTH",
"1319 1185 OFFCURVE",
"1441 977 OFFCURVE",
"1441 729 CURVE SMOOTH",
"1441 605 OFFCURVE",
"1413 493 OFFCURVE",
"1357 393 CURVE SMOOTH",
"1244 192 OFFCURVE",
"1045 66 OFFCURVE",
"817 66 CURVE SMOOTH",
"703 66 OFFCURVE",
"599 95 OFFCURVE",
"504 154 CURVE SMOOTH",
"315 271 OFFCURVE",
"193 481 OFFCURVE",
"193 729 CURVE SMOOTH"
);
},
{
closed = 1;
nodes = (
"1023 458 OFFCURVE",
"951 384 OFFCURVE",
"807 384 CURVE SMOOTH",
"656 384 OFFCURVE",
"574 509 OFFCURVE",
"574 680 CURVE SMOOTH",
"574 778 LINE SMOOTH",
"574 946 OFFCURVE",
"656 1074 OFFCURVE",
"807 1074 CURVE SMOOTH",
"952 1074 OFFCURVE",
"1024 1000 OFFCURVE",
"1024 851 CURVE",
"1123 851 LINE",
"1123 1060 OFFCURVE",
"999 1164 OFFCURVE",
"807 1164 CURVE SMOOTH",
"606 1164 OFFCURVE",
"474 1006 OFFCURVE",
"474 777 CURVE SMOOTH",
"474 680 LINE SMOOTH",
"474 451 OFFCURVE",
"606 293 OFFCURVE",
"807 293 CURVE SMOOTH",
"999 293 OFFCURVE",
"1122 398 OFFCURVE",
"1122 607 CURVE",
"1023 607 LINE"
);
}
);
width = 1638;
}
);
note = copyright;
unicode = 00A9;
},
{
glyphname = ordfeminine;
lastChange = "2017-04-17 14:53:26 +0000";
layers = (
{
layerId = "10767FFE-EA3C-45A9-8421-483827593C6E";
paths = (
{
closed = 1;
nodes = (
"744 761 OFFCURVE",
"735 821 OFFCURVE",
"735 886 CURVE SMOOTH",
"735 1200 LINE SMOOTH",
"735 1383 OFFCURVE",
"625 1476 OFFCURVE",
"464 1476 CURVE SMOOTH",
"283 1476 OFFCURVE",
"164 1378 OFFCURVE",
"164 1243 CURVE",
"272 1237 LINE",
"272 1333 OFFCURVE",
"347 1380 OFFCURVE",
"464 1380 CURVE SMOOTH",
"572 1380 OFFCURVE",
"626 1320 OFFCURVE",
"626 1201 CURVE SMOOTH",
"626 1141 LINE",
"468 1141 LINE SMOOTH",
"261 1136 OFFCURVE",
"158 1059 OFFCURVE",
"158 909 CURVE SMOOTH",
"158 778 OFFCURVE",
"246 691 OFFCURVE",
"407 691 CURVE SMOOTH",
"508 691 OFFCURVE",
"585 742 OFFCURVE",
"629 799 CURVE",
"633 766 OFFCURVE",
"640 734 OFFCURVE",
"649 705 CURVE",
"761 705 LINE"
);
},
{
closed = 1;
nodes = (
"320 787 OFFCURVE",
"266 829 OFFCURVE",
"266 913 CURVE SMOOTH",
"266 1008 OFFCURVE",
"337 1056 OFFCURVE",
"479 1058 CURVE SMOOTH",
"626 1058 LINE",
"626 891 LINE",
"590 838 OFFCURVE",
"504 787 OFFCURVE",
"427 787 CURVE SMOOTH"
);
}
);
width = 907;
}
);
note = ordfeminine;
unicode = 00AA;
},
{
glyphname = guillemotleft;
lastChange = "2017-04-17 14:53:26 +0000";
layers = (
{
layerId = "10767FFE-EA3C-45A9-8421-483827593C6E";
paths = (
{
closed = 1;
nodes = (
"248 536 LINE",
"524 925 LINE",
"418 925 LINE",
"123 546 LINE",
"123 527 LINE",
"418 148 LINE",
"524 148 LINE"
);
},
{
closed = 1;
nodes = (
"557 536 LINE",
"833 925 LINE",
"727 925 LINE",
"432 546 LINE",
"432 527 LINE",
"727 148 LINE",
"833 148 LINE"
);
}
);
width = 933;
}
);
note = guillemotleft;
unicode = 00AB;
},
{
glyphname = logicalnot;
lastChange = "2017-04-17 14:53:26 +0000";
layers = (
{
layerId = "10767FFE-EA3C-45A9-8421-483827593C6E";
paths = (
{
closed = 1;
nodes = (
"817 670 LINE",
"817 386 LINE",
"937 386 LINE",
"937 776 LINE",
"125 776 LINE",
"125 670 LINE"
);
}
);
width = 1118;
}
);
note = logicalnot;
unicode = 00AC;
},
{
glyphname = registered;
lastChange = "2017-04-17 14:53:26 +0000";
layers = (
{
layerId = "10767FFE-EA3C-45A9-8421-483827593C6E";
paths = (
{
closed = 1;
nodes = (
"103 588 OFFCURVE",
"135 461 OFFCURVE",
"199 348 CURVE SMOOTH",
"327 121 OFFCURVE",
"552 -21 OFFCURVE",
"813 -21 CURVE SMOOTH",
"943 -21 OFFCURVE",
"1062 12 OFFCURVE",
"1169 79 CURVE SMOOTH",
"1384 211 OFFCURVE",
"1522 448 OFFCURVE",
"1522 729 CURVE SMOOTH",
"1522 870 OFFCURVE",
"1490 997 OFFCURVE",
"1426 1110 CURVE SMOOTH",
"1298 1336 OFFCURVE",
"1073 1476 OFFCURVE",
"813 1476 CURVE SMOOTH",
"682 1476 OFFCURVE",
"563 1443 OFFCURVE",
"456 1378 CURVE SMOOTH",
"241 1246 OFFCURVE",
"103 1010 OFFCURVE",
"103 729 CURVE SMOOTH"
);
},
{
closed = 1;
nodes = (
"188 853 OFFCURVE",
"216 965 OFFCURVE",
"273 1065 CURVE SMOOTH",
"385 1264 OFFCURVE",
"584 1390 OFFCURVE",
"813 1390 CURVE SMOOTH",
"927 1390 OFFCURVE",
"1031 1361 OFFCURVE",
"1126 1302 CURVE SMOOTH",
"1315 1185 OFFCURVE",
"1437 977 OFFCURVE",
"1437 729 CURVE SMOOTH",
"1437 605 OFFCURVE",
"1409 493 OFFCURVE",
"1353 393 CURVE SMOOTH",
"1240 192 OFFCURVE",
"1041 66 OFFCURVE",
"813 66 CURVE SMOOTH",
"698 66 OFFCURVE",
"594 95 OFFCURVE",
"499 154 CURVE SMOOTH",
"310 271 OFFCURVE",
"188 481 OFFCURVE",
"188 729 CURVE SMOOTH"
);
},
{
closed = 1;
nodes = (
"958 667 OFFCURVE",
"1004 622 OFFCURVE",
"1004 505 CURVE SMOOTH",
"1004 407 OFFCURVE",
"1009 346 OFFCURVE",
"1018 322 CURVE",
"1120 322 LINE",
"1120 338 LINE",
"1109 366 OFFCURVE",
"1103 423 OFFCURVE",
"1103 508 CURVE SMOOTH",
"1103 617 OFFCURVE",
"1060 687 OFFCURVE",
"974 716 CURVE",
"1069 759 OFFCURVE",
"1116 824 OFFCURVE",
"1116 913 CURVE SMOOTH",
"1116 1078 OFFCURVE",
"1014 1161 OFFCURVE",
"810 1161 CURVE SMOOTH",
"553 1161 LINE",
"553 322 LINE",
"651 322 LINE",
"651 667 LINE",
"838 667 LINE SMOOTH"
);
},
{
closed = 1;
nodes = (
"966 1070 OFFCURVE",
"1018 1023 OFFCURVE",
"1018 911 CURVE SMOOTH",
"1018 811 OFFCURVE",
"932 759 OFFCURVE",
"831 758 CURVE SMOOTH",
"651 758 LINE",
"651 1070 LINE",
"810 1070 LINE SMOOTH"
);
}
);
width = 1642;
}
);
note = registered;
unicode = 00AE;
},
{
glyphname = macron;
lastChange = "2017-04-17 14:53:26 +0000";
layers = (
{
layerId = "10767FFE-EA3C-45A9-8421-483827593C6E";
paths = (
{
closed = 1;
nodes = (
"137 1344 LINE",
"757 1344 LINE",
"757 1441 LINE",
"137 1441 LINE"
);
}
);
width = 875;
}
);
note = macron;
unicode = 00AF;
},
{
glyphname = degree;
lastChange = "2017-04-17 14:53:26 +0000";
layers = (
{
layerId = "10767FFE-EA3C-45A9-8421-483827593C6E";
paths = (
{
closed = 1;
nodes = (
"143 1090 OFFCURVE",
"254 980 OFFCURVE",
"389 980 CURVE SMOOTH",
"521 980 OFFCURVE",
"630 1090 OFFCURVE",
"630 1227 CURVE SMOOTH",
"630 1363 OFFCURVE",
"521 1476 OFFCURVE",
"389 1476 CURVE SMOOTH",
"254 1476 OFFCURVE",
"143 1363 OFFCURVE",
"143 1227 CURVE SMOOTH"
);
},
{
closed = 1;
nodes = (
"233 1318 OFFCURVE",
"302 1386 OFFCURVE",
"389 1386 CURVE SMOOTH",
"476 1386 OFFCURVE",
"541 1318 OFFCURVE",
"541 1227 CURVE SMOOTH",
"541 1138 OFFCURVE",
"476 1071 OFFCURVE",
"389 1071 CURVE SMOOTH",
"302 1071 OFFCURVE",
"233 1138 OFFCURVE",
"233 1227 CURVE SMOOTH"
);
}
);
width = 774;
}
);
note = degree;
unicode = 00B0;
},
{
glyphname = plusminus;
lastChange = "2017-04-17 14:53:26 +0000";
layers = (
{
layerId = "10767FFE-EA3C-45A9-8421-483827593C6E";
paths = (
{
closed = 1;
nodes = (
"610 829 LINE",
"610 1267 LINE",
"499 1267 LINE",
"499 829 LINE",
"85 829 LINE",
"85 728 LINE",
"499 728 LINE",
"499 289 LINE",
"610 289 LINE",
"610 728 LINE",
"1001 728 LINE",
"1001 829 LINE"
);
},
{
closed = 1;
nodes = (
"129 0 LINE",
"964 0 LINE",
"964 102 LINE",
"129 102 LINE"
);
}
);
width = 1086;
}
);
note = plusminus;
unicode = 00B1;
},
{
glyphname = twosuperior;
lastChange = "2017-04-17 14:53:26 +0000";
layers = (
{
layerId = "10767FFE-EA3C-45A9-8421-483827593C6E";
paths = (
{
closed = 1;
nodes = (
"445 953 LINE SMOOTH",
"548 1052 OFFCURVE",
"628 1138 OFFCURVE",
"628 1239 CURVE SMOOTH",
"628 1380 OFFCURVE",
"525 1465 OFFCURVE",
"361 1465 CURVE SMOOTH",
"184 1465 OFFCURVE",
"76 1352 OFFCURVE",
"76 1216 CURVE",
"182 1216 LINE",
"182 1309 OFFCURVE",
"242 1377 OFFCURVE",
"363 1377 CURVE SMOOTH",
"467 1377 OFFCURVE",
"522 1321 OFFCURVE",
"522 1238 CURVE SMOOTH",
"522 1187 OFFCURVE",
"487 1127 OFFCURVE",
"418 1056 CURVE SMOOTH",
"96 741 LINE",
"96 665 LINE",
"667 665 LINE",
"667 753 LINE",
"230 753 LINE"
);
}
);
width = 740;
}
);
note = twosuperior;
unicode = 00B2;
},
{
glyphname = threesuperior;
lastChange = "2017-04-17 14:53:26 +0000";
layers = (
{
layerId = "10767FFE-EA3C-45A9-8421-483827593C6E";
paths = (
{
closed = 1;
nodes = (
"477 1026 OFFCURVE",
"546 979 OFFCURVE",
"546 884 CURVE SMOOTH",
"546 789 OFFCURVE",
"486 741 OFFCURVE",
"367 741 CURVE SMOOTH",
"256 741 OFFCURVE",
"177 801 OFFCURVE",
"177 885 CURVE",
"71 885 LINE",
"71 726 OFFCURVE",
"220 654 OFFCURVE",
"364 654 CURVE SMOOTH",
"528 654 OFFCURVE",
"652 736 OFFCURVE",
"652 881 CURVE SMOOTH",
"652 978 OFFCURVE",
"599 1041 OFFCURVE",
"492 1069 CURVE",
"588 1103 OFFCURVE",
"636 1161 OFFCURVE",
"636 1244 CURVE SMOOTH",
"636 1385 OFFCURVE",
"526 1465 OFFCURVE",
"361 1465 CURVE SMOOTH",
"208 1465 OFFCURVE",
"85 1379 OFFCURVE",
"85 1246 CURVE",
"191 1246 LINE",
"191 1327 OFFCURVE",
"265 1377 OFFCURVE",
"362 1377 CURVE SMOOTH",
"479 1377 OFFCURVE",
"530 1318 OFFCURVE",
"530 1242 CURVE SMOOTH",
"530 1166 OFFCURVE",
"467 1107 OFFCURVE",
"346 1107 CURVE SMOOTH",
"268 1107 LINE",
"268 1026 LINE",
"340 1026 LINE SMOOTH"
);
}
);
width = 740;
}
);
note = threesuperior;
unicode = 00B3;
},
{
glyphname = acute;
lastChange = "2017-04-17 14:53:26 +0000";
layers = (
{
layerId = "10767FFE-EA3C-45A9-8421-483827593C6E";
paths = (
{
closed = 1;
nodes = (
"461 1536 LINE",
"316 1536 LINE",
"125 1257 LINE",
"229 1257 LINE"
);
}
);
width = 577;
}
);
note = acute;
unicode = 00B4;
},
{
glyphname = mu;
lastChange = "2017-04-17 14:53:26 +0000";
layers = (
{
layerId = "10767FFE-EA3C-45A9-8421-483827593C6E";
paths = (
{
closed = 1;
nodes = (
"695 -20 OFFCURVE",
"799 38 OFFCURVE",
"864 155 CURVE",
"871 0 LINE",
"980 0 LINE",
"980 1082 LINE",
"860 1082 LINE",
"860 317 LINE",
"827 176 OFFCURVE",
"740 81 OFFCURVE",
"544 81 CURVE SMOOTH",
"407 81 OFFCURVE",
"282 151 OFFCURVE",
"281 444 CURVE",
"281 1082 LINE",
"163 1082 LINE",
"163 -416 LINE",
"281 -416 LINE",
"281 106 LINE",
"340 22 OFFCURVE",
"430 -20 OFFCURVE",
"553 -20 CURVE SMOOTH"
);
}
);
width = 1141;
}
);
note = mu;
unicode = 00B5;
},
{
glyphname = paragraph;
lastChange = "2017-04-17 14:53:26 +0000";
layers = (
{
layerId = "10767FFE-EA3C-45A9-8421-483827593C6E";
paths = (
{
closed = 1;
nodes = (
"575 1456 LINE SMOOTH",
"256 1456 OFFCURVE",
"83 1256 OFFCURVE",
"83 988 CURVE SMOOTH",
"83 720 OFFCURVE",
"255 523 OFFCURVE",
"568 520 CURVE SMOOTH",
"681 520 LINE",
"681 0 LINE",
"802 0 LINE",
"802 1456 LINE"
);
}
);
width = 974;
}
);
note = paragraph;
unicode = 00B6;
},
{
glyphname = periodcentered;
lastChange = "2017-04-17 14:53:26 +0000";
layers = (
{
layerId = "10767FFE-EA3C-45A9-8421-483827593C6E";
paths = (
{
closed = 1;
nodes = (
"163 663 OFFCURVE",
"191 636 OFFCURVE",
"248 636 CURVE SMOOTH",
"305 636 OFFCURVE",
"334 663 OFFCURVE",
"334 717 CURVE SMOOTH",
"334 764 OFFCURVE",
"301 801 OFFCURVE",
"248 801 CURVE SMOOTH",
"191 801 OFFCURVE",
"163 773 OFFCURVE",
"163 717 CURVE SMOOTH"
);
}
);
width = 504;
}
);
note = periodcentered;
unicode = 00B7;
},
{
glyphname = cedilla;
lastChange = "2017-04-17 14:53:26 +0000";
layers = (
{
layerId = "10767FFE-EA3C-45A9-8421-483827593C6E";
paths = (
{
closed = 1;
nodes = (
"244 -139 OFFCURVE",
"300 -160 OFFCURVE",
"300 -237 CURVE SMOOTH",
"300 -322 OFFCURVE",
"198 -358 OFFCURVE",
"99 -358 CURVE",
"106 -435 LINE",
"293 -435 OFFCURVE",
"400 -355 OFFCURVE",
"400 -236 CURVE SMOOTH",
"400 -117 OFFCURVE",
"316 -76 OFFCURVE",
"235 -65 CURVE",
"246 0 LINE",
"153 0 LINE",
"125 -128 LINE"
);
}
);
width = 499;
}
);
note = cedilla;
unicode = 00B8;
},
{
glyphname = onesuperior;
lastChange = "2017-04-17 14:53:26 +0000";
layers = (
{
layerId = "10767FFE-EA3C-45A9-8421-483827593C6E";
paths = (
{
closed = 1;
nodes = (
"127 1349 LINE",
"127 1259 LINE",
"359 1328 LINE",
"359 665 LINE",
"464 665 LINE",
"464 1455 LINE",
"451 1455 LINE"
);
}
);
width = 740;
}
);
note = onesuperior;
unicode = 00B9;
},
{
glyphname = ordmasculine;
lastChange = "2017-04-17 14:53:26 +0000";
layers = (
{
layerId = "10767FFE-EA3C-45A9-8421-483827593C6E";
paths = (
{
closed = 1;
nodes = (
"135 833 OFFCURVE",
"260 690 OFFCURVE",
"460 690 CURVE SMOOTH",
"660 690 OFFCURVE",
"782 833 OFFCURVE",
"782 1033 CURVE SMOOTH",
"782 1132 LINE SMOOTH",
"782 1333 OFFCURVE",
"661 1476 OFFCURVE",
"458 1476 CURVE SMOOTH",
"261 1476 OFFCURVE",
"135 1333 OFFCURVE",
"135 1132 CURVE SMOOTH",
"135 1033 LINE SMOOTH"
);
},
{
closed = 1;
nodes = (
"244 1271 OFFCURVE",
"314 1380 OFFCURVE",
"458 1380 CURVE SMOOTH",
"605 1380 OFFCURVE",
"674 1271 OFFCURVE",
"674 1132 CURVE SMOOTH",
"674 1033 LINE SMOOTH",
"674 896 OFFCURVE",
"604 786 OFFCURVE",
"460 786 CURVE SMOOTH",
"311 786 OFFCURVE",
"244 896 OFFCURVE",
"244 1033 CURVE SMOOTH",
"244 1132 LINE SMOOTH"
);
}
);
width = 923;
}
);
note = ordmasculine;
unicode = 00BA;
},
{
glyphname = guillemotright;
lastChange = "2017-04-17 14:53:26 +0000";
layers = (
{
layerId = "10767FFE-EA3C-45A9-8421-483827593C6E";
paths = (
{
closed = 1;
nodes = (
"392 551 LINE",
"116 162 LINE",
"222 162 LINE",
"516 541 LINE",
"516 560 LINE",
"222 945 LINE",
"116 945 LINE"
);
},
{
closed = 1;
nodes = (
"711 551 LINE",
"435 162 LINE",
"541 162 LINE",
"835 541 LINE",
"835 560 LINE",
"541 945 LINE",
"435 945 LINE"
);
}
);
width = 929;
}
);
note = guillemotright;
unicode = 00BB;
},
{
glyphname = onequarter;
lastChange = "2017-04-17 14:53:26 +0000";
layers = (
{
layerId = "10767FFE-EA3C-45A9-8421-483827593C6E";
paths = (
{
closed = 1;
nodes = (
"115 1348 LINE",
"115 1258 LINE",
"347 1327 LINE",
"347 664 LINE",
"452 664 LINE",
"452 1454 LINE",
"439 1454 LINE"
);
},
{
closed = 1;
nodes = (
"340 177 LINE",
"415 129 LINE",
"1126 1267 LINE",
"1051 1315 LINE"
);
},
{
closed = 1;
nodes = (
"1167 187 LINE",
"1167 0 LINE",
"1272 0 LINE",
"1272 187 LINE",
"1399 187 LINE",
"1399 276 LINE",
"1272 276 LINE",
"1272 789 LINE",
"1162 789 LINE",
"765 254 LINE",
"768 187 LINE"
);
},
{
closed = 1;
nodes = (
"1167 659 LINE",
"1167 276 LINE",
"879 276 LINE",
"1137 609 LINE"
);
}
);
width = 1484;
}
);
note = onequarter;
unicode = 00BC;
},
{
glyphname = onehalf;
lastChange = "2017-04-17 14:53:26 +0000";
layers = (
{
layerId = "10767FFE-EA3C-45A9-8421-483827593C6E";
paths = (
{
closed = 1;
nodes = (
"296 177 LINE",
"371 129 LINE",
"1082 1267 LINE",
"1007 1315 LINE"
);
},
{
closed = 1;
nodes = (
"100 1348 LINE",
"100 1258 LINE",
"332 1327 LINE",
"332 664 LINE",
"437 664 LINE",
"437 1454 LINE",
"424 1454 LINE"
);
},
{
closed = 1;
nodes = (
"1214 288 LINE SMOOTH",
"1325 395 OFFCURVE",
"1397 477 OFFCURVE",
"1397 574 CURVE SMOOTH",
"1397 715 OFFCURVE",
"1294 800 OFFCURVE",
"1130 800 CURVE SMOOTH",
"953 800 OFFCURVE",
"845 687 OFFCURVE",
"845 551 CURVE",
"951 551 LINE",
"951 644 OFFCURVE",
"1011 712 OFFCURVE",
"1132 712 CURVE SMOOTH",
"1236 712 OFFCURVE",
"1291 656 OFFCURVE",
"1291 573 CURVE SMOOTH",
"1291 522 OFFCURVE",
"1256 462 OFFCURVE",
"1187 391 CURVE SMOOTH",
"865 76 LINE",
"865 0 LINE",
"1436 0 LINE",
"1436 88 LINE",
"999 88 LINE"
);
}
);
width = 1549;
}
);
note = onehalf;
unicode = 00BD;
},
{
glyphname = threequarters;
lastChange = "2017-04-17 14:53:26 +0000";
layers = (
{
layerId = "10767FFE-EA3C-45A9-8421-483827593C6E";
paths = (
{
closed = 1;
nodes = (
"484 177 LINE",
"559 129 LINE",
"1270 1267 LINE",
"1195 1315 LINE"
);
},
{
closed = 1;
nodes = (
"1282 187 LINE",
"1282 0 LINE",
"1387 0 LINE",
"1387 187 LINE",
"1514 187 LINE",
"1514 276 LINE",
"1387 276 LINE",
"1387 789 LINE",
"1277 789 LINE",
"880 254 LINE",
"883 187 LINE"
);
},
{
closed = 1;
nodes = (
"1282 659 LINE",
"1282 276 LINE",
"994 276 LINE",
"1252 609 LINE"
);
},
{
closed = 1;
nodes = (
"524 1026 OFFCURVE",
"593 979 OFFCURVE",
"593 884 CURVE SMOOTH",
"593 789 OFFCURVE",
"533 741 OFFCURVE",
"414 741 CURVE SMOOTH",
"303 741 OFFCURVE",
"224 801 OFFCURVE",
"224 885 CURVE",
"118 885 LINE",
"118 726 OFFCURVE",
"267 654 OFFCURVE",
"411 654 CURVE SMOOTH",
"575 654 OFFCURVE",
"699 736 OFFCURVE",
"699 881 CURVE SMOOTH",
"699 978 OFFCURVE",
"646 1041 OFFCURVE",
"539 1069 CURVE",
"635 1103 OFFCURVE",
"683 1161 OFFCURVE",
"683 1244 CURVE SMOOTH",
"683 1387 OFFCURVE",
"573 1465 OFFCURVE",
"408 1465 CURVE SMOOTH",
"255 1465 OFFCURVE",
"132 1379 OFFCURVE",
"132 1246 CURVE",
"238 1246 LINE",
"238 1327 OFFCURVE",
"312 1377 OFFCURVE",
"409 1377 CURVE SMOOTH",
"526 1377 OFFCURVE",
"577 1318 OFFCURVE",
"577 1242 CURVE SMOOTH",
"577 1166 OFFCURVE",
"514 1107 OFFCURVE",
"393 1107 CURVE SMOOTH",
"315 1107 LINE",
"315 1026 LINE",
"387 1026 LINE SMOOTH"
);
}
);
width = 1590;
}
);
note = threequarters;
unicode = 00BE;
},
{
glyphname = questiondown;
lastChange = "2017-04-17 14:53:26 +0000";
layers = (
{
layerId = "10767FFE-EA3C-45A9-8421-483827593C6E";
paths = (
{
closed = 1;
nodes = (
"567 1075 OFFCURVE",
"540 1101 OFFCURVE",
"485 1101 CURVE SMOOTH",
"430 1101 OFFCURVE",
"402 1075 OFFCURVE",
"402 1022 CURVE SMOOTH",
"402 977 OFFCURVE",
"434 941 OFFCURVE",
"485 941 CURVE SMOOTH",
"540 941 OFFCURVE",
"567 968 OFFCURVE",
"567 1022 CURVE SMOOTH"
);
},
{
closed = 1;
nodes = (
"432 581 OFFCURVE",
"424 511 OFFCURVE",
"337 438 CURVE",
"202 313 OFFCURVE",
"88 182 OFFCURVE",
"88 -11 CURVE SMOOTH",
"88 -239 OFFCURVE",
"227 -383 OFFCURVE",
"470 -383 CURVE SMOOTH",
"683 -383 OFFCURVE",
"849 -254 OFFCURVE",
"852 -21 CURVE",
"733 -21 LINE",
"732 -180 OFFCURVE",
"625 -277 OFFCURVE",
"470 -277 CURVE SMOOTH",
"295 -277 OFFCURVE",
"208 -188 OFFCURVE",
"208 -9 CURVE SMOOTH",
"208 162 OFFCURVE",
"291 238 OFFCURVE",
"414 362 CURVE SMOOTH",
"537 486 OFFCURVE",
"550 535 OFFCURVE",
"551 688 CURVE",
"432 688 LINE"
);
}
);
width = 941;
}
);
note = questiondown;
unicode = 00BF;
},
{
glyphname = AE;
lastChange = "2017-04-17 14:53:26 +0000";
layers = (
{
layerId = "10767FFE-EA3C-45A9-8421-483827593C6E";
paths = (
{
closed = 1;
nodes = (
"1096 708 LINE",
"1681 708 LINE",
"1681 809 LINE",
"1092 809 LINE",
"1069 1354 LINE",
"1762 1354 LINE",
"1762 1456 LINE",
"899 1456 LINE",
"18 0 LINE",
"164 0 LINE",
"394 390 LINE",
"990 390 LINE",
"1006 0 LINE",
"1824 0 LINE",
"1824 102 LINE",
"1122 102 LINE"
);
},
{
closed = 1;
nodes = (
"985 502 LINE",
"461 502 LINE",
"950 1331 LINE"
);
}
);
width = 1865;
}
);
note = AE;
unicode = 00C6;
},
{
glyphname = multiply;
lastChange = "2017-04-17 14:53:26 +0000";
layers = (
{
layerId = "10767FFE-EA3C-45A9-8421-483827593C6E";
paths = (
{
closed = 1;
nodes = (
"952 894 LINE",
"873 975 LINE",
"530 625 LINE",
"187 975 LINE",
"108 894 LINE",
"451 545 LINE",
"94 180 LINE",
"173 100 LINE",
"530 464 LINE",
"888 100 LINE",
"967 180 LINE",
"609 545 LINE"
);
}
);
width = 1072;
}
);
note = multiply;
unicode = 00D7;
},
{
glyphname = Oslash;
lastChange = "2017-04-17 14:53:26 +0000";
layers = (
{
layerId = "10767FFE-EA3C-45A9-8421-483827593C6E";
paths = (
{
closed = 1;
nodes = (
"1039 -20 OFFCURVE",
"1260 242 OFFCURVE",
"1260 650 CURVE SMOOTH",
"1260 818 LINE",
"1258 1001 OFFCURVE",
"1213 1151 OFFCURVE",
"1126 1268 CURVE",
"1275 1505 LINE",
"1171 1505 LINE",
"1065 1336 LINE",
"966 1429 OFFCURVE",
"841 1476 OFFCURVE",
"692 1476 CURVE SMOOTH",
"353 1476 OFFCURVE",
"126 1213 OFFCURVE",
"126 806 CURVE SMOOTH",
"126 636 LINE SMOOTH",
"129 422 OFFCURVE",
"189 255 OFFCURVE",
"308 134 CURVE",
"171 -84 LINE",
"275 -84 LINE",
"376 77 LINE",
"467 12 OFFCURVE",
"573 -20 OFFCURVE",
"694 -20 CURVE SMOOTH"
);
},
{
closed = 1;
nodes = (
"249 1152 OFFCURVE",
"417 1368 OFFCURVE",
"692 1368 CURVE SMOOTH",
"821 1368 OFFCURVE",
"925 1325 OFFCURVE",
"1003 1238 CURVE",
"372 235 LINE",
"290 336 OFFCURVE",
"249 474 OFFCURVE",
"249 650 CURVE SMOOTH",
"249 808 LINE SMOOTH"
);
},
{
closed = 1;
nodes = (
"1138 303 OFFCURVE",
"977 88 OFFCURVE",
"694 88 CURVE SMOOTH",
"593 88 OFFCURVE",
"507 116 OFFCURVE",
"436 172 CURVE",
"1058 1161 LINE",
"1111 1067 OFFCURVE",
"1138 949 OFFCURVE",
"1138 808 CURVE SMOOTH",
"1138 650 LINE SMOOTH"
);
}
);
width = 1387;
}
);
leftKerningGroup = C;
note = Oslash;
unicode = 00D8;
},
{
glyphname = Thorn;
lastChange = "2017-04-17 14:53:26 +0000";
layers = (
{
layerId = "10767FFE-EA3C-45A9-8421-483827593C6E";
paths = (
{
closed = 1;
nodes = (
"930 324 OFFCURVE",
"1096 501 OFFCURVE",
"1096 738 CURVE SMOOTH",
"1096 974 OFFCURVE",
"931 1152 OFFCURVE",
"631 1153 CURVE SMOOTH",
"303 1153 LINE",
"303 1456 LINE",
"183 1456 LINE",
"183 0 LINE",
"303 0 LINE",
"303 324 LINE",
"627 324 LINE SMOOTH"
);
},
{
closed = 1;
nodes = (
"875 1051 OFFCURVE",
"976 893 OFFCURVE",
"976 736 CURVE SMOOTH",
"976 585 OFFCURVE",
"875 426 OFFCURVE",
"627 426 CURVE SMOOTH",
"303 426 LINE",
"303 1051 LINE",
"627 1051 LINE SMOOTH"
);
}
);
width = 1215;
}
);
note = Thorn;
unicode = 00DE;
},
{
glyphname = germandbls;
lastChange = "2017-04-17 14:53:26 +0000";
layers = (
{
layerId = "10767FFE-EA3C-45A9-8421-483827593C6E";
paths = (
{
closed = 1;
nodes = (
"271 1351 OFFCURVE",
"368 1443 OFFCURVE",
"523 1443 CURVE SMOOTH",
"639 1443 OFFCURVE",
"739 1360 OFFCURVE",
"739 1231 CURVE SMOOTH",
"739 1226 LINE SMOOTH",
"738 1173 OFFCURVE",
"728 1128 OFFCURVE",
"707 1091 CURVE SMOOTH",
"666 1018 OFFCURVE",
"613 947 OFFCURVE",
"613 827 CURVE SMOOTH",
"613 698 OFFCURVE",
"699 617 OFFCURVE",
"795 549 CURVE SMOOTH",
"891 480 OFFCURVE",
"977 412 OFFCURVE",
"977 307 CURVE SMOOTH",
"977 184 OFFCURVE",
"879 81 OFFCURVE",
"706 81 CURVE SMOOTH",
"607 81 OFFCURVE",
"497 125 OFFCURVE",
"448 161 CURVE",
"415 60 LINE",
"467 17 OFFCURVE",
"607 -21 OFFCURVE",
"720 -21 CURVE SMOOTH",
"915 -21 OFFCURVE",
"1096 92 OFFCURVE",
"1096 307 CURVE SMOOTH",
"1096 439 OFFCURVE",
"1010 523 OFFCURVE",
"915 592 CURVE SMOOTH",
"819 661 OFFCURVE",
"733 728 OFFCURVE",
"733 825 CURVE SMOOTH",
"733 831 LINE SMOOTH",
"734 886 OFFCURVE",
"744 932 OFFCURVE",
"765 967 CURVE SMOOTH",
"805 1037 OFFCURVE",
"857 1104 OFFCURVE",
"857 1237 CURVE SMOOTH",
"857 1436 OFFCURVE",
"701 1544 OFFCURVE",
"513 1544 CURVE SMOOTH",
"290 1544 OFFCURVE",
"152 1400 OFFCURVE",
"152 1128 CURVE SMOOTH",
"152 0 LINE",
"271 0 LINE",
"271 1128 LINE SMOOTH"
);
}
);
width = 1201;
}
);
note = germandbls;
unicode = 00DF;
},
{
glyphname = ae;
lastChange = "2017-04-17 14:53:26 +0000";
layers = (
{
layerId = "10767FFE-EA3C-45A9-8421-483827593C6E";
paths = (
{
closed = 1;
nodes = (
"1517 139 OFFCURVE",
"1416 81 OFFCURVE",
"1265 81 CURVE SMOOTH",
"1010 81 OFFCURVE",
"902 273 OFFCURVE",
"902 510 CURVE SMOOTH",
"902 538 LINE",
"1659 538 LINE",
"1659 638 LINE SMOOTH",
"1659 925 OFFCURVE",
"1505 1102 OFFCURVE",
"1236 1102 CURVE SMOOTH",
"1081 1102 OFFCURVE",
"951 1022 OFFCURVE",
"871 890 CURVE",
"818 1031 OFFCURVE",
"693 1102 OFFCURVE",
"528 1102 CURVE SMOOTH",
"277 1102 OFFCURVE",
"114 965 OFFCURVE",
"114 778 CURVE",
"233 766 LINE",
"233 897 OFFCURVE",
"343 1000 OFFCURVE",
"528 1000 CURVE SMOOTH",
"696 1000 OFFCURVE",
"781 896 OFFCURVE",
"781 720 CURVE SMOOTH",
"781 633 LINE",
"525 633 LINE SMOOTH",
"237 633 OFFCURVE",
"86 501 OFFCURVE",
"86 294 CURVE SMOOTH",
"86 105 OFFCURVE",
"212 -20 OFFCURVE",
"441 -20 CURVE SMOOTH",
"669 -20 OFFCURVE",
"809 89 OFFCURVE",
"868 188 CURVE",
"947 59 OFFCURVE",
"1081 -20 OFFCURVE",
"1265 -20 CURVE SMOOTH",
"1469 -20 OFFCURVE",
"1579 59 OFFCURVE",
"1636 112 CURVE",
"1589 200 LINE"
);
},
{
closed = 1;
nodes = (
"1445 1000 OFFCURVE",
"1539 852 OFFCURVE",
"1539 668 CURVE SMOOTH",
"1539 636 LINE",
"906 636 LINE",
"927 843 OFFCURVE",
"1047 1000 OFFCURVE",
"1236 1000 CURVE SMOOTH"
);
},
{
closed = 1;
nodes = (
"293 80 OFFCURVE",
"206 165 OFFCURVE",
"206 290 CURVE SMOOTH",
"206 421 OFFCURVE",
"310 536 OFFCURVE",
"527 536 CURVE SMOOTH",
"781 536 LINE",
"781 235 LINE",
"729 163 OFFCURVE",
"595 80 OFFCURVE",
"458 80 CURVE SMOOTH"
);
}
);
width = 1732;
}
);
note = ae;
unicode = 00E6;
},
{
glyphname = eth;
lastChange = "2017-04-17 14:53:26 +0000";
layers = (
{
layerId = "10767FFE-EA3C-45A9-8421-483827593C6E";
paths = (
{
closed = 1;
nodes = (
"1053 912 OFFCURVE",
"972 1136 OFFCURVE",
"811 1304 CURVE",
"990 1415 LINE",
"939 1488 LINE",
"744 1367 LINE",
"635 1460 OFFCURVE",
"498 1530 OFFCURVE",
"335 1579 CURVE",
"297 1475 LINE",
"435 1432 OFFCURVE",
"549 1374 OFFCURVE",
"640 1303 CURVE",
"434 1175 LINE",
"484 1101 LINE",
"710 1241 LINE",
"821 1131 OFFCURVE",
"891 991 OFFCURVE",
"920 822 CURVE",
"836 917 OFFCURVE",
"725 965 OFFCURVE",
"588 965 CURVE SMOOTH",
"324 965 OFFCURVE",
"150 775 OFFCURVE",
"150 466 CURVE SMOOTH",
"150 195 OFFCURVE",
"341 -20 OFFCURVE",
"616 -20 CURVE SMOOTH",
"871 -20 OFFCURVE",
"1055 206 OFFCURVE",
"1055 535 CURVE SMOOTH",
"1055 633 LINE"
);
},
{
closed = 1;
nodes = (
"270 695 OFFCURVE",
"381 861 OFFCURVE",
"610 861 CURVE SMOOTH",
"786 861 OFFCURVE",
"892 772 OFFCURVE",
"935 681 CURVE",
"936 626 LINE",
"936 535 LINE SMOOTH",
"936 275 OFFCURVE",
"815 84 OFFCURVE",
"620 84 CURVE SMOOTH",
"395 84 OFFCURVE",
"270 277 OFFCURVE",
"270 466 CURVE SMOOTH"
);
}
);
width = 1192;
}
);
note = eth;
unicode = 00F0;
},
{
glyphname = divide;
lastChange = "2017-04-17 14:53:26 +0000";
layers = (
{
layerId = "10767FFE-EA3C-45A9-8421-483827593C6E";
paths = (
{
closed = 1;
nodes = (
"495 1034 OFFCURVE",
"523 1007 OFFCURVE",
"580 1007 CURVE SMOOTH",
"633 1007 OFFCURVE",
"666 1043 OFFCURVE",
"666 1088 CURVE SMOOTH",
"666 1135 OFFCURVE",
"633 1172 OFFCURVE",
"580 1172 CURVE SMOOTH",
"523 1172 OFFCURVE",
"495 1144 OFFCURVE",
"495 1088 CURVE SMOOTH"
);
},
{
closed = 1;
nodes = (
"72 644 LINE",
"1070 644 LINE",
"1070 761 LINE",
"72 761 LINE"
);
},
{
closed = 1;
nodes = (
"495 237 OFFCURVE",
"523 210 OFFCURVE",
"580 210 CURVE SMOOTH",
"637 210 OFFCURVE",
"666 237 OFFCURVE",
"666 292 CURVE SMOOTH",
"666 337 OFFCURVE",
"633 375 OFFCURVE",
"580 375 CURVE SMOOTH",
"527 375 OFFCURVE",
"495 337 OFFCURVE",
"495 292 CURVE SMOOTH"
);
}
);
width = 1164;
}
);
note = divide;
unicode = 00F7;
},
{
glyphname = oslash;
lastChange = "2017-04-17 14:53:26 +0000";
layers = (
{
layerId = "10767FFE-EA3C-45A9-8421-483827593C6E";
paths = (
{
closed = 1;
nodes = (
"866 -20 OFFCURVE",
"1055 209 OFFCURVE",
"1055 525 CURVE SMOOTH",
"1055 569 LINE",
"1052 764 OFFCURVE",
"986 911 OFFCURVE",
"857 1010 CURVE",
"957 1214 LINE",
"864 1214 LINE",
"786 1054 LINE",
"721 1086 OFFCURVE",
"650 1102 OFFCURVE",
"571 1102 CURVE SMOOTH",
"280 1102 OFFCURVE",
"89 872 OFFCURVE",
"89 557 CURVE SMOOTH",
"89 516 LINE SMOOTH",
"91 311 OFFCURVE",
"161 160 OFFCURVE",
"300 63 CURVE",
"201 -140 LINE",
"294 -140 LINE",
"373 21 LINE",
"434 -6 OFFCURVE",
"500 -20 OFFCURVE",
"573 -20 CURVE SMOOTH"
);
},
{
closed = 1;
nodes = (
"209 791 OFFCURVE",
"338 1000 OFFCURVE",
"571 1000 CURVE SMOOTH",
"633 1000 OFFCURVE",
"689 986 OFFCURVE",
"738 958 CURVE",
"350 163 LINE",
"257 244 OFFCURVE",
"209 378 OFFCURVE",
"209 525 CURVE SMOOTH",
"209 556 LINE SMOOTH"
);
},
{
closed = 1;
nodes = (
"935 286 OFFCURVE",
"806 82 OFFCURVE",
"573 82 CURVE SMOOTH",
"517 82 OFFCURVE",
"466 93 OFFCURVE",
"419 116 CURVE",
"806 906 LINE",
"891 823 OFFCURVE",
"935 694 OFFCURVE",
"935 557 CURVE SMOOTH",
"935 525 LINE SMOOTH"
);
}
);
width = 1141;
}
);
note = oslash;
unicode = 00F8;
},
{
glyphname = thorn;
lastChange = "2017-04-17 14:53:26 +0000";
layers = (
{
layerId = "10767FFE-EA3C-45A9-8421-483827593C6E";
paths = (
{
closed = 1;
nodes = (
"882 -20 OFFCURVE",
"1031 207 OFFCURVE",
"1031 530 CURVE SMOOTH",
"1031 550 LINE SMOOTH",
"1031 887 OFFCURVE",
"881 1102 OFFCURVE",
"616 1102 CURVE SMOOTH",
"469 1102 OFFCURVE",
"357 1045 OFFCURVE",
"279 932 CURVE",
"279 1536 LINE",
"160 1536 LINE",
"160 -416 LINE",
"279 -416 LINE",
"279 137 LINE",
"358 32 OFFCURVE",
"471 -20 OFFCURVE",
"619 -20 CURVE SMOOTH"
);
},
{
closed = 1;
nodes = (
"809 998 OFFCURVE",
"911 803 OFFCURVE",
"911 551 CURVE SMOOTH",
"911 530 LINE SMOOTH",
"911 278 OFFCURVE",
"808 82 OFFCURVE",
"591 82 CURVE SMOOTH",
"430 82 OFFCURVE",
"332 163 OFFCURVE",
"279 271 CURVE",
"279 790 LINE",
"326 899 OFFCURVE",
"417 998 OFFCURVE",
"589 998 CURVE SMOOTH"
);
}
);
width = 1151;
}
);
note = thorn;
rightKerningGroup = b;
unicode = 00FE;
},
{
glyphname = dcroat;
lastChange = "2017-04-17 14:53:26 +0000";
layers = (
{
layerId = "10767FFE-EA3C-45A9-8421-483827593C6E";
paths = (
{
closed = 1;
nodes = (
"980 1258 LINE",
"1154 1258 LINE",
"1154 1359 LINE",
"980 1359 LINE",
"980 1536 LINE",
"860 1536 LINE",
"860 1359 LINE",
"542 1359 LINE",
"542 1258 LINE",
"860 1258 LINE",
"860 931 LINE",
"784 1045 OFFCURVE",
"673 1102 OFFCURVE",
"526 1102 CURVE SMOOTH",
"269 1102 OFFCURVE",
"109 887 OFFCURVE",
"109 551 CURVE SMOOTH",
"109 530 LINE SMOOTH",
"109 207 OFFCURVE",
"269 -20 OFFCURVE",
"524 -20 CURVE SMOOTH",
"673 -20 OFFCURVE",
"786 35 OFFCURVE",
"862 145 CURVE",
"868 0 LINE",
"980 0 LINE"
);
},
{
closed = 1;
nodes = (
"229 803 OFFCURVE",
"329 998 OFFCURVE",
"549 998 CURVE SMOOTH",
"722 998 OFFCURVE",
"813 899 OFFCURVE",
"860 790 CURVE",
"860 279 LINE",
"807 167 OFFCURVE",
"710 84 OFFCURVE",
"547 84 CURVE SMOOTH",
"330 84 OFFCURVE",
"229 278 OFFCURVE",
"229 530 CURVE SMOOTH",
"229 551 LINE SMOOTH"
);
}
);
width = 1172;
}
);
note = dcroat;
unicode = 0111;
},
{
glyphname = Hbar;
lastChange = "2017-04-17 14:53:26 +0000";
layers = (
{
layerId = "10767FFE-EA3C-45A9-8421-483827593C6E";
paths = (
{
closed = 1;
nodes = (
"1240 1026 LINE",
"1384 1026 LINE",
"1384 1123 LINE",
"1240 1123 LINE",
"1240 1456 LINE",
"1116 1456 LINE",
"1116 1123 LINE",
"285 1123 LINE",
"285 1456 LINE",
"161 1456 LINE",
"161 1123 LINE",
"25 1123 LINE",
"25 1026 LINE",
"161 1026 LINE",
"161 0 LINE",
"285 0 LINE",
"285 698 LINE",
"1116 698 LINE",
"1116 0 LINE",
"1240 0 LINE"
);
},
{
closed = 1;
nodes = (
"1116 1026 LINE",
"1116 803 LINE",
"285 803 LINE",
"285 1026 LINE"
);
}
);
width = 1412;
}
);
note = Hbar;
unicode = 0126;
},
{
glyphname = dotlessi;
lastChange = "2017-04-17 14:53:26 +0000";
layers = (
{
layerId = "10767FFE-EA3C-45A9-8421-483827593C6E";
paths = (
{
closed = 1;
nodes = (
"168 0 LINE",
"288 0 LINE",
"288 1082 LINE",
"168 1082 LINE"
);
}
);
width = 456;
}
);
note = dotlessi;
unicode = 0131;
},
{
glyphname = kgreenlandic;
lastChange = "2017-04-17 14:53:26 +0000";
layers = (
{
layerId = "10767FFE-EA3C-45A9-8421-483827593C6E";
paths = (
{
closed = 1;
nodes = (
"528 555 LINE",
"1007 1082 LINE",
"861 1082 LINE",
"418 603 LINE",
"283 603 LINE",
"283 1082 LINE",
"163 1082 LINE",
"163 0 LINE",
"283 0 LINE",
"283 496 LINE",
"423 496 LINE",
"904 0 LINE",
"1057 0 LINE"
);
}
);
width = 1112;
}
);
note = kgreenlandic;
unicode = 0138;
},
{
glyphname = Lslash;
lastChange = "2017-04-17 14:53:26 +0000";
layers = (
{
layerId = "10767FFE-EA3C-45A9-8421-483827593C6E";
paths = (
{
closed = 1;
nodes = (
"304 727 LINE",
"611 824 LINE",
"611 915 LINE",
"304 818 LINE",
"304 1456 LINE",
"180 1456 LINE",
"180 778 LINE",
"22 728 LINE",
"22 637 LINE",
"180 687 LINE",
"180 0 LINE",
"1023 0 LINE",
"1023 104 LINE",
"304 104 LINE"
);
}
);
width = 1082;
}
);
note = Lslash;
unicode = 0141;
},
{
glyphname = lslash;
lastChange = "2017-04-17 14:53:26 +0000";
layers = (
{
layerId = "10767FFE-EA3C-45A9-8421-483827593C6E";
paths = (
{
closed = 1;
nodes = (
"325 860 LINE",
"325 1536 LINE",
"205 1536 LINE",
"205 813 LINE",
"26 743 LINE",
"26 653 LINE",
"205 723 LINE",
"205 0 LINE",
"325 0 LINE",
"325 770 LINE",
"505 840 LINE",
"505 930 LINE"
);
}
);
width = 529;
}
);
note = lslash;
unicode = 0142;
},
{
glyphname = Eng;
lastChange = "2017-04-17 14:53:26 +0000";
layers = (
{
layerId = "10767FFE-EA3C-45A9-8421-483827593C6E";
paths = (
{
closed = 1;
nodes = (
"304 1252 LINE",
"1134 0 LINE",
"1134 -97 LINE SMOOTH",
"1131 -254 OFFCURVE",
"1070 -332 OFFCURVE",
"950 -332 CURVE SMOOTH",
"913 -332 OFFCURVE",
"880 -327 OFFCURVE",
"852 -316 CURVE",
"838 -418 LINE",
"877 -431 OFFCURVE",
"915 -437 OFFCURVE",
"952 -437 CURVE SMOOTH",
"1143 -437 OFFCURVE",
"1258 -312 OFFCURVE",
"1258 -87 CURVE SMOOTH",
"1258 1456 LINE",
"1134 1456 LINE",
"1134 206 LINE",
"304 1456 LINE",
"181 1456 LINE",
"181 0 LINE",
"304 0 LINE"
);
}
);
width = 1435;
}
);
note = Eng;
unicode = 014A;
},
{
glyphname = eng;
lastChange = "2017-04-17 14:53:26 +0000";
layers = (
{
layerId = "10767FFE-EA3C-45A9-8421-483827593C6E";
paths = (
{
closed = 1;
nodes = (
"981 972 OFFCURVE",
"850 1102 OFFCURVE",
"622 1102 CURVE SMOOTH",
"461 1102 OFFCURVE",
"344 1025 OFFCURVE",
"275 900 CURVE",
"265 1082 LINE",
"158 1082 LINE",
"158 0 LINE",
"278 0 LINE",
"278 776 LINE",
"323 903 OFFCURVE",
"421 998 OFFCURVE",
"594 998 CURVE SMOOTH",
"754 998 OFFCURVE",
"862 922 OFFCURVE",
"862 658 CURVE SMOOTH",
"862 -94 LINE SMOOTH",
"861 -252 OFFCURVE",
"799 -331 OFFCURVE",
"678 -331 CURVE SMOOTH",
"635 -331 OFFCURVE",
"598 -326 OFFCURVE",
"567 -315 CURVE",
"554 -418 LINE",
"595 -431 OFFCURVE",
"636 -437 OFFCURVE",
"678 -437 CURVE SMOOTH",
"867 -437 OFFCURVE",
"981 -314 OFFCURVE",
"981 -89 CURVE SMOOTH",
"981 659 LINE SMOOTH"
);
}
);
width = 1141;
}
);
note = eng;
unicode = 014B;
},
{
glyphname = OE;
lastChange = "2017-04-17 14:53:26 +0000";
layers = (
{
layerId = "10767FFE-EA3C-45A9-8421-483827593C6E";
paths = (
{
closed = 1;
nodes = (
"1019 698 LINE",
"1699 698 LINE",
"1699 803 LINE",
"1019 803 LINE",
"1019 1351 LINE",
"1796 1351 LINE",
"1796 1456 LINE",
"957 1456 LINE",
"839 1469 OFFCURVE",
"735 1476 OFFCURVE",
"644 1476 CURVE SMOOTH",
"327 1476 OFFCURVE",
"108 1233 OFFCURVE",
"108 880 CURVE SMOOTH",
"108 576 LINE SMOOTH",
"108 223 OFFCURVE",
"329 -21 OFFCURVE",
"646 -21 CURVE SMOOTH",
"729 -21 OFFCURVE",
"833 -14 OFFCURVE",
"957 0 CURVE",
"1801 0 LINE",
"1801 104 LINE",
"1019 104 LINE"
);
},
{
closed = 1;
nodes = (
"228 1189 OFFCURVE",
"391 1375 OFFCURVE",
"644 1375 CURVE SMOOTH",
"737 1375 OFFCURVE",
"821 1370 OFFCURVE",
"896 1361 CURVE",
"896 95 LINE",
"817 86 OFFCURVE",
"734 81 OFFCURVE",
"646 81 CURVE SMOOTH",
"393 81 OFFCURVE",
"228 272 OFFCURVE",
"228 576 CURVE SMOOTH",
"228 882 LINE SMOOTH"
);
}
);
width = 1913;
}
);
leftKerningGroup = C;
note = OE;
unicode = 0152;
},
{
glyphname = oe;
lastChange = "2017-04-17 14:53:26 +0000";
layers = (
{
layerId = "10767FFE-EA3C-45A9-8421-483827593C6E";
paths = (
{
closed = 1;
nodes = (
"1658 121 OFFCURVE",
"1550 81 OFFCURVE",
"1412 81 CURVE SMOOTH",
"1199 81 OFFCURVE",
"1059 273 OFFCURVE",
"1059 510 CURVE SMOOTH",
"1059 538 LINE",
"1824 538 LINE",
"1824 640 LINE SMOOTH",
"1824 919 OFFCURVE",
"1665 1102 OFFCURVE",
"1396 1102 CURVE SMOOTH",
"1227 1103 OFFCURVE",
"1074 998 OFFCURVE",
"997 830 CURVE",
"921 997 OFFCURVE",
"771 1102 OFFCURVE",
"572 1102 CURVE SMOOTH",
"281 1102 OFFCURVE",
"95 872 OFFCURVE",
"95 557 CURVE SMOOTH",
"95 525 LINE SMOOTH",
"95 209 OFFCURVE",
"281 -20 OFFCURVE",
"574 -20 CURVE SMOOTH",
"771 -20 OFFCURVE",
"920 85 OFFCURVE",
"996 249 CURVE",
"1073 85 OFFCURVE",
"1227 -20 OFFCURVE",
"1412 -20 CURVE SMOOTH",
"1595 -20 OFFCURVE",
"1713 41 OFFCURVE",
"1788 118 CURVE",
"1737 201 LINE"
);
},
{
closed = 1;
nodes = (
"1593 1000 OFFCURVE",
"1704 852 OFFCURVE",
"1704 669 CURVE SMOOTH",
"1704 640 LINE",
"1064 640 LINE",
"1089 845 OFFCURVE",
"1217 1000 OFFCURVE",
"1396 1000 CURVE SMOOTH"
);
},
{
closed = 1;
nodes = (
"214 790 OFFCURVE",
"337 1000 OFFCURVE",
"572 1000 CURVE SMOOTH",
"808 1000 OFFCURVE",
"932 790 OFFCURVE",
"932 557 CURVE SMOOTH",
"932 525 LINE SMOOTH",
"932 286 OFFCURVE",
"809 81 OFFCURVE",
"574 81 CURVE SMOOTH",
"338 81 OFFCURVE",
"214 286 OFFCURVE",
"214 525 CURVE SMOOTH",
"214 557 LINE SMOOTH"
);
}
);
width = 1892;
}
);
leftKerningGroup = c;
note = oe;
unicode = 0153;
},
{
glyphname = longs;
lastChange = "2017-04-17 14:53:26 +0000";
layers = (
{
layerId = "10767FFE-EA3C-45A9-8421-483827593C6E";
paths = (
{
closed = 1;
nodes = (
"287 1368 OFFCURVE",
"362 1455 OFFCURVE",
"493 1455 CURVE SMOOTH",
"530 1455 OFFCURVE",
"565 1451 OFFCURVE",
"598 1442 CURVE",
"613 1538 LINE",
"570 1551 OFFCURVE",
"525 1557 OFFCURVE",
"478 1557 CURVE SMOOTH",
"285 1557 OFFCURVE",
"167 1436 OFFCURVE",
"167 1217 CURVE SMOOTH",
"167 0 LINE",
"287 0 LINE",
"287 1217 LINE SMOOTH"
);
}
);
width = 465;
}
);
note = longs;
unicode = 017F;
},
{
glyphname = uni0181;
lastChange = "2017-04-17 14:53:26 +0000";
layers = (
{
layerId = "10767FFE-EA3C-45A9-8421-483827593C6E";
paths = (
{
closed = 1;
nodes = (
"25 1135 OFFCURVE",
"31 1097 OFFCURVE",
"43 1058 CURVE",
"144 1065 LINE",
"135 1093 OFFCURVE",
"130 1121 OFFCURVE",
"130 1149 CURVE SMOOTH",
"130 1283 OFFCURVE",
"210 1350 OFFCURVE",
"371 1351 CURVE",
"371 0 LINE",
"863 0 LINE SMOOTH",
"1142 0 OFFCURVE",
"1329 145 OFFCURVE",
"1329 410 CURVE SMOOTH",
"1329 579 OFFCURVE",
"1218 723 OFFCURVE",
"1046 760 CURVE",
"1191 808 OFFCURVE",
"1276 927 OFFCURVE",
"1276 1076 CURVE SMOOTH",
"1276 1340 OFFCURVE",
"1096 1456 OFFCURVE",
"801 1456 CURVE SMOOTH",
"371 1456 LINE",
"371 1456 LINE SMOOTH",
"140 1456 OFFCURVE",
"25 1361 OFFCURVE",
"25 1172 CURVE SMOOTH"
);
},
{
closed = 1;
nodes = (
"1041 1346 OFFCURVE",
"1152 1255 OFFCURVE",
"1152 1078 CURVE SMOOTH",
"1152 898 OFFCURVE",
"1028 804 OFFCURVE",
"813 804 CURVE SMOOTH",
"494 804 LINE",
"494 1351 LINE",
"818 1351 LINE SMOOTH"
);
},
{
closed = 1;
nodes = (
"1205 219 OFFCURVE",
"1078 104 OFFCURVE",
"863 104 CURVE SMOOTH",
"494 104 LINE",
"494 701 LINE",
"872 701 LINE SMOOTH",
"1099 701 OFFCURVE",
"1205 573 OFFCURVE",
"1205 408 CURVE SMOOTH"
);
}
);
width = 1441;
}
);
note = uni0181;
unicode = 0181;
},
{
glyphname = uni0183;
lastChange = "2017-04-17 14:53:26 +0000";
layers = (
{
layerId = "10767FFE-EA3C-45A9-8421-483827593C6E";
paths = (
{
closed = 1;
nodes = (
"273 149 LINE",
"350 36 OFFCURVE",
"464 -20 OFFCURVE",
"615 -20 CURVE SMOOTH",
"876 -20 OFFCURVE",
"1028 207 OFFCURVE",
"1028 530 CURVE SMOOTH",
"1028 551 LINE SMOOTH",
"1028 887 OFFCURVE",
"877 1102 OFFCURVE",
"613 1102 CURVE SMOOTH",
"464 1102 OFFCURVE",
"352 1043 OFFCURVE",
"275 926 CURVE",
"275 1434 LINE",
"869 1434 LINE",
"869 1536 LINE",
"155 1536 LINE",
"155 0 LINE",
"267 0 LINE"
);
},
{
closed = 1;
nodes = (
"814 998 OFFCURVE",
"907 803 OFFCURVE",
"907 551 CURVE SMOOTH",
"907 525 LINE SMOOTH",
"906 276 OFFCURVE",
"809 84 OFFCURVE",
"592 84 CURVE SMOOTH",
"427 84 OFFCURVE",
"324 173 OFFCURVE",
"275 288 CURVE",
"275 777 LINE",
"319 892 OFFCURVE",
"410 998 OFFCURVE",
"590 998 CURVE SMOOTH"
);
}
);
width = 1135;
}
);
note = uni0183;
rightKerningGroup = b;
unicode = 0183;
},
{
glyphname = uni0184;
lastChange = "2017-04-17 14:53:26 +0000";
layers = (
{
layerId = "10767FFE-EA3C-45A9-8421-483827593C6E";
paths = (
{
closed = 1;
nodes = (
"1196 658 OFFCURVE",
"1029 823 OFFCURVE",
"717 824 CURVE SMOOTH",
"353 824 LINE",
"353 1456 LINE",
"230 1456 LINE",
"94 1240 LINE",
"94 1182 LINE",
"230 967 LINE",
"230 0 LINE",
"713 0 LINE SMOOTH",
"1028 0 OFFCURVE",
"1196 171 OFFCURVE",
"1196 414 CURVE SMOOTH"
);
},
{
closed = 1;
nodes = (
"713 720 LINE SMOOTH",
"968 720 OFFCURVE",
"1072 577 OFFCURVE",
"1072 416 CURVE SMOOTH",
"1072 251 OFFCURVE",
"968 104 OFFCURVE",
"713 104 CURVE SMOOTH",
"353 104 LINE",
"353 720 LINE"
);
}
);
width = 1288;
}
);
note = uni0184;
unicode = 0184;
},
{
glyphname = uni0185;
lastChange = "2017-04-17 14:53:26 +0000";
layers = (
{
layerId = "10767FFE-EA3C-45A9-8421-483827593C6E";
paths = (
{
closed = 1;
nodes = (
"1092 887 OFFCURVE",
"941 1102 OFFCURVE",
"676 1102 CURVE SMOOTH",
"528 1102 OFFCURVE",
"416 1043 OFFCURVE",
"339 926 CURVE",
"339 1536 LINE",
"219 1536 LINE",
"84 1320 LINE",
"84 1262 LINE",
"219 1047 LINE",
"219 0 LINE",
"331 0 LINE",
"337 149 LINE",
"414 36 OFFCURVE",
"527 -20 OFFCURVE",
"678 -20 CURVE SMOOTH",
"939 -20 OFFCURVE",
"1092 207 OFFCURVE",
"1092 530 CURVE SMOOTH",
"1092 551 LINE SMOOTH"
);
},
{
closed = 1;
nodes = (
"878 998 OFFCURVE",
"971 803 OFFCURVE",
"971 551 CURVE SMOOTH",
"971 525 LINE SMOOTH",
"970 276 OFFCURVE",
"873 84 OFFCURVE",
"656 84 CURVE SMOOTH",
"491 84 OFFCURVE",
"390 172 OFFCURVE",
"339 287 CURVE",
"339 778 LINE",
"384 891 OFFCURVE",
"474 998 OFFCURVE",
"654 998 CURVE SMOOTH"
);
}
);
width = 1187;
}
);
note = uni0185;
rightKerningGroup = b;
unicode = 0185;
},
{
glyphname = uni0186;
lastChange = "2017-04-17 14:53:26 +0000";
layers = (
{
layerId = "10767FFE-EA3C-45A9-8421-483827593C6E";
paths = (
{
closed = 1;
nodes = (
"146 156 OFFCURVE",
"331 -20 OFFCURVE",
"642 -20 CURVE SMOOTH",
"982 -20 OFFCURVE",
"1198 244 OFFCURVE",
"1198 637 CURVE SMOOTH",
"1198 830 LINE",
"1194 1217 OFFCURVE",
"979 1476 OFFCURVE",
"651 1476 CURVE SMOOTH",
"330 1476 OFFCURVE",
"146 1298 OFFCURVE",
"115 1002 CURVE",
"238 1002 LINE",
"270 1247 OFFCURVE",
"394 1372 OFFCURVE",
"651 1372 CURVE SMOOTH",
"922 1372 OFFCURVE",
"1075 1140 OFFCURVE",
"1075 819 CURVE SMOOTH",
"1075 635 LINE SMOOTH",
"1075 306 OFFCURVE",
"911 85 OFFCURVE",
"642 85 CURVE SMOOTH",
"391 85 OFFCURVE",
"267 220 OFFCURVE",
"238 455 CURVE",
"115 455 LINE"
);
}
);
width = 1330;
}
);
note = uni0186;
rightKerningGroup = D;
unicode = 0186;
},
{
glyphname = uni0187;
lastChange = "2017-04-17 14:53:26 +0000";
layers = (
{
layerId = "10767FFE-EA3C-45A9-8421-483827593C6E";
paths = (
{
closed = 1;
nodes = (
"1428 1418 OFFCURVE",
"1455 1413 OFFCURVE",
"1482 1404 CURVE",
"1489 1507 LINE",
"1451 1519 OFFCURVE",
"1413 1525 OFFCURVE",
"1376 1525 CURVE SMOOTH",
"1227 1525 OFFCURVE",
"1141 1444 OFFCURVE",
"1117 1283 CURVE",
"1025 1412 OFFCURVE",
"882 1476 OFFCURVE",
"688 1476 CURVE SMOOTH",
"348 1476 OFFCURVE",
"132 1212 OFFCURVE",
"132 819 CURVE SMOOTH",
"132 626 LINE SMOOTH",
"136 239 OFFCURVE",
"351 -20 OFFCURVE",
"680 -20 CURVE SMOOTH",
"1000 -20 OFFCURVE",
"1184 158 OFFCURVE",
"1215 454 CURVE",
"1092 454 LINE",
"1061 209 OFFCURVE",
"937 84 OFFCURVE",
"680 84 CURVE SMOOTH",
"409 84 OFFCURVE",
"255 316 OFFCURVE",
"255 637 CURVE SMOOTH",
"255 821 LINE SMOOTH",
"255 1150 OFFCURVE",
"419 1371 OFFCURVE",
"688 1371 CURVE SMOOTH",
"939 1371 OFFCURVE",
"1063 1236 OFFCURVE",
"1092 1001 CURVE",
"1215 1001 LINE",
"1215 1187 LINE SMOOTH",
"1218 1341 OFFCURVE",
"1279 1418 OFFCURVE",
"1399 1418 CURVE SMOOTH"
);
}
);
width = 1426;
}
);
leftKerningGroup = C;
note = uni0187;
unicode = 0187;
},
{
glyphname = uni0188;
lastChange = "2017-04-17 14:53:26 +0000";
layers = (
{
layerId = "10767FFE-EA3C-45A9-8421-483827593C6E";
paths = (
{
closed = 1;
nodes = (
"1174 1049 OFFCURVE",
"1201 1045 OFFCURVE",
"1224 1036 CURVE",
"1231 1125 LINE",
"1195 1137 OFFCURVE",
"1160 1143 OFFCURVE",
"1125 1143 CURVE SMOOTH",
"998 1143 OFFCURVE",
"920 1078 OFFCURVE",
"893 948 CURVE",
"815 1051 OFFCURVE",
"702 1102 OFFCURVE",
"555 1102 CURVE SMOOTH",
"254 1102 OFFCURVE",
"95 866 OFFCURVE",
"95 562 CURVE SMOOTH",
"95 513 LINE SMOOTH",
"98 212 OFFCURVE",
"256 -20 OFFCURVE",
"557 -20 CURVE SMOOTH",
"777 -20 OFFCURVE",
"961 128 OFFCURVE",
"972 335 CURVE",
"858 335 LINE",
"846 170 OFFCURVE",
"708 82 OFFCURVE",
"557 82 CURVE SMOOTH",
"308 82 OFFCURVE",
"214 289 OFFCURVE",
"214 520 CURVE SMOOTH",
"214 562 LINE SMOOTH",
"214 791 OFFCURVE",
"308 1000 OFFCURVE",
"555 1000 CURVE SMOOTH",
"719 1000 OFFCURVE",
"847 893 OFFCURVE",
"858 718 CURVE",
"972 718 LINE",
"972 828 LINE SMOOTH",
"975 975 OFFCURVE",
"1032 1049 OFFCURVE",
"1145 1049 CURVE SMOOTH"
);
}
);
width = 1262;
}
);
leftKerningGroup = c;
note = uni0188;
unicode = 0188;
},
{
glyphname = uni018A;
lastChange = "2017-04-17 14:53:26 +0000";
layers = (
{
layerId = "10767FFE-EA3C-45A9-8421-483827593C6E";
paths = (
{
closed = 1;
nodes = (
"25 1135 OFFCURVE",
"31 1097 OFFCURVE",
"43 1058 CURVE",
"144 1065 LINE",
"135 1093 OFFCURVE",
"130 1121 OFFCURVE",
"130 1149 CURVE SMOOTH",
"130 1283 OFFCURVE",
"210 1350 OFFCURVE",
"371 1351 CURVE",
"371 0 LINE",
"769 0 LINE SMOOTH",
"1144 0 OFFCURVE",
"1399 261 OFFCURVE",
"1399 661 CURVE SMOOTH",
"1399 795 LINE SMOOTH",
"1399 1194 OFFCURVE",
"1141 1456 OFFCURVE",
"778 1456 CURVE SMOOTH",
"371 1456 LINE",
"371 1456 LINE SMOOTH",
"140 1456 OFFCURVE",
"25 1361 OFFCURVE",
"25 1172 CURVE SMOOTH"
);
},
{
closed = 1;
nodes = (
"1078 1351 OFFCURVE",
"1277 1133 OFFCURVE",
"1277 797 CURVE SMOOTH",
"1277 661 LINE SMOOTH",
"1277 330 OFFCURVE",
"1081 104 OFFCURVE",
"769 104 CURVE SMOOTH",
"494 104 LINE",
"494 1351 LINE",
"778 1351 LINE SMOOTH"
);
}
);
width = 1532;
}
);
note = uni018A;
rightKerningGroup = D;
unicode = 018A;
},
{
glyphname = uni018B;
lastChange = "2017-04-17 14:53:26 +0000";
layers = (
{
layerId = "10767FFE-EA3C-45A9-8421-483827593C6E";
paths = (
{
closed = 1;
nodes = (
"181 1456 LINE",
"181 1351 LINE",
"936 1351 LINE",
"936 824 LINE",
"576 824 LINE SMOOTH",
"260 824 OFFCURVE",
"93 659 OFFCURVE",
"93 414 CURVE SMOOTH",
"93 173 OFFCURVE",
"260 1 OFFCURVE",
"572 0 CURVE SMOOTH",
"1059 0 LINE",
"1059 1456 LINE"
);
},
{
closed = 1;
nodes = (
"321 104 OFFCURVE",
"217 251 OFFCURVE",
"217 416 CURVE SMOOTH",
"217 577 OFFCURVE",
"321 720 OFFCURVE",
"576 720 CURVE SMOOTH",
"936 720 LINE",
"936 104 LINE",
"576 104 LINE SMOOTH"
);
}
);
width = 1241;
}
);
note = uni018B;
rightKerningGroup = H;
unicode = 018B;
},
{
glyphname = uni018C;
lastChange = "2017-04-17 14:53:26 +0000";
layers = (
{
layerId = "10767FFE-EA3C-45A9-8421-483827593C6E";
paths = (
{
closed = 1;
nodes = (
"860 931 LINE",
"784 1045 OFFCURVE",
"673 1102 OFFCURVE",
"526 1102 CURVE SMOOTH",
"269 1102 OFFCURVE",
"109 887 OFFCURVE",
"109 551 CURVE SMOOTH",
"109 530 LINE SMOOTH",
"109 207 OFFCURVE",
"269 -20 OFFCURVE",
"524 -20 CURVE SMOOTH",
"673 -20 OFFCURVE",
"786 35 OFFCURVE",
"862 145 CURVE",
"868 0 LINE",
"980 0 LINE",
"980 1536 LINE",
"267 1536 LINE",
"267 1434 LINE",
"860 1434 LINE"
);
},
{
closed = 1;
nodes = (
"229 803 OFFCURVE",
"329 998 OFFCURVE",
"549 998 CURVE SMOOTH",
"722 998 OFFCURVE",
"813 899 OFFCURVE",
"860 790 CURVE",
"860 279 LINE",
"807 167 OFFCURVE",
"710 84 OFFCURVE",
"547 84 CURVE SMOOTH",
"330 84 OFFCURVE",
"229 278 OFFCURVE",
"229 530 CURVE SMOOTH",
"229 551 LINE SMOOTH"
);
}
);
width = 1138;
}
);
note = uni018C;
unicode = 018C;
},
{
glyphname = uni018D;
lastChange = "2017-04-17 14:53:26 +0000";
layers = (
{
layerId = "10767FFE-EA3C-45A9-8421-483827593C6E";
paths = (
{
closed = 1;
nodes = (
"844 -247 OFFCURVE",
"779 -194 OFFCURVE",
"693 -132 CURVE SMOOTH",
"607 -71 OFFCURVE",
"529 -6 OFFCURVE",
"460 61 CURVE",
"481 55 OFFCURVE",
"514 52 OFFCURVE",
"559 52 CURVE",
"855 68 OFFCURVE",
"1048 275 OFFCURVE",
"1048 544 CURVE SMOOTH",
"1048 589 LINE",
"1043 886 OFFCURVE",
"858 1102 OFFCURVE",
"569 1102 CURVE SMOOTH",
"277 1102 OFFCURVE",
"92 880 OFFCURVE",
"92 576 CURVE SMOOTH",
"92 407 OFFCURVE",
"127 308 OFFCURVE",
"220 177 CURVE SMOOTH",
"312 46 OFFCURVE",
"457 -83 OFFCURVE",
"576 -166 CURVE SMOOTH",
"635 -208 OFFCURVE",
"684 -245 OFFCURVE",
"722 -276 CURVE",
"192 -276 LINE",
"192 -375 LINE",
"888 -375 LINE",
"888 -292 LINE"
);
},
{
closed = 1;
nodes = (
"929 330 OFFCURVE",
"792 138 OFFCURVE",
"537 138 CURVE SMOOTH",
"486 138 OFFCURVE",
"437 144 OFFCURVE",
"389 156 CURVE",
"316 211 OFFCURVE",
"211 351 OFFCURVE",
"211 544 CURVE SMOOTH",
"211 576 LINE SMOOTH",
"211 803 OFFCURVE",
"336 1000 OFFCURVE",
"569 1000 CURVE SMOOTH",
"805 1000 OFFCURVE",
"929 803 OFFCURVE",
"929 576 CURVE SMOOTH",
"929 545 LINE SMOOTH"
);
}
);
width = 1141;
}
);
note = uni018D;
unicode = 018D;
},
{
glyphname = uni018E;
lastChange = "2017-04-17 14:53:26 +0000";
layers = (
{
layerId = "10767FFE-EA3C-45A9-8421-483827593C6E";
paths = (
{
closed = 1;
nodes = (
"857 786 LINE",
"177 786 LINE",
"177 682 LINE",
"857 682 LINE",
"857 105 LINE",
"80 105 LINE",
"80 0 LINE",
"980 0 LINE",
"980 1456 LINE",
"75 1456 LINE",
"75 1352 LINE",
"857 1352 LINE"
);
}
);
width = 1165;
}
);
note = uni018E;
rightKerningGroup = H;
unicode = 018E;
},
{
glyphname = uni018F;
lastChange = "2017-04-17 14:53:26 +0000";
layers = (
{
layerId = "10767FFE-EA3C-45A9-8421-483827593C6E";
paths = (
{
closed = 1;
nodes = (
"1313 1198 OFFCURVE",
"1089 1476 OFFCURVE",
"684 1476 CURVE SMOOTH",
"439 1476 OFFCURVE",
"308 1400 OFFCURVE",
"236 1343 CURVE",
"274 1250 LINE",
"388 1330 OFFCURVE",
"525 1370 OFFCURVE",
"684 1370 CURVE SMOOTH",
"1041 1370 OFFCURVE",
"1189 1118 OFFCURVE",
"1189 805 CURVE SMOOTH",
"1189 738 LINE",
"125 738 LINE",
"125 615 LINE SMOOTH",
"125 224 OFFCURVE",
"347 -20 OFFCURVE",
"726 -20 CURVE SMOOTH",
"837 -20 OFFCURVE",
"936 9 OFFCURVE",
"1025 68 CURVE SMOOTH",
"1201 185 OFFCURVE",
"1313 400 OFFCURVE",
"1313 672 CURVE SMOOTH",
"1313 805 LINE SMOOTH"
);
},
{
closed = 1;
nodes = (
"401 85 OFFCURVE",
"248 307 OFFCURVE",
"248 584 CURVE SMOOTH",
"248 638 LINE",
"1188 638 LINE",
"1177 329 OFFCURVE",
"1009 85 OFFCURVE",
"726 85 CURVE SMOOTH"
);
}
);
width = 1434;
}
);
note = uni018F;
rightKerningGroup = D;
unicode = 018F;
},
{
glyphname = uni0190;
lastChange = "2017-04-17 14:53:26 +0000";
layers = (
{
layerId = "10767FFE-EA3C-45A9-8421-483827593C6E";
paths = (
{
closed = 1;
nodes = (
"351 796 OFFCURVE",
"243 908 OFFCURVE",
"243 1077 CURVE SMOOTH",
"243 1246 OFFCURVE",
"359 1372 OFFCURVE",
"624 1372 CURVE SMOOTH",
"825 1372 OFFCURVE",
"987 1256 OFFCURVE",
"987 1075 CURVE",
"1111 1075 LINE",
"1111 1323 OFFCURVE",
"887 1476 OFFCURVE",
"624 1476 CURVE SMOOTH",
"319 1476 OFFCURVE",
"119 1337 OFFCURVE",
"119 1073 CURVE SMOOTH",
"119 913 OFFCURVE",
"205 804 OFFCURVE",
"376 745 CURVE",
"190 693 OFFCURVE",
"97 577 OFFCURVE",
"97 396 CURVE SMOOTH",
"97 107 OFFCURVE",
"329 -21 OFFCURVE",
"624 -21 CURVE SMOOTH",
"706 -21 OFFCURVE",
"786 -6 OFFCURVE",
"864 24 CURVE SMOOTH",
"1020 84 OFFCURVE",
"1132 207 OFFCURVE",
"1132 404 CURVE",
"1008 404 LINE",
"1008 220 OFFCURVE",
"855 83 OFFCURVE",
"624 83 CURVE SMOOTH",
"371 83 OFFCURVE",
"220 193 OFFCURVE",
"220 392 CURVE SMOOTH",
"220 601 OFFCURVE",
"356 689 OFFCURVE",
"615 690 CURVE SMOOTH",
"794 690 LINE",
"794 796 LINE",
"620 796 LINE SMOOTH"
);
}
);
width = 1278;
}
);
note = uni0190;
unicode = 0190;
},
{
glyphname = uni0191;
lastChange = "2017-04-17 14:53:26 +0000";
layers = (
{
layerId = "10767FFE-EA3C-45A9-8421-483827593C6E";
paths = (
{
closed = 1;
nodes = (
"215 1456 LINE",
"215 -94 LINE SMOOTH",
"214 -251 OFFCURVE",
"153 -329 OFFCURVE",
"33 -329 CURVE SMOOTH",
"2 -329 OFFCURVE",
"-31 -324 OFFCURVE",
"-65 -314 CURVE",
"-79 -418 LINE",
"-41 -431 OFFCURVE",
"-4 -437 OFFCURVE",
"33 -437 CURVE SMOOTH",
"224 -437 OFFCURVE",
"339 -314 OFFCURVE",
"339 -89 CURVE SMOOTH",
"339 680 LINE",
"1017 680 LINE",
"1017 786 LINE",
"339 786 LINE",
"339 1351 LINE",
"1117 1351 LINE",
"1117 1456 LINE"
);
}
);
width = 1183;
}
);
note = uni0191;
unicode = 0191;
},
{
glyphname = florin;
lastChange = "2017-04-17 14:53:26 +0000";
layers = (
{
layerId = "10767FFE-EA3C-45A9-8421-483827593C6E";
paths = (
{
closed = 1;
nodes = (
"356 1226 LINE SMOOTH",
"359 1377 OFFCURVE",
"426 1453 OFFCURVE",
"559 1453 CURVE SMOOTH",
"598 1453 OFFCURVE",
"634 1449 OFFCURVE",
"667 1440 CURVE",
"682 1538 LINE",
"638 1551 OFFCURVE",
"593 1557 OFFCURVE",
"547 1557 CURVE SMOOTH",
"355 1557 OFFCURVE",
"237 1437 OFFCURVE",
"236 1221 CURVE SMOOTH",
"236 1082 LINE",
"57 1082 LINE",
"57 984 LINE",
"236 984 LINE",
"236 -94 LINE SMOOTH",
"235 -255 OFFCURVE",
"174 -335 OFFCURVE",
"53 -335 CURVE SMOOTH",
"14 -335 OFFCURVE",
"-19 -330 OFFCURVE",
"-46 -320 CURVE",
"-59 -418 LINE",
"-22 -431 OFFCURVE",
"16 -437 OFFCURVE",
"53 -437 CURVE SMOOTH",
"244 -437 OFFCURVE",
"356 -314 OFFCURVE",
"356 -89 CURVE SMOOTH",
"356 984 LINE",
"601 984 LINE",
"601 1082 LINE",
"356 1082 LINE"
);
}
);
width = 671;
}
);
note = florin;
unicode = 0192;
},
{
glyphname = uni0193;
lastChange = "2017-04-17 14:53:26 +0000";
layers = (
{
layerId = "10767FFE-EA3C-45A9-8421-483827593C6E";
paths = (
{
closed = 1;
nodes = (
"1238 1343 OFFCURVE",
"1299 1421 OFFCURVE",
"1419 1421 CURVE SMOOTH",
"1446 1421 OFFCURVE",
"1474 1416 OFFCURVE",
"1502 1407 CURVE",
"1509 1507 LINE",
"1471 1519 OFFCURVE",
"1433 1525 OFFCURVE",
"1395 1525 CURVE SMOOTH",
"1250 1525 OFFCURVE",
"1165 1446 OFFCURVE",
"1140 1289 CURVE",
"1055 1404 OFFCURVE",
"913 1476 OFFCURVE",
"710 1476 CURVE SMOOTH",
"361 1476 OFFCURVE",
"145 1222 OFFCURVE",
"145 822 CURVE SMOOTH",
"145 645 LINE SMOOTH",
"145 238 OFFCURVE",
"386 -20 OFFCURVE",
"729 -20 CURVE SMOOTH",
"882 -20 OFFCURVE",
"998 3 OFFCURVE",
"1078 50 CURVE SMOOTH",
"1157 96 OFFCURVE",
"1210 137 OFFCURVE",
"1235 174 CURVE",
"1235 692 LINE",
"722 692 LINE",
"722 587 LINE",
"1113 587 LINE",
"1113 211 LINE",
"1092 186 OFFCURVE",
"1051 158 OFFCURVE",
"989 129 CURVE SMOOTH",
"927 99 OFFCURVE",
"841 84 OFFCURVE",
"730 84 CURVE SMOOTH",
"453 84 OFFCURVE",
"269 306 OFFCURVE",
"269 645 CURVE SMOOTH",
"269 824 LINE SMOOTH",
"269 1152 OFFCURVE",
"426 1371 OFFCURVE",
"710 1371 CURVE SMOOTH",
"973 1371 OFFCURVE",
"1082 1219 OFFCURVE",
"1111 1046 CURVE",
"1235 1046 LINE",
"1235 1187 LINE SMOOTH"
);
}
);
width = 1444;
}
);
leftKerningGroup = C;
note = uni0193;
unicode = 0193;
},
{
glyphname = uni0194;
lastChange = "2017-04-17 14:53:26 +0000";
layers = (
{
layerId = "10767FFE-EA3C-45A9-8421-483827593C6E";
paths = (
{
closed = 1;
nodes = (
"822 -150 OFFCURVE",
"814 -112 OFFCURVE",
"798 -69 CURVE",
"690 184 LINE",
"685 197 LINE",
"1227 1456 LINE",
"1091 1456 LINE",
"625 340 LINE",
"164 1456 LINE",
"27 1456 LINE",
"568 202 LINE",
"560 184 LINE",
"465 -45 LINE SMOOTH",
"444 -96 OFFCURVE",
"434 -143 OFFCURVE",
"434 -185 CURVE SMOOTH",
"434 -316 OFFCURVE",
"498 -382 OFFCURVE",
"627 -382 CURVE SMOOTH",
"747 -382 OFFCURVE",
"822 -312 OFFCURVE",
"822 -185 CURVE SMOOTH"
);
},
{
closed = 1;
nodes = (
"551 -137 OFFCURVE",
"576 -54 OFFCURVE",
"627 64 CURVE",
"677 -52 OFFCURVE",
"702 -135 OFFCURVE",
"702 -185 CURVE SMOOTH",
"702 -247 OFFCURVE",
"677 -278 OFFCURVE",
"627 -278 CURVE SMOOTH",
"576 -278 OFFCURVE",
"551 -247 OFFCURVE",
"551 -185 CURVE SMOOTH"
);
}
);
width = 1255;
}
);
note = uni0194;
unicode = 0194;
},
{
glyphname = uni0195;
lastChange = "2017-04-17 14:53:26 +0000";
layers = (
{
layerId = "10767FFE-EA3C-45A9-8421-483827593C6E";
paths = (
{
closed = 1;
nodes = (
"473 1102 OFFCURVE",
"351 1022 OFFCURVE",
"276 901 CURVE",
"276 1536 LINE",
"156 1536 LINE",
"156 0 LINE",
"276 0 LINE",
"276 744 LINE",
"323 875 OFFCURVE",
"430 999 OFFCURVE",
"598 999 CURVE SMOOTH",
"793 999 OFFCURVE",
"853 888 OFFCURVE",
"853 697 CURVE SMOOTH",
"853 455 LINE SMOOTH",
"853 118 OFFCURVE",
"995 -21 OFFCURVE",
"1223 -21 CURVE SMOOTH",
"1303 -21 OFFCURVE",
"1372 -2 OFFCURVE",
"1429 35 CURVE SMOOTH",
"1543 110 OFFCURVE",
"1591 241 OFFCURVE",
"1592 448 CURVE SMOOTH",
"1592 1082 LINE",
"1472 1082 LINE",
"1472 453 LINE SMOOTH",
"1472 178 OFFCURVE",
"1360 84 OFFCURVE",
"1223 84 CURVE SMOOTH",
"1087 84 OFFCURVE",
"976 177 OFFCURVE",
"973 442 CURVE",
"973 698 LINE SMOOTH",
"973 933 OFFCURVE",
"893 1102 OFFCURVE",
"628 1102 CURVE SMOOTH"
);
}
);
width = 1745;
}
);
note = uni0195;
unicode = 0195;
},
{
glyphname = uni0198;
lastChange = "2017-04-17 14:53:26 +0000";
layers = (
{
layerId = "10767FFE-EA3C-45A9-8421-483827593C6E";
paths = (
{
closed = 1;
nodes = (
"596 811 LINE",
"923 1231 LINE SMOOTH",
"979 1303 OFFCURVE",
"1024 1362 OFFCURVE",
"1107 1362 CURVE SMOOTH",
"1155 1362 OFFCURVE",
"1203 1340 OFFCURVE",
"1251 1296 CURVE",
"1304 1380 LINE",
"1240 1444 OFFCURVE",
"1172 1476 OFFCURVE",
"1099 1476 CURVE SMOOTH",
"971 1476 OFFCURVE",
"907 1393 OFFCURVE",
"820 1282 CURVE SMOOTH",
"308 626 LINE",
"308 1456 LINE",
"185 1456 LINE",
"185 0 LINE",
"308 0 LINE",
"308 461 LINE",
"519 716 LINE",
"1106 0 LINE",
"1256 0 LINE"
);
}
);
width = 1292;
}
);
note = uni0198;
rightKerningGroup = K;
unicode = 0198;
},
{
glyphname = uni0199;
lastChange = "2017-04-17 14:53:26 +0000";
layers = (
{
layerId = "10767FFE-EA3C-45A9-8421-483827593C6E";
paths = (
{
closed = 1;
nodes = (
"478 1463 OFFCURVE",
"505 1459 OFFCURVE",
"528 1450 CURVE",
"535 1539 LINE",
"499 1551 OFFCURVE",
"464 1557 OFFCURVE",
"429 1557 CURVE SMOOTH",
"257 1557 OFFCURVE",
"157 1443 OFFCURVE",
"157 1232 CURVE SMOOTH",
"157 0 LINE",
"276 0 LINE",
"276 413 LINE",
"413 545 LINE",
"851 0 LINE",
"995 0 LINE",
"496 626 LINE",
"955 1082 LINE",
"804 1082 LINE",
"389 676 LINE",
"276 554 LINE",
"276 1237 LINE SMOOTH",
"277 1388 OFFCURVE",
"335 1463 OFFCURVE",
"449 1463 CURVE SMOOTH"
);
}
);
width = 1004;
}
);
note = uni0199;
unicode = 0199;
},
{
glyphname = uni019B;
lastChange = "2017-04-17 14:53:26 +0000";
layers = (
{
layerId = "10767FFE-EA3C-45A9-8421-483827593C6E";
paths = (
{
closed = 1;
nodes = (
"1066 97 OFFCURVE",
"1052 95 OFFCURVE",
"1035 95 CURVE SMOOTH",
"970 95 OFFCURVE",
"939 143 OFFCURVE",
"903 236 CURVE SMOOTH",
"532 1225 LINE",
"694 1288 LINE",
"694 1397 LINE",
"496 1320 LINE",
"460 1415 OFFCURVE",
"404 1518 OFFCURVE",
"253 1518 CURVE SMOOTH",
"222 1518 OFFCURVE",
"196 1514 OFFCURVE",
"177 1507 CURVE",
"182 1412 LINE",
"230 1416 LINE",
"311 1416 OFFCURVE",
"345 1363 OFFCURVE",
"381 1275 CURVE",
"215 1210 LINE",
"215 1101 LINE",
"417 1180 LINE",
"467 1052 LINE",
"50 0 LINE",
"182 0 LINE",
"529 891 LINE",
"788 199 LINE SMOOTH",
"837 67 OFFCURVE",
"886 -11 OFFCURVE",
"1018 -11 CURVE SMOOTH",
"1044 -11 OFFCURVE",
"1066 -8 OFFCURVE",
"1085 -1 CURVE",
"1078 100 LINE"
);
}
);
width = 1128;
}
);
note = uni019B;
unicode = 019B;
},
{
glyphname = uni019C;
lastChange = "2017-04-17 14:53:26 +0000";
layers = (
{
layerId = "10767FFE-EA3C-45A9-8421-483827593C6E";
paths = (
{
closed = 1;
nodes = (
"1703 1456 LINE",
"1583 1456 LINE",
"1583 341 LINE",
"1551 196 OFFCURVE",
"1455 84 OFFCURVE",
"1254 84 CURVE SMOOTH",
"1117 84 OFFCURVE",
"1006 179 OFFCURVE",
"1005 447 CURVE",
"1005 1456 LINE",
"885 1456 LINE",
"885 432 LINE",
"889 365 LINE",
"862 208 OFFCURVE",
"768 84 OFFCURVE",
"556 84 CURVE SMOOTH",
"420 84 OFFCURVE",
"307 178 OFFCURVE",
"306 447 CURVE",
"306 1456 LINE",
"187 1456 LINE",
"187 455 LINE SMOOTH",
"187 110 OFFCURVE",
"329 -21 OFFCURVE",
"542 -21 CURVE SMOOTH",
"727 -21 OFFCURVE",
"853 56 OFFCURVE",
"918 211 CURVE",
"968 56 OFFCURVE",
"1076 -21 OFFCURVE",
"1241 -21 CURVE SMOOTH",
"1398 -21 OFFCURVE",
"1513 36 OFFCURVE",
"1585 149 CURVE",
"1588 0 LINE",
"1703 0 LINE"
);
}
);
width = 1890;
}
);
note = uni019C;
rightKerningGroup = H;
unicode = 019C;
},
{
glyphname = uni019D;
lastChange = "2017-04-17 14:53:26 +0000";
layers = (
{
layerId = "10767FFE-EA3C-45A9-8421-483827593C6E";
paths = (
{
closed = 1;
nodes = (
"1299 1456 LINE",
"1177 1456 LINE",
"1177 210 LINE",
"339 1456 LINE",
"215 1456 LINE",
"215 -94 LINE SMOOTH",
"214 -251 OFFCURVE",
"153 -329 OFFCURVE",
"33 -329 CURVE SMOOTH",
"2 -329 OFFCURVE",
"-31 -324 OFFCURVE",
"-65 -314 CURVE",
"-79 -418 LINE",
"-41 -431 OFFCURVE",
"-4 -437 OFFCURVE",
"33 -437 CURVE SMOOTH",
"224 -437 OFFCURVE",
"339 -314 OFFCURVE",
"339 -89 CURVE SMOOTH",
"339 1246 LINE",
"1176 0 LINE",
"1299 0 LINE"
);
}
);
width = 1485;
}
);
note = uni019D;
rightKerningGroup = H;
unicode = 019D;
},
{
glyphname = Ohorn;
lastChange = "2017-04-17 14:53:26 +0000";
layers = (
{
layerId = "10767FFE-EA3C-45A9-8421-483827593C6E";
paths = (
{
closed = 1;
nodes = (
"1266 958 OFFCURVE",
"1238 1084 OFFCURVE",
"1182 1191 CURVE",
"1367 1219 OFFCURVE",
"1448 1350 OFFCURVE",
"1448 1566 CURVE",
"1338 1566 LINE",
"1338 1391 OFFCURVE",
"1289 1288 OFFCURVE",
"1124 1280 CURVE",
"1020 1411 OFFCURVE",
"878 1476 OFFCURVE",
"699 1476 CURVE SMOOTH",
"360 1476 OFFCURVE",
"133 1213 OFFCURVE",
"133 806 CURVE SMOOTH",
"133 635 LINE SMOOTH",
"138 236 OFFCURVE",
"366 -20 OFFCURVE",
"701 -20 CURVE SMOOTH",
"1046 -20 OFFCURVE",
"1267 242 OFFCURVE",
"1267 650 CURVE SMOOTH",
"1267 811 LINE"
);
},
{
closed = 1;
nodes = (
"1145 303 OFFCURVE",
"984 88 OFFCURVE",
"701 88 CURVE SMOOTH",
"426 88 OFFCURVE",
"256 303 OFFCURVE",
"256 650 CURVE SMOOTH",
"256 808 LINE SMOOTH",
"256 1152 OFFCURVE",
"424 1368 OFFCURVE",
"699 1368 CURVE SMOOTH",
"980 1368 OFFCURVE",
"1145 1152 OFFCURVE",
"1145 808 CURVE SMOOTH",
"1145 650 LINE SMOOTH"
);
}
);
width = 1429;
}
);
leftKerningGroup = C;
note = Ohorn;
unicode = 01A0;
},
{
glyphname = ohorn;
lastChange = "2017-04-17 14:53:26 +0000";
layers = (
{
layerId = "10767FFE-EA3C-45A9-8421-483827593C6E";
paths = (
{
closed = 1;
nodes = (
"1055 681 OFFCURVE",
"1028 789 OFFCURVE",
"973 880 CURVE",
"1129 908 OFFCURVE",
"1184 1021 OFFCURVE",
"1184 1198 CURVE",
"1082 1198 LINE",
"1082 1057 OFFCURVE",
"1057 968 OFFCURVE",
"914 959 CURVE",
"825 1054 OFFCURVE",
"711 1102 OFFCURVE",
"571 1102 CURVE SMOOTH",
"280 1102 OFFCURVE",
"89 872 OFFCURVE",
"89 557 CURVE SMOOTH",
"89 525 LINE SMOOTH",
"89 209 OFFCURVE",
"280 -20 OFFCURVE",
"573 -20 CURVE SMOOTH",
"866 -20 OFFCURVE",
"1055 209 OFFCURVE",
"1055 525 CURVE SMOOTH",
"1055 557 LINE SMOOTH"
);
},
{
closed = 1;
nodes = (
"209 791 OFFCURVE",
"338 1000 OFFCURVE",
"571 1000 CURVE SMOOTH",
"807 1000 OFFCURVE",
"935 790 OFFCURVE",
"935 557 CURVE SMOOTH",
"935 525 LINE SMOOTH",
"935 286 OFFCURVE",
"806 82 OFFCURVE",
"573 82 CURVE SMOOTH",
"337 82 OFFCURVE",
"209 286 OFFCURVE",
"209 525 CURVE SMOOTH",
"209 556 LINE SMOOTH"
);
}
);
width = 1146;
}
);
leftKerningGroup = c;
note = ohorn;
unicode = 01A1;
},
{
glyphname = uni01A2;
lastChange = "2017-04-17 14:53:26 +0000";
layers = (
{
layerId = "10767FFE-EA3C-45A9-8421-483827593C6E";
paths = (
{
closed = 1;
nodes = (
"868 -21 OFFCURVE",
"984 3 OFFCURVE",
"1063 50 CURVE SMOOTH",
"1142 97 OFFCURVE",
"1195 138 OFFCURVE",
"1220 174 CURVE",
"1220 1250 LINE",
"1368 1331 LINE",
"1368 -416 LINE",
"1488 -416 LINE",
"1488 1456 LINE",
"1391 1456 LINE",
"1171 1335 LINE",
"1096 1402 OFFCURVE",
"954 1476 OFFCURVE",
"715 1476 CURVE SMOOTH",
"372 1476 OFFCURVE",
"132 1217 OFFCURVE",
"132 810 CURVE SMOOTH",
"132 645 LINE SMOOTH",
"132 232 OFFCURVE",
"374 -21 OFFCURVE",
"715 -21 CURVE SMOOTH"
);
},
{
closed = 1;
nodes = (
"828 1372 OFFCURVE",
"915 1357 OFFCURVE",
"977 1327 CURVE SMOOTH",
"1038 1297 OFFCURVE",
"1080 1269 OFFCURVE",
"1101 1243 CURVE",
"1101 213 LINE",
"1080 187 OFFCURVE",
"1038 159 OFFCURVE",
"977 129 CURVE SMOOTH",
"916 99 OFFCURVE",
"830 84 OFFCURVE",
"719 84 CURVE SMOOTH",
"426 84 OFFCURVE",
"254 313 OFFCURVE",
"254 645 CURVE SMOOTH",
"254 822 LINE SMOOTH",
"258 1155 OFFCURVE",
"439 1372 OFFCURVE",
"715 1372 CURVE SMOOTH"
);
}
);
width = 1674;
}
);
leftKerningGroup = C;
note = uni01A2;
rightKerningGroup = H;
unicode = 01A2;
},
{
glyphname = uni01A3;
lastChange = "2017-04-17 14:53:26 +0000";
layers = (
{
layerId = "10767FFE-EA3C-45A9-8421-483827593C6E";
paths = (
{
closed = 1;
nodes = (
"1117 -416 LINE",
"1117 1082 LINE",
"1020 1082 LINE",
"860 987 LINE",
"783 1064 OFFCURVE",
"682 1102 OFFCURVE",
"557 1102 CURVE SMOOTH",
"254 1102 OFFCURVE",
"96 866 OFFCURVE",
"96 562 CURVE SMOOTH",
"96 520 LINE SMOOTH",
"96 216 OFFCURVE",
"255 -21 OFFCURVE",
"558 -21 CURVE SMOOTH",
"690 -21 OFFCURVE",
"797 24 OFFCURVE",
"879 113 CURVE",
"879 852 LINE",
"997 928 LINE",
"997 -416 LINE"
);
},
{
closed = 1;
nodes = (
"329 81 OFFCURVE",
"216 263 OFFCURVE",
"216 520 CURVE SMOOTH",
"216 562 LINE SMOOTH",
"216 791 OFFCURVE",
"310 1000 OFFCURVE",
"557 1000 CURVE SMOOTH",
"638 1000 OFFCURVE",
"705 977 OFFCURVE",
"760 930 CURVE",
"760 146 LINE",
"705 103 OFFCURVE",
"637 81 OFFCURVE",
"558 81 CURVE SMOOTH"
);
}
);
width = 1275;
}
);
note = uni01A3;
unicode = 01A3;
},
{
glyphname = uni01A4;
lastChange = "2017-04-17 14:53:26 +0000";
layers = (
{
layerId = "10767FFE-EA3C-45A9-8421-483827593C6E";
paths = (
{
closed = 1;
nodes = (
"25 1135 OFFCURVE",
"31 1097 OFFCURVE",
"43 1058 CURVE",
"144 1065 LINE",
"135 1093 OFFCURVE",
"130 1121 OFFCURVE",
"130 1149 CURVE SMOOTH",
"130 1283 OFFCURVE",
"210 1350 OFFCURVE",
"371 1351 CURVE",
"371 0 LINE",
"494 0 LINE",
"494 593 LINE",
"867 593 LINE SMOOTH",
"1187 593 OFFCURVE",
"1357 753 OFFCURVE",
"1357 1022 CURVE SMOOTH",
"1357 1279 OFFCURVE",
"1187 1456 OFFCURVE",
"867 1456 CURVE SMOOTH",
"371 1456 LINE",
"371 1456 LINE SMOOTH",
"140 1456 OFFCURVE",
"25 1361 OFFCURVE",
"25 1172 CURVE SMOOTH"
);
},
{
closed = 1;
nodes = (
"1126 1351 OFFCURVE",
"1234 1199 OFFCURVE",
"1234 1020 CURVE SMOOTH",
"1234 839 OFFCURVE",
"1126 698 OFFCURVE",
"867 698 CURVE SMOOTH",
"494 698 LINE",
"494 1351 LINE",
"867 1351 LINE SMOOTH"
);
}
);
width = 1447;
}
);
note = uni01A4;
rightKerningGroup = P;
unicode = 01A4;
},
